<?xml version="1.0" encoding="UTF-8" standalone="no"?>
<!DOCTYPE svg PUBLIC "-//W3C//DTD SVG 1.1//EN" "http://www.w3.org/Graphics/SVG/1.1/DTD/svg11.dtd">
<svg width="100%" height="100%" viewBox="0 0 153 73" version="1.1" xmlns="http://www.w3.org/2000/svg" xmlns:xlink="http://www.w3.org/1999/xlink" xml:space="preserve" xmlns:serif="http://www.serif.com/" style="fill-rule:evenodd;clip-rule:evenodd;stroke-miterlimit:1;">
    <g transform="matrix(0.0585196,0,0,-0.0585004,39.2081,1.21983)">
        <path d="M0,-875L-50,-875C-68,-875 -96,-875 -125,-865C-171,-848 -205,-812 -218,-763C-224,-740 -274,-559 -317,-402C-332,-449 -346,-497 -360,-540C-398,-664 -422,-743 -427,-760C-464,-872 -563,-873 -596,-873L-650,-873M-652,-656L-620,-656C-620,-656 -460,-138 -450,-107C-438,-73 -402,5 -312,5C-217,5 -183,-83 -175,-110C-162,-155 -60,-527 -23,-660L0,-660M1193,-876L1143,-876C1111,-876 1011,-876 974,-762C959,-719 909,-553 864,-407C849,-461 833,-518 819,-569C788,-684 768,-756 765,-769C745,-836 689,-881 625,-881M58,-661L82,-661C95,-620 116,-550 139,-478C199,-281 242,-139 253,-109C285,-16 345,6 391,6C429,6 498,-11 527,-111C536,-142 584,-312 625,-464C667,-311 714,-141 722,-111C753,-7 828,4 859,4C897,4 966,-11 997,-107C998,-110 1006,-137 1018,-178C1055,-297 1134,-558 1167,-661L1193,-661M625,-881C559,-881 501,-833 484,-765C480,-746 434,-563 390,-405C376,-451 362,-498 349,-541C310,-667 281,-746 276,-762C238,-876 143,-876 107,-876L59,-876M1610,-211L1461,-211C1440,-211 1424,-228 1424,-248C1424,-266 1436,-279 1448,-283L1610,-332L1612,-332C1728,-369 1805,-476 1805,-597C1805,-751 1681,-876 1527,-876L1245,-876M1245,-660L1527,-661C1562,-661 1590,-632 1590,-597C1590,-570 1573,-546 1547,-537L1385,-488C1384,-488 1383,-488 1382,-487C1278,-453 1209,-357 1209,-248C1209,-109 1322,4 1461,4L1610,4" style="fill:none;stroke:black;stroke-width:21px;"/>
    </g>
    <g transform="matrix(0.0585196,0,0,-0.0585004,0.8778,7.24532)">
        <path d="M0,-663L59,-662C92,-662 114,-662 127,-623C140,-584 287,-93 306,-39C315,-13 326,1 342,1C358,1 368,-12 375,-37C391,-89 531,-598 540,-631C549,-665 578,-665 604,-665L655,-665M1848,-663L1802,-663C1769,-663 1747,-663 1734,-623C1708,-545 1557,-49 1553,-34C1544,-6 1534,1 1518,1C1501,1 1491,-11 1484,-36C1469,-88 1327,-596 1317,-630C1312,-650 1296,-663 1281,-663C1266,-663 1250,-650 1245,-630C1237,-596 1096,-88 1081,-36C1073,-11 1066,1 1047,1C1028,1 1020,-12 1011,-38C992,-92 845,-584 832,-623C819,-663 798,-663 765,-663L713,-663M1900,-663L2185,-663C2280,-663 2356,-586 2356,-492C2356,-416 2307,-351 2238,-329L2074,-280C2016,-261 1975,-207 1975,-143C1975,-63 2039,2 2119,2L2264,2" style="fill:none;stroke:black;stroke-width:21px;stroke-linejoin:round;"/>
    </g>
    <g transform="matrix(1,0,0,1,-127.776,-673.335)">
        <path d="M127.776,736.916L128.361,736.916L129.005,735.161L131.579,735.161L132.282,736.916L132.867,736.916L130.643,731.3L130.058,731.3L127.776,736.916ZM130.292,731.826L131.404,734.751L129.18,734.751L130.292,731.826ZM133.569,736.916L134.096,736.916L134.096,732.06L136.027,736.916L136.554,736.916L138.485,732.06L138.485,736.916L139.011,736.916L139.011,731.3L138.251,731.3L136.261,736.214L134.33,731.3L133.569,731.3L133.569,736.916ZM140.065,735.102C140.006,736.448 140.943,737.033 142.289,737.033C144.278,737.033 144.454,735.804 144.454,735.453C144.454,734.517 143.81,734.166 142.991,733.932L141.586,733.64C141.177,733.523 140.767,733.289 140.767,732.762C140.767,731.943 141.411,731.651 142.171,731.651C142.991,731.651 143.693,732.06 143.693,732.938L144.22,732.938C144.278,731.768 143.283,731.183 142.171,731.183C140.592,731.183 140.24,732.236 140.24,732.762C140.24,733.64 140.826,733.932 141.469,734.108L142.757,734.459C143.283,734.576 143.927,734.81 143.927,735.453C143.927,736.272 142.991,736.565 142.406,736.565C141.411,736.565 140.533,736.214 140.592,735.102L140.065,735.102ZM144.863,731.768L146.853,731.768L146.853,736.916L147.38,736.916L147.38,731.768L149.369,731.768L149.369,731.3L144.863,731.3L144.863,731.768ZM150.072,736.916L153.992,736.916L153.992,736.448L150.598,736.448L150.598,734.225L153.758,734.225L153.758,733.815L150.598,733.815L150.598,731.768L153.934,731.768L153.934,731.3L150.072,731.3L150.072,736.916ZM154.929,736.916L155.455,736.916L155.455,734.459L157.504,734.459C158.557,734.4 158.615,735.278 158.674,736.038C158.674,736.272 158.674,736.682 158.791,736.916L159.376,736.916C159.142,736.623 159.142,735.863 159.142,735.512C159.084,734.81 158.85,734.342 158.147,734.225C158.85,734.049 159.259,733.464 159.259,732.762C159.259,731.768 158.44,731.3 157.504,731.3L154.929,731.3L154.929,736.916ZM155.455,731.768L157.504,731.768C158.264,731.768 158.674,732.177 158.674,732.879C158.674,733.581 158.147,733.991 157.504,733.991L155.455,733.991L155.455,731.768ZM160.956,731.768L162.068,731.768C163.707,731.768 164.409,732.411 164.409,734.108C164.409,735.804 163.707,736.506 162.068,736.448L160.956,736.448L160.956,731.768ZM160.43,736.916L162.361,736.916C164.058,736.916 164.936,735.98 164.936,734.108C164.936,732.294 164.058,731.358 162.361,731.3L160.43,731.3L160.43,736.916ZM165.404,736.916L165.93,736.916L166.633,735.161L169.207,735.161L169.91,736.916L170.437,736.916L168.271,731.3L167.628,731.3L165.404,736.916ZM167.92,731.826L169.032,734.751L166.808,734.751L167.92,731.826ZM171.139,736.916L171.665,736.916L171.665,732.06L171.724,732.06L173.655,736.916L174.123,736.916L176.054,732.06L176.054,736.916L176.639,736.916L176.639,731.3L175.82,731.3L173.889,736.214L171.958,731.3L171.139,731.3L171.139,736.916ZM180.385,736.916L180.912,736.916L180.912,731.3L180.385,731.3L180.385,736.916ZM182.257,736.916L182.784,736.916L182.784,732.177L182.843,732.177L186.12,736.916L186.705,736.916L186.705,731.3L186.178,731.3L186.178,736.038L186.12,736.038L182.843,731.3L182.257,731.3L182.257,736.916ZM187.758,735.102C187.7,736.448 188.636,737.033 189.982,737.033C191.972,737.033 192.147,735.804 192.147,735.453C192.147,734.517 191.503,734.166 190.684,733.932L189.28,733.64C188.87,733.523 188.461,733.289 188.461,732.762C188.461,731.943 189.104,731.651 189.865,731.651C190.684,731.651 191.387,732.06 191.387,732.938L191.913,732.938C191.972,731.768 190.977,731.183 189.865,731.183C188.285,731.183 187.934,732.236 187.934,732.762C187.934,733.64 188.519,733.932 189.163,734.108L190.45,734.459C190.977,734.576 191.621,734.81 191.621,735.453C191.621,736.272 190.684,736.565 190.099,736.565C189.104,736.565 188.226,736.214 188.285,735.102L187.758,735.102ZM192.557,731.768L194.546,731.768L194.546,736.916L195.073,736.916L195.073,731.768L197.063,731.768L197.063,731.3L192.557,731.3L192.557,731.768ZM197.824,736.916L198.35,736.916L198.35,731.3L197.824,731.3L197.824,736.916ZM199.111,731.768L201.101,731.768L201.101,736.916L201.627,736.916L201.627,731.768L203.559,731.768L203.559,731.3L199.111,731.3L199.111,731.768ZM204.261,734.927C204.261,736.038 204.846,737.033 206.426,737.033C208.006,737.033 208.591,736.038 208.591,734.927L208.591,731.3L208.065,731.3L208.065,734.81C208.065,736.097 207.479,736.565 206.426,736.565C205.373,736.565 204.788,736.097 204.788,734.81L204.788,731.3L204.261,731.3L204.261,734.927ZM209.293,731.768L211.225,731.768L211.225,736.916L211.81,736.916L211.81,731.768L213.741,731.768L213.741,731.3L209.293,731.3L209.293,731.768ZM214.502,736.916L218.423,736.916L218.423,736.448L215.028,736.448L215.028,734.225L218.13,734.225L218.13,733.815L215.028,733.815L215.028,731.768L218.364,731.768L218.364,731.3L214.502,731.3L214.502,736.916ZM221.758,736.916L222.285,736.916L222.285,734.225L224.977,734.225L224.977,733.815L222.285,733.815L222.285,731.768L225.328,731.768L225.328,731.3L221.758,731.3L221.758,736.916ZM225.855,734.108C225.855,735.629 226.732,737.033 228.546,737.033C230.302,737.033 231.18,735.629 231.18,734.108C231.18,732.587 230.302,731.183 228.546,731.183C226.732,731.183 225.855,732.587 225.855,734.108M226.381,734.108C226.381,732.879 227.025,731.651 228.546,731.651C230.009,731.651 230.653,732.879 230.653,734.108C230.653,735.336 230.009,736.565 228.546,736.565C227.025,736.565 226.381,735.336 226.381,734.108M232.233,736.916L232.76,736.916L232.76,734.459L234.808,734.459C235.803,734.4 235.861,735.278 235.92,736.038C235.92,736.272 235.92,736.682 236.037,736.916L236.681,736.916C236.388,736.623 236.388,735.863 236.388,735.512C236.33,734.81 236.154,734.342 235.393,734.225C236.154,734.049 236.505,733.464 236.505,732.762C236.505,731.768 235.744,731.3 234.808,731.3L232.233,731.3L232.233,736.916ZM232.76,731.768L234.749,731.768C235.569,731.768 235.978,732.177 235.978,732.879C235.978,733.581 235.393,733.991 234.749,733.991L232.76,733.991L232.76,731.768Z" style="fill-rule:nonzero;"/>
    </g>
    <g transform="matrix(1,0,0,1,-127.776,-656.194)">
        <path d="M130.468,723.695L131.287,726.093L129.59,726.093L130.468,723.695ZM127.776,728.375L128.77,728.375L129.297,726.854L131.579,726.854L132.106,728.375L133.159,728.375L130.994,722.759L129.941,722.759L127.776,728.375ZM134.681,723.519L135.617,723.519C137.197,723.519 137.548,724.397 137.548,725.567C137.548,726.678 137.197,727.556 135.617,727.556L134.681,727.556L134.681,723.519ZM133.686,728.375L136.027,728.375C137.783,728.375 138.485,727.088 138.485,725.567C138.485,723.987 137.783,722.759 136.027,722.759L133.686,722.759L133.686,728.375ZM140.592,728.375L141.703,728.375L143.634,722.759L142.64,722.759L141.177,727.205L139.772,722.759L138.719,722.759L140.592,728.375ZM145.8,723.695L146.619,726.093L144.922,726.093L145.8,723.695ZM143.108,728.375L144.103,728.375L144.629,726.854L146.912,726.854L147.438,728.375L148.492,728.375L146.326,722.759L145.273,722.759L143.108,728.375ZM148.96,728.375L149.896,728.375L149.896,724.221L149.955,724.221L152.529,728.375L153.524,728.375L153.524,722.759L152.588,722.759L152.588,726.854L150.013,722.759L148.96,722.759L148.96,728.375ZM159.493,724.514C159.376,723.285 158.381,722.583 157.094,722.583C155.455,722.583 154.402,723.929 154.402,725.567C154.402,727.146 155.455,728.492 157.094,728.492C158.499,728.492 159.435,727.556 159.493,726.21L158.557,726.21C158.499,727.029 157.972,727.673 157.094,727.673C155.924,727.673 155.397,726.62 155.397,725.567C155.397,724.455 155.924,723.402 157.094,723.402C157.913,723.402 158.381,723.87 158.499,724.514L159.493,724.514ZM160.43,728.375L164.526,728.375L164.526,727.497L161.424,727.497L161.424,725.859L164.233,725.859L164.233,725.04L161.424,725.04L161.424,723.578L164.468,723.578L164.468,722.759L160.43,722.759L160.43,728.375ZM166.34,723.519L167.335,723.519C168.856,723.519 169.207,724.397 169.207,725.567C169.207,726.678 168.856,727.556 167.335,727.556L166.34,727.556L166.34,723.519ZM165.404,728.375L167.745,728.375C169.442,728.375 170.202,727.088 170.202,725.567C170.202,723.987 169.442,722.759 167.745,722.759L165.404,722.759L165.404,728.375ZM173.245,728.375L174.182,728.375L174.182,723.987L175.762,728.375L176.581,728.375L178.161,723.987L178.161,728.375L179.097,728.375L179.097,722.759L177.751,722.759L176.23,727.146L176.171,727.146L174.65,722.759L173.245,722.759L173.245,728.375ZM180.268,728.375L184.364,728.375L184.364,727.497L181.263,727.497L181.263,725.859L184.13,725.859L184.13,725.04L181.263,725.04L181.263,723.578L184.306,723.578L184.306,722.759L180.268,722.759L180.268,728.375ZM184.715,723.578L186.471,723.578L186.471,728.375L187.466,728.375L187.466,723.578L189.28,723.578L189.28,722.759L184.715,722.759L184.715,723.578ZM190.918,723.519L192.498,723.519C193.025,723.519 193.493,723.695 193.493,724.397C193.493,724.982 193.142,725.274 192.498,725.274L190.918,725.274L190.918,723.519ZM189.924,728.375L190.918,728.375L190.918,726.035L192.381,726.035C193.259,726.035 193.493,726.503 193.493,727.556C193.493,727.79 193.493,728.141 193.61,728.375L194.664,728.375C194.488,728.141 194.371,727.556 194.371,726.854C194.371,725.976 193.903,725.742 193.552,725.684C193.727,725.625 194.488,725.333 194.488,724.221C194.488,723.285 193.844,722.759 192.615,722.759L189.924,722.759L189.924,728.375ZM197.882,722.583C196.185,722.583 195.19,723.929 195.19,725.567C195.19,727.146 196.185,728.492 197.882,728.492C199.579,728.492 200.574,727.146 200.574,725.567C200.574,723.929 199.579,722.583 197.882,722.583M197.882,723.402C199.053,723.402 199.579,724.455 199.579,725.567C199.579,726.62 199.053,727.673 197.882,727.673C196.653,727.673 196.185,726.62 196.185,725.567C196.185,724.455 196.653,723.402 197.882,723.402M202.447,723.519L203.91,723.519C204.436,723.519 204.904,723.695 204.904,724.455C204.904,725.157 204.319,725.391 203.91,725.391L202.447,725.391L202.447,723.519ZM201.452,728.375L202.447,728.375L202.447,726.21L203.968,726.21C205.548,726.21 205.841,725.157 205.841,724.455C205.841,723.753 205.548,722.759 203.968,722.759L201.452,722.759L201.452,728.375ZM209.118,722.583C207.421,722.583 206.426,723.929 206.426,725.567C206.426,727.146 207.421,728.492 209.118,728.492C210.815,728.492 211.81,727.146 211.81,725.567C211.81,723.929 210.815,722.583 209.118,722.583M209.118,723.402C210.347,723.402 210.815,724.455 210.815,725.567C210.815,726.62 210.347,727.673 209.118,727.673C207.889,727.673 207.421,726.62 207.421,725.567C207.421,724.455 207.889,723.402 209.118,723.402M212.746,728.375L216.55,728.375L216.55,727.497L213.682,727.497L213.682,722.759L212.746,722.759L212.746,728.375ZM217.252,728.375L218.247,728.375L218.247,722.759L217.252,722.759L217.252,728.375ZM218.891,723.578L220.705,723.578L220.705,728.375L221.641,728.375L221.641,723.578L223.455,723.578L223.455,722.759L218.891,722.759L218.891,723.578ZM225.386,723.695L225.445,723.695L226.264,726.093L224.567,726.093L225.386,723.695ZM222.753,728.375L223.748,728.375L224.274,726.854L226.557,726.854L227.083,728.375L228.137,728.375L225.972,722.759L224.918,722.759L222.753,728.375ZM228.605,728.375L229.541,728.375L229.541,724.221L229.6,724.221L232.116,728.375L233.169,728.375L233.169,722.759L232.233,722.759L232.233,726.854L229.658,722.759L228.605,722.759L228.605,728.375ZM236.212,726.503C236.212,727.848 237.266,728.492 238.553,728.492C239.665,728.492 240.777,727.965 240.777,726.737C240.777,726.152 240.426,725.508 239.665,725.274C239.373,725.216 238.144,724.865 238.085,724.865C237.675,724.748 237.383,724.514 237.383,724.104C237.383,723.578 237.968,723.402 238.436,723.402C239.08,723.402 239.607,723.695 239.665,724.397L240.601,724.397C240.601,723.227 239.665,722.583 238.495,722.583C237.441,722.583 236.388,723.11 236.388,724.221C236.388,724.806 236.681,725.391 237.675,725.684C238.436,725.918 238.963,725.976 239.314,726.152C239.548,726.21 239.782,726.386 239.782,726.854C239.782,727.263 239.49,727.673 238.612,727.673C237.851,727.673 237.207,727.322 237.207,726.503L236.212,726.503ZM244.054,722.583C242.357,722.583 241.362,723.929 241.362,725.567C241.362,727.146 242.357,728.492 244.054,728.492C245.751,728.492 246.746,727.146 246.746,725.567C246.746,723.929 245.751,722.583 244.054,722.583M244.054,723.402C245.224,723.402 245.751,724.455 245.751,725.567C245.751,726.62 245.224,727.673 244.054,727.673C242.825,727.673 242.357,726.62 242.357,725.567C242.357,724.455 242.825,723.402 244.054,723.402M247.624,728.375L251.486,728.375L251.486,727.497L248.619,727.497L248.619,722.759L247.624,722.759L247.624,728.375ZM252.13,726.327C252.13,727.79 253.008,728.492 254.412,728.492C255.817,728.492 256.753,727.79 256.753,726.327L256.753,722.759L255.758,722.759L255.758,726.035C255.758,726.795 255.699,727.614 254.412,727.614C253.125,727.614 253.066,726.795 253.066,726.035L253.066,722.759L252.13,722.759L252.13,726.327ZM257.338,723.578L259.094,723.578L259.094,728.375L260.088,728.375L260.088,723.578L261.903,723.578L261.903,722.759L257.338,722.759L257.338,723.578ZM262.546,728.375L263.541,728.375L263.541,722.759L262.546,722.759L262.546,728.375ZM267.111,722.583C265.414,722.583 264.419,723.929 264.419,725.567C264.419,727.146 265.414,728.492 267.111,728.492C268.808,728.492 269.803,727.146 269.803,725.567C269.803,723.929 268.808,722.583 267.111,722.583M267.111,723.402C268.34,723.402 268.866,724.455 268.866,725.567C268.866,726.62 268.34,727.673 267.111,727.673C265.94,727.673 265.414,726.62 265.414,725.567C265.414,724.455 265.94,723.402 267.111,723.402M270.681,728.375L271.617,728.375L271.617,724.221L274.192,728.375L275.245,728.375L275.245,722.759L274.309,722.759L274.309,726.854L271.734,722.759L270.681,722.759L270.681,728.375ZM276.064,726.503C276.123,727.848 277.118,728.492 278.405,728.492C279.576,728.492 280.687,727.965 280.687,726.737C280.687,726.152 280.336,725.508 279.576,725.274C279.283,725.216 278.054,724.865 277.937,724.865C277.527,724.748 277.293,724.514 277.293,724.104C277.293,723.578 277.878,723.402 278.288,723.402C278.99,723.402 279.458,723.695 279.517,724.397L280.512,724.397C280.512,723.227 279.517,722.583 278.347,722.583C277.352,722.583 276.298,723.11 276.298,724.221C276.298,724.806 276.591,725.391 277.527,725.684C278.288,725.918 278.815,725.976 279.224,726.152C279.458,726.21 279.693,726.386 279.693,726.854C279.693,727.263 279.341,727.673 278.464,727.673C277.703,727.673 277.059,727.322 277.059,726.503L276.064,726.503Z" style="fill-rule:nonzero;"/>
    </g>
</svg>
