<?xml version="1.0" encoding="UTF-8" standalone="no"?>
<!DOCTYPE svg PUBLIC "-//W3C//DTD SVG 1.1//EN" "http://www.w3.org/Graphics/SVG/1.1/DTD/svg11.dtd">
<svg width="100%" height="100%" viewBox="0 0 2907 1206" version="1.1" xmlns="http://www.w3.org/2000/svg" xmlns:xlink="http://www.w3.org/1999/xlink" xml:space="preserve" xmlns:serif="http://www.serif.com/" style="fill-rule:evenodd;clip-rule:evenodd;">
    <g transform="matrix(4.16667,0,0,4.16667,-300,-641.529)">
        <clipPath id="_clip1">
            <rect x="72" y="153.967" width="697.643" height="289.313" clip-rule="nonzero"/>
        </clipPath>
        <g clip-path="url(#_clip1)">
            <g transform="matrix(1,0,0,1,0,-1.561)">
                <rect x="72" y="184.625" width="340.618" height="227.591" style="fill:rgb(30,61,139);"/>
            </g>
            <g transform="matrix(1,0,0,1,308.442,345.023)">
                <path d="M0,-22.874L2.838,-14.141L12.026,-14.141L4.593,-8.738L7.435,0L0,-5.4L-7.431,0L-4.593,-8.738L-12.023,-14.141L-2.838,-14.141L0,-22.874Z" style="fill:rgb(255,205,6);fill-rule:nonzero;"/>
            </g>
            <g transform="matrix(1,0,0,1,176.946,345.023)">
                <path d="M0,-22.874L2.838,-14.141L12.023,-14.141L4.593,-8.738L7.431,0L0,-5.4L-7.435,0L-4.593,-8.738L-12.026,-14.141L-2.838,-14.141L0,-22.874Z" style="fill:rgb(255,205,6);fill-rule:nonzero;"/>
            </g>
            <g transform="matrix(1,0,0,1,176.946,269.157)">
                <path d="M0,-22.875L2.838,-14.136L12.023,-14.136L4.593,-8.735L7.431,0L0,-5.401L-7.435,0L-4.593,-8.735L-12.026,-14.136L-2.838,-14.136L0,-22.875Z" style="fill:rgb(255,205,6);fill-rule:nonzero;"/>
            </g>
            <g transform="matrix(1,0,0,1,308.442,269.157)">
                <path d="M0,-22.875L2.838,-14.136L12.026,-14.136L4.593,-8.735L7.435,0L0,-5.401L-7.431,0L-4.593,-8.735L-12.023,-14.136L-2.838,-14.136L0,-22.875Z" style="fill:rgb(255,205,6);fill-rule:nonzero;"/>
            </g>
            <g transform="matrix(1,0,0,1,204.763,372.836)">
                <path d="M0,-22.87L2.838,-14.136L12.023,-14.136L4.593,-8.734L7.431,0L0,-5.396L-7.434,0L-4.596,-8.734L-12.027,-14.136L-2.838,-14.136L0,-22.87Z" style="fill:rgb(255,205,6);fill-rule:nonzero;"/>
            </g>
            <g transform="matrix(1,0,0,1,280.625,372.836)">
                <path d="M0,-22.87L2.838,-14.136L12.027,-14.136L4.596,-8.734L7.434,0L0,-5.396L-7.43,0L-4.593,-8.734L-12.023,-14.136L-2.838,-14.136L0,-22.87Z" style="fill:rgb(255,205,6);fill-rule:nonzero;"/>
            </g>
            <g transform="matrix(1,0,0,1,204.763,241.34)">
                <path d="M0,-22.875L2.838,-14.135L12.023,-14.135L4.593,-8.735L7.431,0L0,-5.401L-7.434,0L-4.596,-8.735L-12.027,-14.135L-2.838,-14.135L0,-22.875Z" style="fill:rgb(255,205,6);fill-rule:nonzero;"/>
            </g>
            <g transform="matrix(1,0,0,1,280.625,241.34)">
                <path d="M0,-22.875L2.838,-14.135L12.027,-14.135L4.596,-8.735L7.434,0L0,-5.401L-7.43,0L-4.593,-8.735L-12.023,-14.135L-2.838,-14.135L0,-22.875Z" style="fill:rgb(255,205,6);fill-rule:nonzero;"/>
            </g>
            <g transform="matrix(1,0,0,1,318.556,307.089)">
                <path d="M0,-22.871L2.842,-14.136L12.028,-14.136L4.597,-8.736L7.435,0L0,-5.397L-7.429,0L-4.592,-8.736L-12.022,-14.136L-2.838,-14.136L0,-22.871Z" style="fill:rgb(255,205,6);fill-rule:nonzero;"/>
            </g>
            <g transform="matrix(1,0,0,1,166.832,307.089)">
                <path d="M0,-22.871L2.838,-14.136L12.022,-14.136L4.592,-8.736L7.429,0L0,-5.397L-7.435,0L-4.597,-8.736L-12.028,-14.136L-2.842,-14.136L0,-22.871Z" style="fill:rgb(255,205,6);fill-rule:nonzero;"/>
            </g>
            <g transform="matrix(1,0,0,1,242.694,382.954)">
                <path d="M0,-22.875L2.838,-14.14L12.026,-14.135L4.593,-8.739L7.431,0L0,-5.4L-7.43,0L-4.593,-8.739L-12.026,-14.135L-2.838,-14.14L0,-22.875Z" style="fill:rgb(255,205,6);fill-rule:nonzero;"/>
            </g>
            <g transform="matrix(1,0,0,1,242.694,231.226)">
                <path d="M0,-22.874L2.838,-14.136L12.026,-14.136L4.593,-8.738L7.431,0L0,-5.4L-7.43,0L-4.593,-8.738L-12.026,-14.136L-2.838,-14.136L0,-22.874Z" style="fill:rgb(255,205,6);fill-rule:nonzero;"/>
            </g>
            <g transform="matrix(0,1,1,0,578.476,298.623)">
                <path d="M-144.657,-144.657L144.657,-144.657" style="fill:none;stroke:rgb(234,91,11);stroke-width:1.35px;"/>
            </g>
            <g transform="matrix(97.1756,0,0,97.1756,631.93,261.862)">
                <path d="M0.497,-0.911C0.491,-0.902 0.493,-0.89 0.502,-0.884C0.51,-0.878 0.522,-0.88 0.528,-0.889C0.534,-0.897 0.532,-0.909 0.524,-0.915C0.52,-0.918 0.516,-0.919 0.513,-0.919C0.507,-0.919 0.501,-0.916 0.497,-0.911ZM0.511,-0.779C0.501,-0.77 0.501,-0.755 0.51,-0.745C0.519,-0.736 0.535,-0.736 0.544,-0.745C0.553,-0.754 0.554,-0.769 0.544,-0.779C0.54,-0.783 0.533,-0.786 0.527,-0.786C0.521,-0.786 0.515,-0.784 0.511,-0.779ZM0.658,-0.78C0.65,-0.773 0.65,-0.761 0.657,-0.753C0.665,-0.745 0.677,-0.745 0.684,-0.753C0.692,-0.76 0.692,-0.772 0.685,-0.78C0.681,-0.784 0.676,-0.786 0.671,-0.786C0.666,-0.786 0.661,-0.784 0.658,-0.78ZM0.355,-0.762C0.343,-0.745 0.348,-0.721 0.365,-0.71C0.382,-0.699 0.405,-0.703 0.417,-0.72C0.428,-0.737 0.424,-0.76 0.407,-0.772C0.4,-0.776 0.393,-0.778 0.386,-0.778C0.374,-0.778 0.362,-0.773 0.355,-0.762ZM0.495,-0.657C0.48,-0.642 0.48,-0.618 0.494,-0.604C0.509,-0.589 0.533,-0.589 0.547,-0.604C0.562,-0.618 0.562,-0.642 0.547,-0.656C0.54,-0.664 0.531,-0.667 0.521,-0.667C0.511,-0.667 0.502,-0.664 0.495,-0.657ZM0.645,-0.65C0.634,-0.643 0.631,-0.628 0.638,-0.617C0.645,-0.606 0.66,-0.603 0.671,-0.61C0.682,-0.617 0.685,-0.632 0.678,-0.643C0.673,-0.65 0.666,-0.654 0.658,-0.654C0.653,-0.654 0.649,-0.653 0.645,-0.65ZM0.348,-0.625C0.333,-0.61 0.332,-0.585 0.348,-0.57C0.363,-0.554 0.388,-0.554 0.403,-0.569C0.419,-0.585 0.419,-0.61 0.404,-0.625C0.396,-0.633 0.386,-0.637 0.376,-0.637C0.366,-0.637 0.356,-0.633 0.348,-0.625ZM0.788,-0.625C0.779,-0.619 0.777,-0.607 0.783,-0.599C0.789,-0.59 0.8,-0.587 0.809,-0.593C0.818,-0.599 0.82,-0.611 0.815,-0.62C0.811,-0.625 0.805,-0.628 0.799,-0.628C0.795,-0.628 0.791,-0.627 0.788,-0.625ZM0.223,-0.57C0.208,-0.549 0.214,-0.52 0.235,-0.506C0.256,-0.491 0.285,-0.497 0.299,-0.518C0.313,-0.539 0.308,-0.568 0.287,-0.582C0.279,-0.588 0.27,-0.59 0.261,-0.59C0.246,-0.59 0.231,-0.583 0.223,-0.57ZM0.46,-0.524C0.442,-0.512 0.437,-0.488 0.449,-0.47C0.461,-0.452 0.485,-0.447 0.504,-0.459C0.522,-0.471 0.527,-0.495 0.515,-0.513C0.507,-0.525 0.495,-0.531 0.482,-0.531C0.474,-0.531 0.467,-0.529 0.46,-0.524ZM0.617,-0.517C0.6,-0.506 0.595,-0.483 0.606,-0.466C0.617,-0.448 0.64,-0.443 0.658,-0.454C0.675,-0.465 0.68,-0.489 0.669,-0.506C0.662,-0.517 0.65,-0.523 0.637,-0.523C0.631,-0.523 0.624,-0.521 0.617,-0.517ZM0.323,-0.498C0.305,-0.48 0.305,-0.451 0.323,-0.433C0.341,-0.415 0.37,-0.415 0.388,-0.433C0.406,-0.451 0.406,-0.48 0.388,-0.498C0.379,-0.507 0.367,-0.512 0.356,-0.512C0.344,-0.512 0.332,-0.507 0.323,-0.498ZM0.135,-0.462C0.118,-0.438 0.125,-0.405 0.149,-0.389C0.173,-0.373 0.206,-0.379 0.223,-0.403C0.239,-0.428 0.232,-0.461 0.208,-0.477C0.199,-0.483 0.189,-0.486 0.179,-0.486C0.162,-0.486 0.145,-0.478 0.135,-0.462ZM0.761,-0.483C0.748,-0.478 0.742,-0.464 0.747,-0.452C0.752,-0.44 0.766,-0.434 0.778,-0.438C0.79,-0.443 0.796,-0.457 0.792,-0.47C0.788,-0.479 0.779,-0.485 0.769,-0.485C0.766,-0.485 0.763,-0.484 0.761,-0.483ZM0.89,-0.442C0.88,-0.438 0.876,-0.427 0.88,-0.417C0.884,-0.408 0.895,-0.403 0.905,-0.407C0.915,-0.411 0.919,-0.422 0.915,-0.432C0.912,-0.439 0.905,-0.444 0.897,-0.444C0.895,-0.444 0.893,-0.443 0.89,-0.442ZM0.413,-0.405C0.392,-0.391 0.385,-0.362 0.399,-0.341C0.413,-0.32 0.442,-0.313 0.463,-0.327C0.485,-0.341 0.491,-0.37 0.477,-0.391C0.468,-0.405 0.453,-0.412 0.438,-0.412C0.429,-0.412 0.421,-0.41 0.413,-0.405ZM0.55,-0.404C0.53,-0.396 0.52,-0.373 0.528,-0.353C0.537,-0.333 0.56,-0.323 0.58,-0.331C0.6,-0.339 0.609,-0.362 0.601,-0.383C0.595,-0.398 0.58,-0.407 0.565,-0.407C0.56,-0.407 0.555,-0.406 0.55,-0.404ZM0.695,-0.383C0.676,-0.376 0.667,-0.354 0.675,-0.335C0.683,-0.316 0.705,-0.307 0.724,-0.314C0.743,-0.322 0.752,-0.344 0.744,-0.363C0.738,-0.378 0.724,-0.386 0.71,-0.386C0.705,-0.386 0.7,-0.385 0.695,-0.383ZM0.04,-0.356C0.018,-0.33 0.021,-0.291 0.047,-0.269C0.073,-0.247 0.112,-0.251 0.134,-0.277C0.156,-0.303 0.153,-0.342 0.127,-0.364C0.115,-0.373 0.101,-0.378 0.087,-0.378C0.07,-0.378 0.052,-0.371 0.04,-0.356ZM0.267,-0.363C0.244,-0.345 0.24,-0.311 0.258,-0.288C0.276,-0.265 0.309,-0.261 0.332,-0.279C0.355,-0.297 0.359,-0.33 0.342,-0.353C0.331,-0.367 0.315,-0.374 0.3,-0.374C0.288,-0.374 0.277,-0.37 0.267,-0.363ZM0.832,-0.321C0.819,-0.318 0.81,-0.306 0.813,-0.293C0.815,-0.28 0.828,-0.272 0.841,-0.274C0.854,-0.277 0.862,-0.289 0.86,-0.302C0.857,-0.314 0.847,-0.322 0.836,-0.322C0.835,-0.322 0.833,-0.321 0.832,-0.321ZM0.475,-0.305C0.451,-0.295 0.44,-0.268 0.451,-0.244C0.461,-0.221 0.488,-0.21 0.511,-0.22C0.535,-0.23 0.545,-0.257 0.535,-0.281C0.528,-0.298 0.511,-0.309 0.493,-0.309C0.487,-0.309 0.481,-0.307 0.475,-0.305ZM0.613,-0.273C0.592,-0.269 0.578,-0.248 0.582,-0.227C0.586,-0.206 0.607,-0.192 0.628,-0.196C0.65,-0.2 0.664,-0.221 0.659,-0.242C0.655,-0.261 0.639,-0.274 0.621,-0.274C0.618,-0.274 0.616,-0.274 0.613,-0.273ZM0.174,-0.263C0.143,-0.249 0.129,-0.213 0.143,-0.182C0.157,-0.151 0.194,-0.137 0.225,-0.151C0.256,-0.165 0.27,-0.202 0.255,-0.233C0.245,-0.256 0.223,-0.269 0.199,-0.269C0.191,-0.269 0.182,-0.267 0.174,-0.263ZM0.953,-0.253C0.943,-0.251 0.936,-0.241 0.938,-0.231C0.94,-0.22 0.95,-0.214 0.961,-0.216C0.971,-0.218 0.978,-0.228 0.976,-0.239C0.974,-0.248 0.966,-0.254 0.957,-0.254C0.956,-0.254 0.954,-0.254 0.953,-0.253ZM0.751,-0.228C0.731,-0.224 0.718,-0.204 0.723,-0.184C0.727,-0.164 0.747,-0.151 0.767,-0.155C0.787,-0.159 0.8,-0.179 0.796,-0.199C0.792,-0.217 0.776,-0.229 0.759,-0.229C0.757,-0.229 0.754,-0.228 0.751,-0.228ZM0.367,-0.214C0.339,-0.205 0.324,-0.176 0.333,-0.148C0.342,-0.12 0.371,-0.105 0.399,-0.114C0.427,-0.123 0.442,-0.152 0.434,-0.18C0.426,-0.203 0.405,-0.217 0.383,-0.217C0.378,-0.217 0.372,-0.216 0.367,-0.214ZM0.518,-0.184C0.494,-0.178 0.478,-0.153 0.484,-0.128C0.49,-0.104 0.514,-0.088 0.539,-0.094C0.564,-0.1 0.579,-0.124 0.574,-0.149C0.569,-0.171 0.55,-0.185 0.529,-0.185C0.525,-0.185 0.522,-0.185 0.518,-0.184ZM0.872,-0.151C0.859,-0.151 0.849,-0.14 0.849,-0.127C0.849,-0.113 0.86,-0.103 0.873,-0.103C0.886,-0.103 0.897,-0.114 0.897,-0.128C0.896,-0.141 0.886,-0.151 0.873,-0.151C0.873,-0.151 0.872,-0.151 0.872,-0.151ZM0.255,-0.122C0.221,-0.122 0.193,-0.095 0.193,-0.061C0.193,-0.027 0.22,0.001 0.254,0.001C0.288,0.002 0.316,-0.026 0.316,-0.06C0.317,-0.094 0.289,-0.122 0.255,-0.122L0.255,-0.122ZM0.652,-0.122C0.63,-0.122 0.612,-0.104 0.612,-0.083C0.612,-0.061 0.63,-0.043 0.651,-0.043C0.673,-0.043 0.691,-0.061 0.691,-0.082C0.691,-0.104 0.674,-0.122 0.652,-0.122L0.652,-0.122ZM0.778,-0.054C0.758,-0.054 0.741,-0.037 0.741,-0.017C0.741,0.004 0.758,0.021 0.779,0.02C0.799,0.02 0.816,0.003 0.816,-0.017C0.816,-0.038 0.799,-0.054 0.778,-0.054L0.778,-0.054ZM0.359,0.001C0.358,0.03 0.381,0.054 0.411,0.055C0.44,0.056 0.464,0.032 0.465,0.003C0.465,-0.026 0.442,-0.05 0.413,-0.051C0.413,-0.051 0.412,-0.051 0.412,-0.051C0.383,-0.051 0.359,-0.028 0.359,0.001ZM0.545,-0.047C0.52,-0.047 0.499,-0.027 0.499,-0.001C0.499,0.024 0.519,0.045 0.545,0.045C0.57,0.045 0.591,0.025 0.591,-0.001C0.591,-0.026 0.571,-0.047 0.545,-0.047L0.545,-0.047ZM0.981,-0.041C0.97,-0.041 0.962,-0.033 0.962,-0.022C0.962,-0.012 0.97,-0.003 0.981,-0.003C0.992,-0.003 1,-0.012 1,-0.022C1,-0.033 0.991,-0.041 0.981,-0.041L0.981,-0.041ZM0.187,0.066C0.173,0.097 0.186,0.134 0.217,0.148C0.248,0.163 0.285,0.15 0.299,0.119C0.314,0.088 0.3,0.051 0.269,0.037C0.261,0.033 0.252,0.031 0.243,0.031C0.22,0.031 0.198,0.044 0.187,0.066ZM0.612,0.074C0.607,0.095 0.62,0.116 0.641,0.121C0.662,0.126 0.683,0.113 0.688,0.092C0.693,0.07 0.68,0.049 0.659,0.044C0.656,0.044 0.653,0.043 0.65,0.043C0.632,0.043 0.616,0.056 0.612,0.074ZM0.853,0.075C0.85,0.088 0.859,0.1 0.872,0.103C0.885,0.105 0.897,0.097 0.9,0.084C0.902,0.071 0.894,0.058 0.881,0.056C0.879,0.055 0.878,0.055 0.876,0.055C0.865,0.055 0.855,0.063 0.853,0.075ZM0.486,0.116C0.481,0.141 0.497,0.166 0.522,0.171C0.547,0.176 0.571,0.16 0.577,0.135C0.582,0.11 0.566,0.086 0.541,0.08C0.538,0.08 0.534,0.079 0.531,0.079C0.51,0.079 0.491,0.094 0.486,0.116ZM0.337,0.133C0.328,0.161 0.343,0.191 0.371,0.2C0.399,0.209 0.428,0.194 0.438,0.166C0.447,0.138 0.431,0.109 0.404,0.1C0.398,0.098 0.393,0.097 0.387,0.097C0.365,0.097 0.344,0.111 0.337,0.133ZM0.724,0.163C0.719,0.183 0.732,0.203 0.753,0.207C0.773,0.211 0.793,0.198 0.797,0.178C0.801,0.158 0.788,0.138 0.768,0.134C0.765,0.133 0.763,0.133 0.76,0.133C0.743,0.133 0.727,0.145 0.724,0.163ZM0.135,0.172C0.11,0.195 0.108,0.234 0.131,0.259C0.154,0.285 0.193,0.287 0.218,0.264C0.243,0.241 0.245,0.202 0.222,0.177C0.21,0.163 0.193,0.156 0.177,0.156C0.162,0.156 0.147,0.162 0.135,0.172ZM0.943,0.194C0.941,0.204 0.947,0.214 0.958,0.216C0.968,0.218 0.978,0.211 0.98,0.201C0.982,0.191 0.975,0.181 0.965,0.179C0.964,0.178 0.963,0.178 0.961,0.178C0.952,0.178 0.944,0.184 0.943,0.194ZM0.584,0.205C0.576,0.225 0.585,0.248 0.605,0.256C0.625,0.265 0.648,0.256 0.656,0.236C0.665,0.216 0.656,0.193 0.636,0.184C0.631,0.182 0.626,0.181 0.62,0.181C0.605,0.181 0.591,0.19 0.584,0.205ZM0.453,0.223C0.443,0.247 0.454,0.274 0.478,0.284C0.501,0.293 0.528,0.282 0.538,0.259C0.548,0.235 0.537,0.208 0.513,0.198C0.507,0.196 0.501,0.195 0.496,0.195C0.477,0.195 0.46,0.206 0.453,0.223ZM0.284,0.244C0.268,0.268 0.275,0.301 0.3,0.317C0.324,0.333 0.357,0.326 0.373,0.302C0.389,0.277 0.382,0.244 0.358,0.228C0.349,0.222 0.339,0.22 0.329,0.22C0.312,0.22 0.295,0.228 0.284,0.244ZM0.817,0.264C0.812,0.276 0.818,0.29 0.83,0.295C0.842,0.3 0.856,0.295 0.861,0.282C0.866,0.27 0.86,0.256 0.848,0.251C0.845,0.25 0.842,0.249 0.839,0.249C0.83,0.249 0.821,0.255 0.817,0.264ZM0.04,0.253C0.007,0.264 -0.01,0.299 0,0.331C0.01,0.363 0.045,0.381 0.078,0.371C0.11,0.36 0.128,0.326 0.118,0.293C0.109,0.267 0.085,0.25 0.059,0.25C0.052,0.25 0.046,0.251 0.04,0.253ZM0.675,0.321C0.667,0.34 0.675,0.362 0.694,0.37C0.713,0.378 0.735,0.369 0.743,0.35C0.751,0.331 0.743,0.309 0.724,0.301C0.719,0.299 0.714,0.298 0.709,0.298C0.694,0.298 0.681,0.306 0.675,0.321ZM0.533,0.329C0.521,0.347 0.526,0.371 0.544,0.384C0.561,0.396 0.586,0.391 0.598,0.373C0.61,0.355 0.606,0.331 0.588,0.319C0.581,0.314 0.573,0.312 0.566,0.312C0.553,0.312 0.541,0.318 0.533,0.329ZM0.393,0.334C0.378,0.355 0.384,0.383 0.405,0.398C0.426,0.412 0.455,0.407 0.469,0.386C0.483,0.365 0.478,0.336 0.457,0.322C0.449,0.316 0.44,0.313 0.431,0.313C0.416,0.313 0.402,0.32 0.393,0.334ZM0.185,0.353C0.162,0.371 0.158,0.405 0.176,0.428C0.194,0.451 0.228,0.455 0.251,0.436C0.274,0.418 0.277,0.385 0.259,0.362C0.249,0.349 0.233,0.342 0.218,0.342C0.206,0.342 0.195,0.346 0.185,0.353ZM0.319,0.421C0.301,0.439 0.301,0.468 0.319,0.486C0.337,0.504 0.366,0.505 0.384,0.487C0.402,0.469 0.403,0.44 0.385,0.421C0.376,0.412 0.364,0.408 0.352,0.408C0.34,0.408 0.328,0.412 0.319,0.421ZM0.872,0.421C0.868,0.43 0.872,0.442 0.882,0.446C0.891,0.45 0.902,0.446 0.907,0.436C0.911,0.426 0.907,0.415 0.897,0.411C0.895,0.41 0.892,0.409 0.889,0.409C0.882,0.409 0.875,0.413 0.872,0.421ZM0.74,0.449C0.733,0.46 0.736,0.475 0.747,0.482C0.758,0.49 0.773,0.487 0.78,0.476C0.787,0.465 0.785,0.45 0.774,0.443C0.77,0.44 0.765,0.439 0.76,0.439C0.753,0.439 0.745,0.442 0.74,0.449ZM0.45,0.453C0.435,0.468 0.434,0.493 0.449,0.508C0.465,0.524 0.489,0.524 0.505,0.509C0.521,0.494 0.521,0.469 0.506,0.454C0.498,0.446 0.488,0.442 0.478,0.442C0.468,0.442 0.458,0.445 0.45,0.453ZM0.599,0.461C0.587,0.478 0.592,0.501 0.609,0.513C0.626,0.524 0.649,0.52 0.661,0.503C0.672,0.486 0.668,0.462 0.651,0.451C0.644,0.447 0.637,0.445 0.63,0.445C0.618,0.445 0.606,0.45 0.599,0.461ZM0.227,0.497C0.205,0.51 0.199,0.539 0.213,0.56C0.227,0.582 0.255,0.588 0.277,0.575C0.298,0.561 0.304,0.532 0.291,0.511C0.282,0.497 0.267,0.489 0.252,0.489C0.243,0.489 0.235,0.492 0.227,0.497ZM0.352,0.551C0.334,0.563 0.328,0.587 0.34,0.605C0.352,0.624 0.376,0.629 0.395,0.617C0.413,0.605 0.418,0.581 0.406,0.563C0.399,0.551 0.386,0.545 0.373,0.545C0.366,0.545 0.358,0.547 0.352,0.551ZM0.487,0.595C0.472,0.61 0.472,0.633 0.486,0.648C0.501,0.663 0.525,0.663 0.539,0.649C0.554,0.635 0.554,0.611 0.54,0.596C0.533,0.589 0.523,0.585 0.513,0.585C0.504,0.585 0.495,0.588 0.487,0.595ZM0.637,0.602C0.628,0.611 0.628,0.626 0.637,0.636C0.646,0.645 0.662,0.645 0.671,0.636C0.68,0.627 0.68,0.612 0.671,0.602C0.666,0.597 0.66,0.595 0.654,0.595C0.648,0.595 0.642,0.597 0.637,0.602ZM0.764,0.611C0.758,0.619 0.76,0.631 0.768,0.637C0.777,0.644 0.789,0.642 0.795,0.633C0.801,0.624 0.799,0.612 0.79,0.606C0.787,0.604 0.783,0.603 0.779,0.603C0.773,0.603 0.768,0.605 0.764,0.611ZM0.355,0.701C0.337,0.712 0.332,0.736 0.343,0.753C0.354,0.77 0.377,0.775 0.395,0.764C0.412,0.753 0.417,0.73 0.406,0.713C0.399,0.702 0.387,0.695 0.375,0.695C0.368,0.695 0.361,0.697 0.355,0.701ZM0.501,0.737C0.49,0.745 0.487,0.759 0.494,0.77C0.501,0.782 0.516,0.785 0.527,0.777C0.538,0.77 0.541,0.755 0.534,0.744C0.529,0.737 0.522,0.733 0.514,0.733C0.509,0.733 0.505,0.735 0.501,0.737ZM0.647,0.748C0.64,0.755 0.64,0.767 0.647,0.775C0.654,0.782 0.667,0.782 0.674,0.775C0.682,0.768 0.682,0.755 0.674,0.748C0.671,0.744 0.666,0.742 0.661,0.742C0.656,0.742 0.651,0.744 0.647,0.748ZM0.483,0.881C0.474,0.887 0.472,0.899 0.478,0.907C0.483,0.916 0.495,0.919 0.504,0.913C0.513,0.907 0.515,0.895 0.51,0.886C0.506,0.881 0.5,0.878 0.494,0.878C0.49,0.878 0.486,0.879 0.483,0.881Z" style="fill:url(#_Linear2);fill-rule:nonzero;"/>
            </g>
            <g transform="matrix(1,0,0,1,632.098,224.575)">
                <path d="M0,3.224C-0.886,6.416 -4.205,8.281 -7.393,7.387C-10.587,6.5 -12.445,3.185 -11.553,-0.006C-10.671,-3.197 -7.356,-5.057 -4.164,-4.167C-0.974,-3.278 0.889,0.035 0,3.224" style="fill:rgb(234,91,11);fill-rule:nonzero;"/>
            </g>
            <g transform="matrix(1,0,0,1,618.176,296.327)">
                <path d="M0,-1.078C0.298,-4.376 3.219,-6.811 6.515,-6.517C9.821,-6.214 12.25,-3.3 11.951,0.004C11.655,3.299 8.738,5.733 5.437,5.435C2.136,5.141 -0.297,2.218 0,-1.078" style="fill:rgb(234,91,11);fill-rule:nonzero;"/>
            </g>
            <g transform="matrix(1,0,0,1,605.235,296.701)">
                <path d="M0,-5.596C1.542,-8.529 5.177,-9.648 8.107,-8.106C11.035,-6.554 12.157,-2.929 10.609,0.002C9.067,2.933 5.432,4.052 2.502,2.508C-0.425,0.962 -1.548,-2.669 0,-5.596" style="fill:rgb(234,91,11);fill-rule:nonzero;"/>
            </g>
            <g transform="matrix(1,0,0,1,594.527,291.209)">
                <path d="M0,-9.386C2.588,-11.451 6.359,-11.028 8.427,-8.432C10.488,-5.838 10.064,-2.068 7.473,-0.001C4.883,2.065 1.106,1.63 -0.96,-0.959C-3.027,-3.549 -2.597,-7.325 0,-9.386" style="fill:rgb(234,91,11);fill-rule:nonzero;"/>
            </g>
            <g transform="matrix(1,0,0,1,588.459,280.691)">
                <path d="M0,-11.582C3.198,-12.446 6.493,-10.547 7.353,-7.348C8.204,-4.144 6.312,-0.857 3.103,0.002C-0.09,0.864 -3.382,-1.037 -4.246,-4.24C-5.102,-7.436 -3.2,-10.728 0,-11.582" style="fill:rgb(234,91,11);fill-rule:nonzero;"/>
            </g>
            <g transform="matrix(1,0,0,1,587.871,267.492)">
                <path d="M0,-11.893C3.288,-11.461 5.6,-8.448 5.165,-5.161C4.731,-1.877 1.718,0.435 -1.568,-0.005C-4.854,-0.432 -7.167,-3.452 -6.731,-6.735C-6.296,-10.018 -3.278,-12.328 0,-11.893" style="fill:rgb(234,91,11);fill-rule:nonzero;"/>
            </g>
            <g transform="matrix(1,0,0,1,592.787,252.747)">
                <path d="M0,-10.296C2.847,-8.595 3.77,-4.909 2.064,-2.063C0.358,0.774 -3.325,1.7 -6.164,-0.01C-9.009,-1.711 -9.924,-5.395 -8.23,-8.239C-6.525,-11.077 -2.837,-11.996 0,-10.296" style="fill:rgb(234,91,11);fill-rule:nonzero;"/>
            </g>
            <g transform="matrix(1,0,0,1,602.525,239.331)">
                <path d="M0,-6.991C1.934,-4.298 1.312,-0.552 -1.378,1.38C-4.075,3.311 -7.818,2.697 -9.748,-0.001C-11.683,-2.689 -11.065,-6.439 -8.372,-8.368C-5.685,-10.302 -1.931,-9.683 0,-6.991" style="fill:rgb(234,91,11);fill-rule:nonzero;"/>
            </g>
            <g transform="matrix(1,0,0,1,617.052,228.664)">
                <path d="M0,-2.002C0.554,1.268 -1.646,4.365 -4.916,4.916C-8.186,5.466 -11.275,3.266 -11.829,-0.003C-12.379,-3.27 -10.179,-6.365 -6.909,-6.915C-3.646,-7.468 -0.554,-5.267 0,-2.002" style="fill:rgb(234,91,11);fill-rule:nonzero;"/>
            </g>
            <g transform="matrix(1,0,0,1,627.28,311.102)">
                <path d="M0,-0.004C0,2.839 -2.305,5.145 -5.153,5.145C-7.99,5.145 -10.289,2.839 -10.289,-0.004C-10.289,-2.843 -7.99,-5.149 -5.153,-5.149C-2.305,-5.149 0,-2.843 0,-0.004" style="fill:rgb(234,91,11);fill-rule:nonzero;"/>
            </g>
            <g transform="matrix(1,0,0,1,642.822,310.106)">
                <path d="M0,-3.254C0.898,-0.554 -0.555,2.356 -3.251,3.257C-5.949,4.154 -8.866,2.699 -9.762,0.001C-10.663,-2.694 -9.209,-5.608 -6.511,-6.509C-3.812,-7.408 -0.897,-5.954 0,-3.254" style="fill:rgb(234,91,11);fill-rule:nonzero;"/>
            </g>
            <g transform="matrix(1,0,0,1,616.676,211.641)">
                <path d="M0,-0.326C0.088,-3.17 2.461,-5.398 5.305,-5.309C8.153,-5.221 10.379,-2.842 10.291,0C10.195,2.843 7.814,5.072 4.979,4.978C2.137,4.891 -0.092,2.512 0,-0.326" style="fill:rgb(234,91,11);fill-rule:nonzero;"/>
            </g>
            <g transform="matrix(1,0,0,1,631.906,215.028)">
                <path d="M0,-3.282C0.9,-5.976 3.822,-7.427 6.517,-6.522C9.215,-5.612 10.663,-2.695 9.754,0C8.849,2.694 5.931,4.145 3.238,3.238C0.539,2.332 -0.905,-0.585 0,-3.282" style="fill:rgb(234,91,11);fill-rule:nonzero;"/>
            </g>
            <g transform="matrix(1,0,0,1,601.491,212.559)">
                <path d="M0,3.034C-0.837,0.319 0.68,-2.565 3.397,-3.404C6.113,-4.241 8.991,-2.722 9.836,-0.008C10.675,2.707 9.154,5.593 6.438,6.431C3.723,7.275 0.837,5.752 0,3.034" style="fill:rgb(234,91,11);fill-rule:nonzero;"/>
            </g>
            <g transform="matrix(1,0,0,1,587.598,218.889)">
                <path d="M0,6.203C-1.716,3.933 -1.265,0.705 1.009,-1.008C3.275,-2.719 6.501,-2.27 8.216,-0.004C9.93,2.264 9.479,5.495 7.205,7.207C4.939,8.922 1.713,8.473 0,6.203" style="fill:rgb(234,91,11);fill-rule:nonzero;"/>
            </g>
            <g transform="matrix(1,0,0,1,573.027,241.575)">
                <path d="M0,9.717C-2.684,8.775 -4.101,5.844 -3.164,3.16C-2.222,0.474 0.711,-0.937 3.398,-0.002C6.082,0.94 7.495,3.876 6.554,6.559C5.616,9.241 2.682,10.654 0,9.717" style="fill:rgb(234,91,11);fill-rule:nonzero;"/>
            </g>
            <g transform="matrix(1,0,0,1,578.005,228.338)">
                <path d="M0,8.485C-2.344,6.88 -2.938,3.674 -1.328,1.327C0.281,-1.015 3.487,-1.611 5.829,0C8.177,1.608 8.77,4.816 7.157,7.159C5.549,9.502 2.345,10.096 0,8.485" style="fill:rgb(234,91,11);fill-rule:nonzero;"/>
            </g>
            <g transform="matrix(1,0,0,1,572.151,256.458)">
                <path d="M0,10.294C-2.841,10.188 -5.062,7.802 -4.957,4.961C-4.851,2.122 -2.465,-0.1 0.374,0.003C3.215,0.105 5.431,2.492 5.337,5.333C5.234,8.172 2.847,10.394 0,10.294" style="fill:rgb(234,91,11);fill-rule:nonzero;"/>
            </g>
            <g transform="matrix(1,0,0,1,576.224,272.166)">
                <path d="M0,9.879C-2.729,10.68 -5.592,9.121 -6.386,6.391C-7.191,3.664 -5.627,0.803 -2.902,0C-0.178,-0.801 2.686,0.762 3.484,3.491C4.285,6.219 2.731,9.076 0,9.879" style="fill:rgb(234,91,11);fill-rule:nonzero;"/>
            </g>
            <g transform="matrix(1,0,0,1,585.133,286.99)">
                <path d="M0,8.31C-2.301,9.989 -5.519,9.492 -7.201,7.201C-8.877,4.907 -8.383,1.685 -6.091,0.004C-3.798,-1.679 -0.576,-1.183 1.106,1.113C2.783,3.404 2.293,6.627 0,8.31" style="fill:rgb(234,91,11);fill-rule:nonzero;"/>
            </g>
            <g transform="matrix(1,0,0,1,610.114,306.691)">
                <path d="M0,3.533C-0.982,6.202 -3.937,7.579 -6.607,6.597C-9.272,5.622 -10.649,2.667 -9.67,-0.004C-8.692,-2.672 -5.737,-4.046 -3.064,-3.069C-0.398,-2.092 0.974,0.864 0,3.533" style="fill:rgb(234,91,11);fill-rule:nonzero;"/>
            </g>
            <g transform="matrix(1,0,0,1,597.11,298.992)">
                <path d="M0,5.948C-1.646,8.268 -4.858,8.818 -7.179,7.176C-9.493,5.529 -10.048,2.317 -8.404,-0.001C-6.762,-2.321 -3.552,-2.87 -1.225,-1.224C1.089,0.414 1.638,3.629 0,5.948" style="fill:rgb(234,91,11);fill-rule:nonzero;"/>
            </g>
            <g transform="matrix(1,0,0,1,626.616,198.173)">
                <path d="M0,-0.001C0,2.477 -2.003,4.484 -4.489,4.484C-6.958,4.484 -8.966,2.477 -8.966,-0.001C-8.966,-2.477 -6.958,-4.485 -4.489,-4.485C-2.003,-4.485 0,-2.477 0,-0.001" style="fill:rgb(234,91,11);fill-rule:nonzero;"/>
            </g>
            <g transform="matrix(1,0,0,1,638.848,198.544)">
                <path d="M0,1.759C-0.486,4.187 -2.849,5.762 -5.272,5.276C-7.7,4.795 -9.278,2.431 -8.792,0.004C-8.308,-2.427 -5.945,-4.003 -3.513,-3.517C-1.089,-3.032 0.484,-0.671 0,1.759" style="fill:rgb(234,91,11);fill-rule:nonzero;"/>
            </g>
            <g transform="matrix(1,0,0,1,649.853,201.141)">
                <path d="M0,3.355C-0.929,5.651 -3.543,6.762 -5.839,5.833C-8.139,4.905 -9.241,2.292 -8.317,-0.004C-7.393,-2.301 -4.782,-3.407 -2.483,-2.483C-0.184,-1.555 0.924,1.06 0,3.355" style="fill:rgb(234,91,11);fill-rule:nonzero;"/>
            </g>
            <g transform="matrix(1,0,0,1,558.996,265.899)">
                <ellipse cx="0.032" cy="-4.483" rx="4.501" ry="4.503" style="fill:rgb(234,91,11);"/>
            </g>
            <g transform="matrix(1,0,0,1,561.03,253.493)">
                <path d="M0,-8.806C2.433,-8.337 4.023,-5.988 3.563,-3.557C3.093,-1.125 0.741,0.467 -1.687,-0.002C-4.123,-0.468 -5.71,-2.816 -5.245,-5.248C-4.782,-7.681 -2.437,-9.273 0,-8.806" style="fill:rgb(234,91,11);fill-rule:nonzero;"/>
            </g>
            <g transform="matrix(1,0,0,1,565.145,241.994)">
                <path d="M0,-8.342C2.3,-7.432 3.425,-4.826 2.519,-2.524C1.605,-0.22 -1.001,0.908 -3.3,-0.003C-5.602,-0.912 -6.73,-3.516 -5.82,-5.819C-4.912,-8.122 -2.306,-9.25 0,-8.342" style="fill:rgb(234,91,11);fill-rule:nonzero;"/>
            </g>
            <g transform="matrix(1,0,0,1,572.073,229.944)">
                <path d="M0,-7.477C2.062,-6.107 2.624,-3.327 1.26,-1.263C-0.109,0.802 -2.89,1.366 -4.957,-0.005C-7.019,-1.37 -7.585,-4.152 -6.215,-6.215C-4.85,-8.28 -2.07,-8.843 0,-7.477" style="fill:rgb(234,91,11);fill-rule:nonzero;"/>
            </g>
            <g transform="matrix(1,0,0,1,580.29,220.123)">
                <path d="M0,-6.398C1.765,-4.663 1.791,-1.823 0.059,-0.058C-1.68,1.711 -4.515,1.737 -6.282,0.006C-8.054,-1.731 -8.079,-4.569 -6.345,-6.338C-4.61,-8.105 -1.771,-8.135 0,-6.398" style="fill:rgb(234,91,11);fill-rule:nonzero;"/>
            </g>
            <g transform="matrix(1,0,0,1,590.491,211.316)">
                <path d="M0,-4.945C1.362,-2.876 0.798,-0.096 -1.268,1.269C-3.335,2.632 -6.114,2.064 -7.48,0C-8.843,-2.068 -8.281,-4.849 -6.211,-6.214C-4.147,-7.577 -1.368,-7.01 0,-4.945" style="fill:rgb(234,91,11);fill-rule:nonzero;"/>
            </g>
            <g transform="matrix(1,0,0,1,600.887,205.24)">
                <path d="M0,-3.613C0.997,-1.345 -0.041,1.3 -2.304,2.297C-4.566,3.295 -7.214,2.267 -8.21,-0.001C-9.207,-2.267 -8.176,-4.914 -5.917,-5.911C-3.651,-6.908 -1.005,-5.881 0,-3.613" style="fill:rgb(234,91,11);fill-rule:nonzero;"/>
            </g>
            <g transform="matrix(1,0,0,1,613.123,200.913)">
                <path d="M0,-2.096C0.577,0.312 -0.905,2.732 -3.313,3.309C-5.726,3.889 -8.14,2.405 -8.716,-0.002C-9.3,-2.409 -7.814,-4.831 -5.408,-5.407C-2.99,-5.985 -0.58,-4.505 0,-2.096" style="fill:rgb(234,91,11);fill-rule:nonzero;"/>
            </g>
            <g transform="matrix(1,0,0,1,617.757,324.018)">
                <path d="M0,0.067C-0.019,-2.411 1.975,-4.432 4.456,-4.447C6.93,-4.469 8.948,-2.474 8.97,0.002C8.983,2.481 6.991,4.501 4.516,4.517C2.042,4.536 0.02,2.538 0,0.067" style="fill:rgb(234,91,11);fill-rule:nonzero;"/>
            </g>
            <g transform="matrix(1,0,0,1,605.507,323.739)">
                <path d="M0,-1.699C0.47,-4.129 2.829,-5.72 5.257,-5.253C7.685,-4.785 9.282,-2.433 8.81,-0.004C8.343,2.43 5.994,4.021 3.558,3.553C1.129,3.084 -0.462,0.732 0,-1.699" style="fill:rgb(234,91,11);fill-rule:nonzero;"/>
            </g>
            <g transform="matrix(1,0,0,1,594.479,321.226)">
                <path d="M0,-3.301C0.914,-5.603 3.519,-6.732 5.82,-5.821C8.123,-4.907 9.254,-2.304 8.343,0.002C7.43,2.303 4.819,3.431 2.523,2.516C0.223,1.607 -0.911,-0.998 0,-3.301" style="fill:rgb(234,91,11);fill-rule:nonzero;"/>
            </g>
            <g transform="matrix(1,0,0,1,583.294,315.947)">
                <path d="M0,-4.954C1.377,-7.022 4.152,-7.583 6.22,-6.214C8.284,-4.844 8.843,-2.061 7.476,0.001C6.113,2.068 3.329,2.629 1.263,1.257C-0.805,-0.111 -1.361,-2.892 0,-4.954" style="fill:rgb(234,91,11);fill-rule:nonzero;"/>
            </g>
            <g transform="matrix(1,0,0,1,574.561,309.053)">
                <path d="M0,-6.28C1.728,-8.048 4.566,-8.076 6.335,-6.342C8.105,-4.607 8.129,-1.766 6.396,-0.001C4.662,1.765 1.823,1.796 0.059,0.061C-1.713,-1.677 -1.738,-4.513 0,-6.28" style="fill:rgb(234,91,11);fill-rule:nonzero;"/>
            </g>
            <g transform="matrix(1,0,0,1,567.213,300.046)">
                <path d="M0,-7.481C2.063,-8.847 4.85,-8.279 6.213,-6.211C7.575,-4.146 7.005,-1.364 4.937,0.004C2.867,1.366 0.088,0.799 -1.272,-1.274C-2.639,-3.339 -2.067,-6.115 0,-7.481" style="fill:rgb(234,91,11);fill-rule:nonzero;"/>
            </g>
            <g transform="matrix(1,0,0,1,562.471,290.383)">
                <path d="M0,-8.213C2.269,-9.207 4.916,-8.176 5.904,-5.909C6.908,-3.642 5.876,-0.997 3.604,-0.003C1.344,0.994 -1.299,-0.037 -2.293,-2.305C-3.296,-4.571 -2.268,-7.216 0,-8.213" style="fill:rgb(234,91,11);fill-rule:nonzero;"/>
            </g>
            <g transform="matrix(1,0,0,1,559.668,278.647)">
                <path d="M0,-8.719C2.406,-9.299 4.828,-7.812 5.404,-5.406C5.98,-2.996 4.495,-0.576 2.085,0C-0.32,0.58 -2.738,-0.905 -3.311,-3.315C-3.891,-5.727 -2.41,-8.139 0,-8.719" style="fill:rgb(234,91,11);fill-rule:nonzero;"/>
            </g>
            <g transform="matrix(1,0,0,1,642.152,317.42)">
                <path d="M0,3.489C-0.964,1.208 0.105,-1.423 2.392,-2.387C4.673,-3.349 7.295,-2.277 8.259,0.003C9.227,2.282 8.153,4.914 5.876,5.879C3.599,6.838 0.97,5.768 0,3.489" style="fill:rgb(234,91,11);fill-rule:nonzero;"/>
            </g>
            <g transform="matrix(1,0,0,1,629.876,321.573)">
                <path d="M0,1.962C-0.547,-0.456 0.974,-2.851 3.392,-3.392C5.804,-3.937 8.204,-2.415 8.743,0.003C9.291,2.418 7.769,4.814 5.351,5.358C2.937,5.899 0.545,4.38 0,1.962" style="fill:rgb(234,91,11);fill-rule:nonzero;"/>
            </g>
            <g transform="matrix(1,0,0,1,617.65,187.546)">
                <path d="M0,-0.002C0,2.108 -1.705,3.82 -3.819,3.82C-5.936,3.82 -7.64,2.108 -7.64,-0.002C-7.64,-2.11 -5.936,-3.822 -3.819,-3.822C-1.705,-3.822 0,-2.11 0,-0.002" style="fill:rgb(234,91,11);fill-rule:nonzero;"/>
            </g>
            <g transform="matrix(1,0,0,1,634.732,186.854)">
                <path d="M0,1.757C-0.479,3.81 -2.539,5.082 -4.591,4.59C-6.647,4.106 -7.918,2.05 -7.434,-0.003C-6.941,-2.058 -4.883,-3.325 -2.827,-2.842C-0.777,-2.353 0.49,-0.294 0,1.757" style="fill:rgb(234,91,11);fill-rule:nonzero;"/>
            </g>
            <g transform="matrix(1,0,0,1,647.997,189.203)">
                <path d="M0,3.116C-0.852,5.04 -3.113,5.906 -5.038,5.044C-6.964,4.184 -7.828,1.923 -6.972,-0.002C-6.108,-1.926 -3.85,-2.79 -1.922,-1.929C0,-1.07 0.868,1.187 0,3.116" style="fill:rgb(234,91,11);fill-rule:nonzero;"/>
            </g>
            <g transform="matrix(1,0,0,1,659.775,193.78)">
                <path d="M0,4.301C-1.185,6.046 -3.562,6.495 -5.308,5.309C-7.046,4.12 -7.494,1.745 -6.305,0.001C-5.121,-1.741 -2.742,-2.194 -1.001,-1.005C0.75,0.184 1.189,2.562 0,4.301" style="fill:rgb(234,91,11);fill-rule:nonzero;"/>
            </g>
            <g transform="matrix(1,0,0,1,653.066,324.859)">
                <path d="M0,2.892C-0.799,0.933 0.144,-1.295 2.092,-2.091C4.044,-2.888 6.278,-1.944 7.075,0.008C7.871,1.963 6.933,4.191 4.979,4.992C3.023,5.78 0.802,4.838 0,2.892" style="fill:rgb(234,91,11);fill-rule:nonzero;"/>
            </g>
            <g transform="matrix(1,0,0,1,639.744,331.047)">
                <path d="M0,1.483C-0.405,-0.588 0.941,-2.598 3.013,-3.004C5.083,-3.415 7.087,-2.066 7.497,0.007C7.904,2.075 6.557,4.083 4.485,4.491C2.41,4.898 0.406,3.551 0,1.483" style="fill:rgb(234,91,11);fill-rule:nonzero;"/>
            </g>
            <g transform="matrix(1,0,0,1,626.049,334.611)">
                <path d="M0,0.045C-0.004,-2.067 1.696,-3.784 3.801,-3.797C5.917,-3.811 7.628,-2.108 7.64,0C7.658,2.111 5.948,3.83 3.842,3.844C1.733,3.856 0.018,2.152 0,0.045" style="fill:rgb(234,91,11);fill-rule:nonzero;"/>
            </g>
            <g transform="matrix(1,0,0,1,609.667,335.449)">
                <path d="M0,-1.636C0.466,-3.699 2.5,-5.004 4.559,-4.544C6.617,-4.091 7.914,-2.05 7.459,0.01C7.009,2.069 4.965,3.368 2.904,2.914C0.85,2.461 -0.453,0.421 0,-1.636" style="fill:rgb(234,91,11);fill-rule:nonzero;"/>
            </g>
            <g transform="matrix(1,0,0,1,597.656,333.647)">
                <path d="M0,-2.868C0.801,-4.824 3.022,-5.769 4.979,-4.972C6.932,-4.18 7.877,-1.951 7.083,0.004C6.29,1.958 4.056,2.901 2.101,2.108C0.154,1.31 -0.793,-0.916 0,-2.868" style="fill:rgb(234,91,11);fill-rule:nonzero;"/>
            </g>
            <g transform="matrix(1,0,0,1,581.926,327.628)">
                <path d="M0,-4.456C1.229,-6.169 3.623,-6.56 5.328,-5.33C7.046,-4.099 7.436,-1.709 6.205,0.002C4.971,1.718 2.583,2.104 0.87,0.877C-0.842,-0.357 -1.234,-2.743 0,-4.456" style="fill:rgb(234,91,11);fill-rule:nonzero;"/>
            </g>
            <g transform="matrix(1,0,0,1,571.822,320.861)">
                <path d="M0,-5.463C1.511,-6.938 3.927,-6.912 5.408,-5.401C6.881,-3.894 6.848,-1.474 5.341,-0.004C3.831,1.475 1.413,1.444 -0.059,-0.061C-1.534,-1.571 -1.505,-3.987 0,-5.463" style="fill:rgb(234,91,11);fill-rule:nonzero;"/>
            </g>
            <g transform="matrix(1,0,0,1,562.271,311.146)">
                <path d="M0,-6.4C1.765,-7.55 4.138,-7.06 5.286,-5.294C6.447,-3.529 5.958,-1.162 4.188,-0.01C2.418,1.15 0.055,0.654 -1.1,-1.108C-2.26,-2.878 -1.768,-5.238 0,-6.4" style="fill:rgb(234,91,11);fill-rule:nonzero;"/>
            </g>
            <g transform="matrix(1,0,0,1,555.476,300.57)">
                <path d="M0,-7.03C1.943,-7.855 4.192,-6.95 5.008,-5.008C5.843,-3.066 4.932,-0.822 2.99,0.002C1.046,0.825 -1.193,-0.084 -2.021,-2.022C-2.845,-3.964 -1.935,-6.203 0,-7.03" style="fill:rgb(234,91,11);fill-rule:nonzero;"/>
            </g>
            <g transform="matrix(1,0,0,1,550.93,289.253)">
                <path d="M0,-7.438C2.05,-7.92 4.114,-6.646 4.591,-4.593C5.076,-2.538 3.805,-0.482 1.743,-0.002C-0.312,0.482 -2.363,-0.796 -2.848,-2.845C-3.327,-4.899 -2.058,-6.956 0,-7.438" style="fill:rgb(234,91,11);fill-rule:nonzero;"/>
            </g>
            <g transform="matrix(1,0,0,1,548.119,273.684)">
                <path d="M0,-7.636C2.12,-7.665 3.854,-5.976 3.876,-3.866C3.9,-1.758 2.216,-0.026 0.104,0.002C-2.009,0.029 -3.735,-1.662 -3.772,-3.768C-3.786,-5.876 -2.104,-7.606 0,-7.636" style="fill:rgb(234,91,11);fill-rule:nonzero;"/>
            </g>
            <g transform="matrix(1,0,0,1,548.707,258.15)">
                <path d="M0,-7.499C2.069,-7.083 3.417,-5.074 3,-3.005C2.586,-0.936 0.572,0.407 -1.495,-0.005C-3.56,-0.416 -4.901,-2.43 -4.493,-4.497C-4.083,-6.564 -2.071,-7.906 0,-7.499" style="fill:rgb(234,91,11);fill-rule:nonzero;"/>
            </g>
            <g transform="matrix(1,0,0,1,552.242,243.419)">
                <path d="M0,-7.052C1.942,-6.236 2.861,-3.996 2.044,-2.051C1.229,-0.106 -1.005,0.812 -2.953,-0.006C-4.897,-0.822 -5.815,-3.058 -5.002,-5.008C-4.187,-6.951 -1.948,-7.864 0,-7.052" style="fill:rgb(234,91,11);fill-rule:nonzero;"/>
            </g>
            <g transform="matrix(1,0,0,1,558.644,229.22)">
                <path d="M0,-6.318C1.743,-5.125 2.187,-2.749 0.999,-1.007C-0.192,0.734 -2.569,1.185 -4.312,-0.008C-6.05,-1.199 -6.501,-3.575 -5.312,-5.321C-4.12,-7.059 -1.742,-7.503 0,-6.318" style="fill:rgb(234,91,11);fill-rule:nonzero;"/>
            </g>
            <g transform="matrix(1,0,0,1,567.913,215.969)">
                <path d="M0,-5.284C1.466,-3.755 1.415,-1.336 -0.114,0.118C-1.638,1.576 -4.056,1.522 -5.514,0C-6.97,-1.53 -6.915,-3.947 -5.392,-5.406C-3.868,-6.86 -1.454,-6.805 0,-5.284" style="fill:rgb(234,91,11);fill-rule:nonzero;"/>
            </g>
            <g transform="matrix(1,0,0,1,578.045,205.895)">
                <path d="M0,-4.181C1.152,-2.414 0.658,-0.045 -1.11,1.107C-2.862,2.261 -5.236,1.767 -6.396,0.003C-7.546,-1.767 -7.046,-4.135 -5.288,-5.292C-3.521,-6.442 -1.157,-5.945 0,-4.181" style="fill:rgb(234,91,11);fill-rule:nonzero;"/>
            </g>
            <g transform="matrix(1,0,0,1,589.58,197.728)">
                <path d="M0,-2.953C0.813,-1 -0.104,1.236 -2.057,2.047C-3.997,2.862 -6.236,1.946 -7.05,-0.002C-7.869,-1.949 -6.945,-4.186 -5.002,-5.001C-3.055,-5.815 -0.818,-4.896 0,-2.953" style="fill:rgb(234,91,11);fill-rule:nonzero;"/>
            </g>
            <g transform="matrix(1,0,0,1,603.226,191.287)">
                <path d="M0,-1.514C0.419,0.559 -0.921,2.574 -2.996,2.985C-5.058,3.405 -7.079,2.066 -7.491,-0.006C-7.906,-2.073 -6.562,-4.086 -4.495,-4.505C-2.429,-4.919 -0.417,-3.579 0,-1.514" style="fill:rgb(234,91,11);fill-rule:nonzero;"/>
            </g>
            <g transform="matrix(1,0,0,1,608.355,177.961)">
                <path d="M0,-1.436C0.393,0.535 -0.878,2.447 -2.849,2.841C-4.808,3.233 -6.721,1.961 -7.12,0C-7.514,-1.966 -6.236,-3.88 -4.272,-4.276C-2.31,-4.669 -0.397,-3.398 0,-1.436" style="fill:rgb(234,91,11);fill-rule:nonzero;"/>
            </g>
            <g transform="matrix(1,0,0,1,625.852,175.486)">
                <path d="M0,0.04C-0.019,2.049 -1.654,3.663 -3.654,3.645C-5.663,3.633 -7.279,1.999 -7.265,-0.004C-7.252,-2.014 -5.61,-3.623 -3.611,-3.614C-1.605,-3.597 0.006,-1.963 0,0.04" style="fill:rgb(234,91,11);fill-rule:nonzero;"/>
            </g>
            <g transform="matrix(1,0,0,1,645.706,177.063)">
                <path d="M0,1.73C-0.484,3.679 -2.455,4.868 -4.394,4.386C-6.337,3.906 -7.53,1.94 -7.046,-0.005C-6.566,-1.953 -4.599,-3.138 -2.653,-2.662C-0.709,-2.179 0.476,-0.211 0,1.73" style="fill:rgb(234,91,11);fill-rule:nonzero;"/>
            </g>
            <g transform="matrix(1,0,0,1,659.264,181.082)">
                <path d="M0,2.898C-0.806,4.74 -2.945,5.579 -4.779,4.775C-6.615,3.974 -7.46,1.832 -6.656,-0.003C-5.852,-1.842 -3.714,-2.681 -1.88,-1.878C-0.037,-1.073 0.796,1.062 0,2.898" style="fill:rgb(234,91,11);fill-rule:nonzero;"/>
            </g>
            <g transform="matrix(1,0,0,1,650.723,339.11)">
                <path d="M0,2.708C-0.746,0.843 0.158,-1.27 2.012,-2.014C3.878,-2.759 5.989,-1.854 6.735,0.008C7.477,1.871 6.575,3.98 4.718,4.729C2.856,5.467 0.75,4.565 0,2.708" style="fill:rgb(234,91,11);fill-rule:nonzero;"/>
            </g>
            <g transform="matrix(1,0,0,1,635.131,344.37)">
                <path d="M0,1.403C-0.38,-0.572 0.896,-2.477 2.867,-2.861C4.836,-3.243 6.74,-1.963 7.128,0.002C7.512,1.975 6.227,3.878 4.26,4.264C2.296,4.646 0.392,3.366 0,1.403" style="fill:rgb(234,91,11);fill-rule:nonzero;"/>
            </g>
            <g transform="matrix(1,0,0,1,616.86,346.778)">
                <path d="M0,-0.141C0.041,-2.152 1.701,-3.741 3.698,-3.698C5.71,-3.659 7.293,-1.995 7.25,0.007C7.209,2.011 5.555,3.6 3.552,3.561C1.55,3.512 -0.043,1.861 0,-0.141" style="fill:rgb(234,91,11);fill-rule:nonzero;"/>
            </g>
            <g transform="matrix(1,0,0,1,600.509,345.604)">
                <path d="M0,-1.545C0.434,-3.506 2.359,-4.742 4.319,-4.321C6.276,-3.896 7.522,-1.966 7.095,-0.007C6.666,1.958 4.736,3.197 2.78,2.771C0.823,2.343 -0.421,0.41 0,-1.545" style="fill:rgb(234,91,11);fill-rule:nonzero;"/>
            </g>
            <g transform="matrix(1,0,0,1,584.387,341.03)">
                <path d="M0,-2.921C0.819,-4.759 2.953,-5.59 4.791,-4.781C6.621,-3.973 7.453,-1.832 6.648,0.001C5.833,1.839 3.695,2.669 1.861,1.86C0.027,1.05 -0.805,-1.089 0,-2.921" style="fill:rgb(234,91,11);fill-rule:nonzero;"/>
            </g>
            <g transform="matrix(1,0,0,1,568.048,332.03)">
                <path d="M0,-4.339C1.199,-5.947 3.472,-6.276 5.081,-5.078C6.687,-3.877 7.007,-1.604 5.804,0.001C4.61,1.61 2.339,1.937 0.729,0.738C-0.872,-0.461 -1.201,-2.735 0,-4.339" style="fill:rgb(234,91,11);fill-rule:nonzero;"/>
            </g>
            <g transform="matrix(1,0,0,1,558.229,323.578)">
                <path d="M0,-5.202C1.448,-6.598 3.744,-6.565 5.143,-5.133C6.533,-3.698 6.507,-1.394 5.069,0C3.625,1.396 1.334,1.364 -0.065,-0.08C-1.46,-1.513 -1.432,-3.808 0,-5.202" style="fill:rgb(234,91,11);fill-rule:nonzero;"/>
            </g>
            <g transform="matrix(1,0,0,1,548.515,311.29)">
                <path d="M0,-6.074C1.68,-7.171 3.93,-6.701 5.026,-5.03C6.123,-3.352 5.653,-1.103 3.975,-0.004C2.301,1.097 0.052,0.623 -1.05,-1.056C-2.144,-2.731 -1.673,-4.975 0,-6.074" style="fill:rgb(234,91,11);fill-rule:nonzero;"/>
            </g>
            <g transform="matrix(1,0,0,1,542.273,299.207)">
                <path d="M0,-6.633C1.84,-7.442 3.979,-6.612 4.789,-4.776C5.595,-2.944 4.768,-0.8 2.928,0.005C1.089,0.809 -1.046,-0.014 -1.858,-1.854C-2.661,-3.69 -1.832,-5.83 0,-6.633" style="fill:rgb(234,91,11);fill-rule:nonzero;"/>
            </g>
            <g transform="matrix(1,0,0,1,537.625,283.285)">
                <path d="M0,-7.093C1.968,-7.518 3.901,-6.282 4.334,-4.326C4.759,-2.369 3.52,-0.433 1.562,-0.004C-0.401,0.425 -2.332,-0.813 -2.767,-2.775C-3.184,-4.73 -1.952,-6.664 0,-7.093" style="fill:rgb(234,91,11);fill-rule:nonzero;"/>
            </g>
            <g transform="matrix(1,0,0,1,536.33,265.676)">
                <ellipse cx="0.038" cy="-3.63" rx="3.644" ry="3.639" style="fill:rgb(234,91,11);"/>
            </g>
            <g transform="matrix(1,0,0,1,538.667,248.205)">
                <path d="M0,-7.121C1.967,-6.726 3.241,-4.817 2.853,-2.853C2.457,-0.889 0.545,0.389 -1.421,-0.006C-3.393,-0.397 -4.663,-2.306 -4.271,-4.277C-3.876,-6.237 -1.965,-7.51 0,-7.121" style="fill:rgb(234,91,11);fill-rule:nonzero;"/>
            </g>
            <g transform="matrix(1,0,0,1,544.059,232.174)">
                <path d="M0,-6.707C1.857,-5.941 2.743,-3.826 1.983,-1.975C1.219,-0.121 -0.905,0.766 -2.753,0.002C-4.613,-0.763 -5.496,-2.881 -4.738,-4.737C-3.968,-6.586 -1.848,-7.473 0,-6.707" style="fill:rgb(234,91,11);fill-rule:nonzero;"/>
            </g>
            <g transform="matrix(1,0,0,1,552.467,217.068)">
                <path d="M0,-6.058C1.664,-4.943 2.13,-2.695 1.023,-1.024C-0.084,0.643 -2.34,1.102 -4.009,-0.009C-5.684,-1.118 -6.137,-3.365 -5.025,-5.041C-3.919,-6.708 -1.668,-7.16 0,-6.058" style="fill:rgb(234,91,11);fill-rule:nonzero;"/>
            </g>
            <g transform="matrix(1,0,0,1,565.197,201.966)">
                <path d="M0,-5.023C1.389,-3.568 1.338,-1.278 -0.106,0.109C-1.557,1.496 -3.853,1.446 -5.237,-0.005C-6.625,-1.455 -6.576,-3.746 -5.122,-5.138C-3.677,-6.519 -1.384,-6.469 0,-5.023" style="fill:rgb(234,91,11);fill-rule:nonzero;"/>
            </g>
            <g transform="matrix(1,0,0,1,577.422,191.951)">
                <path d="M0,-4.023C1.104,-2.343 0.654,-0.1 -1.011,1.011C-2.688,2.12 -4.945,1.661 -6.049,-0.009C-7.155,-1.68 -6.702,-3.931 -5.029,-5.04C-3.351,-6.143 -1.11,-5.689 0,-4.023" style="fill:rgb(234,91,11);fill-rule:nonzero;"/>
            </g>
            <g transform="matrix(1,0,0,1,592.25,183.545)">
                <path d="M0,-2.789C0.768,-0.93 -0.108,1.186 -1.957,1.958C-3.808,2.723 -5.936,1.843 -6.701,-0.004C-7.471,-1.861 -6.598,-3.979 -4.736,-4.753C-2.889,-5.512 -0.765,-4.634 0,-2.789" style="fill:rgb(234,91,11);fill-rule:nonzero;"/>
            </g>
            <g transform="matrix(1,0,0,1,614.665,166.124)">
                <path d="M0,-0.002C0,1.286 -1.042,2.325 -2.326,2.325C-3.613,2.325 -4.655,1.286 -4.655,-0.002C-4.655,-1.283 -3.613,-2.327 -2.326,-2.327C-1.042,-2.327 0,-1.283 0,-0.002" style="fill:rgb(234,91,11);fill-rule:nonzero;"/>
            </g>
            <g transform="matrix(1,0,0,1,623.493,155.827)">
                <path d="M0,0.001C0,1.029 -0.833,1.86 -1.855,1.86C-2.886,1.86 -3.721,1.029 -3.721,0.001C-3.721,-1.027 -2.886,-1.859 -1.855,-1.859C-0.833,-1.859 0,-1.027 0,0.001" style="fill:rgb(234,91,11);fill-rule:nonzero;"/>
            </g>
            <g transform="matrix(1,0,0,1,648.349,158.297)">
                <path d="M0,0.876C-0.247,1.875 -1.244,2.485 -2.249,2.245C-3.247,2.002 -3.86,0.996 -3.613,-0.002C-3.374,-0.999 -2.363,-1.609 -1.366,-1.372C-0.374,-1.128 0.243,-0.12 0,0.876" style="fill:rgb(234,91,11);fill-rule:nonzero;"/>
            </g>
            <g transform="matrix(1,0,0,1,667.457,164.593)">
                <path d="M0,1.555C-0.429,2.488 -1.54,2.899 -2.473,2.465C-3.407,2.033 -3.813,0.933 -3.378,-0.004C-2.949,-0.935 -1.848,-1.344 -0.915,-0.914C0.014,-0.482 0.431,0.623 0,1.555" style="fill:rgb(234,91,11);fill-rule:nonzero;"/>
            </g>
            <g transform="matrix(1,0,0,1,658.802,358.411)">
                <path d="M0,1.348C-0.376,0.392 0.104,-0.69 1.052,-1.062C2.012,-1.432 3.094,-0.963 3.458,-0.005C3.835,0.952 3.359,2.032 2.403,2.402C1.454,2.78 0.37,2.306 0,1.348" style="fill:rgb(234,91,11);fill-rule:nonzero;"/>
            </g>
            <g transform="matrix(1,0,0,1,639.57,364.255)">
                <path d="M0,0.673C-0.191,-0.341 0.48,-1.308 1.485,-1.494C2.496,-1.681 3.471,-1.013 3.654,-0.006C3.845,1.008 3.179,1.978 2.163,2.168C1.156,2.354 0.187,1.682 0,0.673" style="fill:rgb(234,91,11);fill-rule:nonzero;"/>
            </g>
            <g transform="matrix(1,0,0,1,617.699,366.422)">
                <path d="M0,-0.098C0.025,-1.126 0.88,-1.938 1.904,-1.913C2.933,-1.878 3.746,-1.027 3.713,0.001C3.695,1.023 2.841,1.84 1.812,1.81C0.786,1.784 -0.027,0.923 0,-0.098" style="fill:rgb(234,91,11);fill-rule:nonzero;"/>
            </g>
            <g transform="matrix(1,0,0,1,595.697,363.954)">
                <path d="M0,-0.873C0.247,-1.874 1.254,-2.49 2.246,-2.243C3.243,-1.998 3.856,-0.996 3.617,-0.001C3.376,0.998 2.373,1.617 1.372,1.376C0.376,1.13 -0.241,0.12 0,-0.873" style="fill:rgb(234,91,11);fill-rule:nonzero;"/>
            </g>
            <g transform="matrix(1,0,0,1,576.242,357.532)">
                <path d="M0,-1.568C0.435,-2.502 1.538,-2.904 2.465,-2.473C3.397,-2.038 3.809,-0.935 3.372,-0.006C2.94,0.93 1.838,1.336 0.902,0.901C-0.027,0.468 -0.434,-0.639 0,-1.568" style="fill:rgb(234,91,11);fill-rule:nonzero;"/>
            </g>
            <g transform="matrix(1,0,0,1,557.473,346.577)">
                <path d="M0,-2.232C0.617,-3.057 1.779,-3.225 2.603,-2.604C3.417,-1.983 3.584,-0.819 2.967,0.002C2.355,0.823 1.186,0.993 0.366,0.372C-0.451,-0.247 -0.625,-1.415 0,-2.232" style="fill:rgb(234,91,11);fill-rule:nonzero;"/>
            </g>
            <g transform="matrix(1,0,0,1,543.789,334.375)">
                <path d="M0,-2.727C0.75,-3.427 1.928,-3.382 2.629,-2.628C3.327,-1.871 3.286,-0.695 2.533,-0.005C1.777,0.7 0.598,0.664 -0.096,-0.096C-0.801,-0.85 -0.752,-2.026 0,-2.727" style="fill:rgb(234,91,11);fill-rule:nonzero;"/>
            </g>
            <g transform="matrix(1,0,0,1,532.815,320.258)">
                <path d="M0,-3.119C0.864,-3.678 2.016,-3.429 2.569,-2.567C3.127,-1.706 2.888,-0.556 2.024,-0.002C1.156,0.559 0.012,0.319 -0.549,-0.543C-1.107,-1.41 -0.866,-2.558 0,-3.119" style="fill:rgb(234,91,11);fill-rule:nonzero;"/>
            </g>
            <g transform="matrix(1,0,0,1,525.212,306.05)">
                <path d="M0,-3.389C0.941,-3.813 2.046,-3.391 2.459,-2.452C2.876,-1.51 2.459,-0.411 1.521,0.003C0.58,0.424 -0.522,0.007 -0.944,-0.935C-1.354,-1.872 -0.937,-2.97 0,-3.389" style="fill:rgb(234,91,11);fill-rule:nonzero;"/>
            </g>
            <g transform="matrix(1,0,0,1,519.152,287.456)">
                <path d="M0,-3.621C1.001,-3.858 2.004,-3.239 2.241,-2.24C2.469,-1.235 1.857,-0.237 0.855,-0.002C-0.147,0.237 -1.148,-0.382 -1.38,-1.385C-1.617,-2.383 -1.001,-3.384 0,-3.621" style="fill:rgb(234,91,11);fill-rule:nonzero;"/>
            </g>
            <g transform="matrix(1,0,0,1,516.671,264.329)">
                <ellipse cx="0.013" cy="-1.854" rx="1.87" ry="1.869" style="fill:rgb(234,91,11);"/>
            </g>
            <g transform="matrix(1,0,0,1,518.606,244.673)">
                <path d="M0,-3.657C1.013,-3.479 1.687,-2.512 1.503,-1.503C1.318,-0.488 0.354,0.184 -0.649,-0.001C-1.672,-0.178 -2.339,-1.145 -2.154,-2.158C-1.978,-3.17 -1.012,-3.841 0,-3.657" style="fill:rgb(234,91,11);fill-rule:nonzero;"/>
            </g>
            <g transform="matrix(1,0,0,1,525.028,223.441)">
                <path d="M0,-3.44C0.956,-3.056 1.409,-1.973 1.024,-1.02C0.635,-0.068 -0.449,0.391 -1.399,-0.002C-2.355,-0.386 -2.809,-1.47 -2.424,-2.423C-2.038,-3.372 -0.952,-3.831 0,-3.44" style="fill:rgb(234,91,11);fill-rule:nonzero;"/>
            </g>
            <g transform="matrix(1,0,0,1,535.477,204.147)">
                <path d="M0,-3.088C0.854,-2.514 1.078,-1.357 0.502,-0.509C-0.078,0.344 -1.231,0.573 -2.073,-0.006C-2.931,-0.579 -3.162,-1.732 -2.583,-2.584C-2.008,-3.437 -0.852,-3.661 0,-3.088" style="fill:rgb(234,91,11);fill-rule:nonzero;"/>
            </g>
            <g transform="matrix(1,0,0,1,549.592,187.223)">
                <path d="M0,-2.594C0.725,-1.856 0.709,-0.682 -0.028,0.034C-0.771,0.753 -1.948,0.737 -2.653,-0.001C-3.376,-0.735 -3.362,-1.912 -2.624,-2.631C-1.89,-3.347 -0.714,-3.329 0,-2.594" style="fill:rgb(234,91,11);fill-rule:nonzero;"/>
            </g>
            <g transform="matrix(1,0,0,1,565.828,174.052)">
                <path d="M0,-2.022C0.562,-1.16 0.318,-0.01 -0.541,0.551C-1.405,1.109 -2.561,0.867 -3.111,0.005C-3.678,-0.857 -3.431,-2.007 -2.571,-2.569C-1.707,-3.131 -0.561,-2.882 0,-2.022" style="fill:rgb(234,91,11);fill-rule:nonzero;"/>
            </g>
            <g transform="matrix(1,0,0,1,584.922,163.903)">
                <path d="M0,-1.356C0.38,-0.396 -0.092,0.679 -1.048,1.054C-2.003,1.429 -3.086,0.958 -3.452,0.002C-3.833,-0.956 -3.362,-2.033 -2.406,-2.412C-1.45,-2.785 -0.372,-2.31 0,-1.356" style="fill:rgb(234,91,11);fill-rule:nonzero;"/>
            </g>
            <g transform="matrix(1,0,0,1,602.529,158.366)">
                <path d="M0,-0.741C0.205,0.271 -0.443,1.248 -1.45,1.453C-2.464,1.655 -3.443,1.007 -3.645,0.001C-3.851,-1.008 -3.196,-1.989 -2.186,-2.193C-1.183,-2.396 -0.204,-1.747 0,-0.741" style="fill:rgb(234,91,11);fill-rule:nonzero;"/>
            </g>
            <g transform="matrix(1,0,0,1,636.076,165.854)">
                <path d="M0,1.041C-0.288,2.29 -1.536,3.073 -2.79,2.785C-4.034,2.497 -4.824,1.251 -4.532,0.001C-4.248,-1.249 -3,-2.032 -1.746,-1.748C-0.498,-1.46 0.284,-0.214 0,1.041" style="fill:rgb(234,91,11);fill-rule:nonzero;"/>
            </g>
            <g transform="matrix(1,0,0,1,655.231,169.885)">
                <path d="M0,1.955C-0.537,3.119 -1.918,3.627 -3.084,3.089C-4.252,2.548 -4.757,1.169 -4.217,0.004C-3.678,-1.165 -2.295,-1.672 -1.131,-1.131C0.039,-0.592 0.533,0.79 0,1.955" style="fill:rgb(234,91,11);fill-rule:nonzero;"/>
            </g>
            <g transform="matrix(1,0,0,1,670.114,176.249)">
                <path d="M0,2.655C-0.733,3.71 -2.177,3.968 -3.237,3.24C-4.289,2.505 -4.555,1.06 -3.827,0.005C-3.086,-1.051 -1.639,-1.313 -0.586,-0.579C0.47,0.15 0.739,1.601 0,2.655" style="fill:rgb(234,91,11);fill-rule:nonzero;"/>
            </g>
            <g transform="matrix(1,0,0,1,664.814,344.44)">
                <path d="M0,1.763C-0.488,0.578 0.073,-0.78 1.273,-1.267C2.451,-1.756 3.813,-1.188 4.299,0C4.779,1.187 4.224,2.545 3.035,3.035C1.846,3.519 0.488,2.95 0,1.763" style="fill:rgb(234,91,11);fill-rule:nonzero;"/>
            </g>
            <g transform="matrix(1,0,0,1,647.6,351.964)">
                <path d="M0,0.908C-0.256,-0.353 0.562,-1.575 1.827,-1.827C3.086,-2.076 4.311,-1.255 4.559,0.003C4.813,1.264 3.992,2.489 2.734,2.735C1.473,2.984 0.246,2.166 0,0.908" style="fill:rgb(234,91,11);fill-rule:nonzero;"/>
            </g>
            <g transform="matrix(1,0,0,1,627.864,356.269)">
                <path d="M0,-0.068C0.018,-1.353 1.065,-2.379 2.358,-2.36C3.639,-2.341 4.669,-1.282 4.642,0C4.628,1.286 3.571,2.311 2.287,2.288C1.003,2.268 -0.019,1.214 0,-0.068" style="fill:rgb(234,91,11);fill-rule:nonzero;"/>
            </g>
            <g transform="matrix(1,0,0,1,607.06,356.286)">
                <path d="M0,-1.076C0.298,-2.326 1.55,-3.096 2.802,-2.8C4.046,-2.504 4.82,-1.247 4.519,0C4.225,1.252 2.977,2.02 1.716,1.724C0.473,1.424 -0.294,0.174 0,-1.076" style="fill:rgb(234,91,11);fill-rule:nonzero;"/>
            </g>
            <g transform="matrix(1,0,0,1,590.377,352.867)">
                <path d="M0,-1.872C0.517,-3.045 1.893,-3.582 3.076,-3.067C4.242,-2.547 4.777,-1.172 4.256,0.001C3.744,1.175 2.373,1.71 1.197,1.191C0.022,0.677 -0.513,-0.698 0,-1.872" style="fill:rgb(234,91,11);fill-rule:nonzero;"/>
            </g>
            <g transform="matrix(1,0,0,1,571.588,344.731)">
                <path d="M0,-2.757C0.764,-3.79 2.218,-4.013 3.251,-3.253C4.289,-2.493 4.505,-1.037 3.741,-0.004C2.989,1.032 1.533,1.256 0.5,0.494C-0.535,-0.265 -0.759,-1.721 0,-2.757" style="fill:rgb(234,91,11);fill-rule:nonzero;"/>
            </g>
            <g transform="matrix(1,0,0,1,557.1,334.307)">
                <path d="M0,-3.419C0.949,-4.287 2.418,-4.228 3.287,-3.284C4.155,-2.345 4.097,-0.868 3.152,0C2.212,0.868 0.74,0.811 -0.13,-0.131C-1.004,-1.071 -0.944,-2.545 0,-3.419" style="fill:rgb(234,91,11);fill-rule:nonzero;"/>
            </g>
            <g transform="matrix(1,0,0,1,546.019,322.539)">
                <path d="M0,-3.911C1.078,-4.603 2.51,-4.293 3.215,-3.211C3.904,-2.132 3.595,-0.69 2.506,-0.004C1.432,0.692 -0.004,0.386 -0.7,-0.695C-1.396,-1.777 -1.082,-3.217 0,-3.911" style="fill:rgb(234,91,11);fill-rule:nonzero;"/>
            </g>
            <g transform="matrix(1,0,0,1,537.415,309.295)">
                <path d="M0,-4.27C1.188,-4.775 2.547,-4.224 3.053,-3.041C3.562,-1.862 3.008,-0.492 1.824,0.004C0.645,0.505 -0.719,-0.04 -1.226,-1.218C-1.729,-2.401 -1.174,-3.77 0,-4.27" style="fill:rgb(234,91,11);fill-rule:nonzero;"/>
            </g>
            <g transform="matrix(1,0,0,1,530.835,293.432)">
                <path d="M0,-4.536C1.258,-4.816 2.496,-4.026 2.779,-2.774C3.059,-1.52 2.267,-0.278 1.011,-0.002C-0.241,0.28 -1.478,-0.509 -1.762,-1.765C-2.038,-3.012 -1.248,-4.258 0,-4.536" style="fill:rgb(234,91,11);fill-rule:nonzero;"/>
            </g>
            <g transform="matrix(1,0,0,1,526.981,273.112)">
                <circle cx="0.002" cy="-2.322" r="2.326" style="fill:rgb(234,91,11);"/>
            </g>
            <g transform="matrix(1,0,0,1,527.3,255.003)">
                <path d="M0,-4.564C1.262,-4.326 2.085,-3.108 1.848,-1.846C1.604,-0.585 0.384,0.242 -0.872,-0.004C-2.131,-0.24 -2.962,-1.458 -2.721,-2.719C-2.478,-3.979 -1.267,-4.806 0,-4.564" style="fill:rgb(234,91,11);fill-rule:nonzero;"/>
            </g>
            <g transform="matrix(1,0,0,1,531.318,236.095)">
                <path d="M0,-4.3C1.191,-3.814 1.76,-2.456 1.269,-1.267C0.786,-0.08 -0.58,0.487 -1.764,-0.003C-2.953,-0.489 -3.519,-1.845 -3.035,-3.034C-2.545,-4.218 -1.182,-4.787 0,-4.3" style="fill:rgb(234,91,11);fill-rule:nonzero;"/>
            </g>
            <g transform="matrix(1,0,0,1,538.946,218.248)">
                <path d="M0,-3.869C1.064,-3.154 1.354,-1.711 0.644,-0.643C-0.068,0.424 -1.52,0.71 -2.579,-0.006C-3.649,-0.715 -3.938,-2.162 -3.225,-3.229C-2.514,-4.291 -1.065,-4.579 0,-3.869" style="fill:rgb(234,91,11);fill-rule:nonzero;"/>
            </g>
            <g transform="matrix(1,0,0,1,550.807,200.997)">
                <path d="M0,-3.227C0.896,-2.306 0.864,-0.833 -0.059,0.062C-0.989,0.952 -2.451,0.925 -3.343,-0.004C-4.234,-0.927 -4.211,-2.4 -3.288,-3.288C-2.367,-4.179 -0.89,-4.149 0,-3.227" style="fill:rgb(234,91,11);fill-rule:nonzero;"/>
            </g>
            <g transform="matrix(1,0,0,1,564.681,187.494)">
                <path d="M0,-2.5C0.689,-1.421 0.374,0.018 -0.709,0.709C-1.793,1.401 -3.233,1.081 -3.911,0.002C-4.606,-1.08 -4.293,-2.517 -3.211,-3.209C-2.128,-3.901 -0.692,-3.58 0,-2.5" style="fill:rgb(234,91,11);fill-rule:nonzero;"/>
            </g>
            <g transform="matrix(1,0,0,1,579.824,177.4)">
                <path d="M0,-1.728C0.488,-0.541 -0.096,0.816 -1.287,1.294C-2.471,1.77 -3.829,1.192 -4.307,-0.002C-4.787,-1.189 -4.207,-2.545 -3.014,-3.023C-1.83,-3.498 -0.472,-2.918 0,-1.728" style="fill:rgb(234,91,11);fill-rule:nonzero;"/>
            </g>
            <g transform="matrix(1,0,0,1,597.321,169.944)">
                <path d="M0,-0.857C0.238,0.405 -0.595,1.617 -1.856,1.857C-3.117,2.092 -4.33,1.26 -4.562,-0.002C-4.807,-1.264 -3.977,-2.48 -2.715,-2.714C-1.45,-2.949 -0.229,-2.116 0,-0.857" style="fill:rgb(234,91,11);fill-rule:nonzero;"/>
            </g>
            <g transform="matrix(1,0,0,1,646.108,247.402)">
                <path d="M0,26.143C-5.876,34.006 -13.451,38.174 -23.113,38.174C-35.522,38.174 -47.46,30.311 -47.46,12.881C-47.46,-3.033 -37.229,-12.031 -23.871,-12.031C-11.368,-12.031 -6.158,-4.548 -5.208,-3.127C-1.326,2.367 -0.472,10.607 -0.38,15.345L-35.426,15.345C-34.102,22.828 -29.461,27.089 -21.977,27.089C-14.211,27.089 -11.084,22.544 -9.662,20.555L0,26.143ZM-12.881,7.008C-13.927,-0.381 -18.474,-2.939 -23.493,-2.939C-29.556,-2.939 -33.726,0.568 -35.047,7.008L-12.881,7.008Z" style="fill:rgb(29,29,27);fill-rule:nonzero;"/>
            </g>
            <g transform="matrix(1,0,0,1,665.715,282.827)">
                <path d="M0,-46.035L0,-39.311C1.421,-41.775 4.548,-47.363 15.158,-47.079L15.158,-35.426C12.697,-35.331 8.435,-35.237 4.928,-32.583C0.1,-28.891 0,-24.059 0,-16.197L0,1.328L-10.988,1.328L-10.988,-46.035L0,-46.035Z" style="fill:rgb(29,29,27);fill-rule:nonzero;"/>
            </g>
            <g transform="matrix(1,0,0,1,716.869,267.39)">
                <path d="M0,-13.832C-0.854,-16.958 -4.169,-21.884 -10.704,-21.884C-17.242,-21.884 -22.453,-16.674 -22.453,-7.2C-22.453,1.323 -17.997,7.577 -10.516,7.577C-3.314,7.577 -0.569,2.083 0.853,-1.708L10.608,3.408C6.915,13.638 -2.463,18.187 -10.704,18.187C-23.875,18.187 -34.194,8.051 -34.194,-6.917C-34.194,-21.411 -23.779,-32.019 -10.324,-32.019C1.609,-32.019 7.673,-24.063 10.134,-18.567L0,-13.832Z" style="fill:rgb(29,29,27);fill-rule:nonzero;"/>
            </g>
            <g transform="matrix(1,0,0,1,473.137,403.024)">
                <path d="M0,-11.315L0,-7.318L8.192,-7.318L8.192,-4.571L0,-4.571L0,-0.016L9.566,-0.016L9.566,2.848L-3.134,2.848L-3.134,-14.163L8.968,-14.163L8.968,-11.315L0,-11.315Z" style="fill:rgb(29,29,27);fill-rule:nonzero;"/>
            </g>
            <g transform="matrix(1,0,0,1,495.65,406.162)">
                <path d="M0,-12.338L0,-0.29L-2.893,-0.29L-2.893,-1.518C-3.401,-1.035 -4.579,0 -6.8,0C-8.774,0 -9.713,-0.842 -10.146,-1.397C-10.968,-2.434 -10.968,-3.566 -10.968,-5.369L-10.968,-12.338L-8.049,-12.338L-8.049,-5.419C-8.049,-4.938 -8.049,-4.528 -7.956,-4.214C-7.643,-3.154 -6.774,-2.698 -5.716,-2.698C-4.509,-2.698 -3.762,-3.348 -3.377,-3.975C-2.942,-4.768 -2.919,-5.537 -2.893,-7.224L-2.893,-12.338L0,-12.338Z" style="fill:rgb(29,29,27);fill-rule:nonzero;"/>
            </g>
            <g transform="matrix(1,0,0,1,501.574,405.537)">
                <path d="M0,-11.713L0,-9.999C0.366,-10.626 1.161,-12.048 3.856,-11.974L3.856,-9.013C3.234,-8.986 2.147,-8.964 1.257,-8.285C0.026,-7.346 0,-6.118 0,-4.12L0,0.335L-2.792,0.335L-2.792,-11.713L0,-11.713Z" style="fill:rgb(29,29,27);fill-rule:nonzero;"/>
            </g>
            <g transform="matrix(1,0,0,1,512.403,393.466)">
                <path d="M0,12.766C-3.759,12.766 -6.264,10.024 -6.264,6.34C-6.264,2.65 -3.711,0 -0.119,0C3.229,0 6.097,2.337 6.124,6.34C6.124,10.093 3.639,12.766 0,12.766M-0.146,2.603C-1.952,2.603 -3.253,4.05 -3.253,6.266C-3.253,8.746 -1.733,10.121 0,10.121C2.099,10.121 3.158,8.289 3.086,6.289C3.038,4.287 1.879,2.603 -0.146,2.603" style="fill:rgb(29,29,27);fill-rule:nonzero;"/>
            </g>
            <g transform="matrix(1,0,0,1,520.912,409.442)">
                <path d="M0,-15.618L2.862,-15.618L2.862,-14.507C3.323,-14.988 4.29,-15.974 6.169,-15.974C9.712,-15.974 11.637,-12.793 11.637,-9.471C11.637,-5.883 9.4,-3.21 6.169,-3.21C4.502,-3.21 3.469,-4.006 2.862,-4.556L2.862,0.356L0,0.356L0,-15.618ZM5.784,-5.928C7.182,-5.928 8.699,-6.89 8.699,-9.613C8.699,-12.624 6.601,-13.204 5.735,-13.204C4.41,-13.204 2.892,-12.239 2.845,-9.662C2.796,-7.18 4.168,-5.928 5.784,-5.928" style="fill:rgb(29,29,27);fill-rule:nonzero;"/>
            </g>
            <g transform="matrix(1,0,0,1,546.289,396.523)">
                <path d="M0,6.655C-1.493,8.653 -3.422,9.71 -5.88,9.71C-9.035,9.71 -12.073,7.71 -12.073,3.284C-12.073,-0.77 -9.475,-3.055 -6.074,-3.055C-2.893,-3.055 -1.566,-1.15 -1.325,-0.79C-0.336,0.607 -0.119,2.702 -0.096,3.907L-9.016,3.907C-8.676,5.81 -7.492,6.894 -5.592,6.894C-3.614,6.894 -2.816,5.739 -2.456,5.233L0,6.655ZM-3.276,1.787C-3.541,-0.092 -4.7,-0.741 -5.979,-0.741C-7.52,-0.741 -8.58,0.149 -8.916,1.787L-3.276,1.787Z" style="fill:rgb(29,29,27);fill-rule:nonzero;"/>
            </g>
            <g transform="matrix(1,0,0,1,548.123,402.258)">
                <path d="M0,-4.888C0.047,-5.492 0.095,-5.997 0.478,-6.697C1.639,-8.791 4.505,-8.791 5.276,-8.791C6.433,-8.791 7.832,-8.65 8.892,-8.021C10.313,-7.151 10.339,-6.019 10.339,-4.716L10.339,1.663C10.339,2.581 10.339,2.893 10.87,3.613L7.447,3.613C7.421,3.327 7.373,2.844 7.373,2.677C6.748,3.207 5.468,3.903 3.808,3.903C1.083,3.903 -0.555,2.219 -0.555,0.147C-0.555,-0.454 -0.412,-1.009 -0.172,-1.492C0.699,-3.226 2.556,-3.609 3.71,-3.828C6.194,-4.332 6.385,-4.381 7.447,-4.716C7.447,-5.321 7.401,-6.553 5.396,-6.553C4.195,-6.553 3.54,-6.164 3.253,-5.778C2.939,-5.395 2.962,-5.055 2.962,-4.716L0,-4.888ZM7.447,-2.38C6.867,-2.092 6.22,-1.874 4.917,-1.657C3.88,-1.515 2.503,-1.274 2.503,0.004C2.503,0.942 3.298,1.424 4.459,1.424C5.928,1.424 6.961,0.75 7.277,0.028C7.447,-0.336 7.447,-0.694 7.447,-1.056L7.447,-2.38Z" style="fill:rgb(29,29,27);fill-rule:nonzero;"/>
            </g>
            <g transform="matrix(1,0,0,1,561.519,405.516)">
                <path d="M0,-11.692L2.92,-11.692L2.92,-10.267C3.061,-10.482 3.352,-10.871 3.857,-11.206C4.583,-11.737 5.69,-12.048 6.63,-12.048C8.002,-12.048 9.186,-11.425 9.791,-10.605C10.533,-9.591 10.533,-8.289 10.533,-6.724L10.533,0.356L7.667,0.356L7.667,-5.784C7.667,-6.675 7.667,-7.278 7.571,-7.616C7.305,-8.674 6.532,-9.23 5.596,-9.23C4.655,-9.23 3.786,-8.674 3.376,-7.88C2.92,-6.989 2.92,-5.76 2.92,-4.87L2.92,0.356L0,0.356L0,-11.692Z" style="fill:rgb(29,29,27);fill-rule:nonzero;"/>
            </g>
            <g transform="matrix(1,0,0,1,582.031,405.872)">
                <path d="M0,-17.011L5.423,-17.011C7.686,-16.986 9.207,-16.986 10.699,-15.781C11.76,-14.913 12.581,-13.564 12.581,-11.586C12.581,-8.33 10.191,-7.201 9.23,-6.911L13.015,0L9.375,0L6.001,-6.309L3.156,-6.309L3.156,0L0,0L0,-17.011ZM3.156,-14.262L3.156,-8.936L4.266,-8.936C5.352,-8.936 5.761,-8.959 6.36,-8.985C7.06,-9.008 9.351,-9.129 9.351,-11.611C9.351,-11.975 9.324,-13.227 8.002,-13.903C7.329,-14.238 6.505,-14.262 4.627,-14.262L3.156,-14.262Z" style="fill:rgb(29,29,27);fill-rule:nonzero;"/>
            </g>
            <g transform="matrix(1,0,0,1,608.544,396.523)">
                <path d="M0,6.655C-1.493,8.653 -3.425,9.71 -5.883,9.71C-9.039,9.71 -12.077,7.71 -12.077,3.284C-12.077,-0.77 -9.472,-3.055 -6.077,-3.055C-2.896,-3.055 -1.567,-1.15 -1.328,-0.79C-0.341,0.607 -0.12,2.702 -0.101,3.907L-9.015,3.907C-8.682,5.81 -7.496,6.894 -5.597,6.894C-3.617,6.894 -2.82,5.739 -2.457,5.233L0,6.655ZM-3.278,1.787C-3.543,-0.092 -4.701,-0.741 -5.98,-0.741C-7.521,-0.741 -8.58,0.149 -8.921,1.787L-3.278,1.787Z" style="fill:rgb(29,29,27);fill-rule:nonzero;"/>
            </g>
            <g transform="matrix(1,0,0,1,611.867,397.39)">
                <path d="M0,4.921C0.724,5.81 1.809,6.46 3.472,6.46C5.136,6.46 5.857,5.643 5.857,5.041C5.857,4.271 4.989,4.077 4.604,4.005C4.193,3.907 2.219,3.546 1.784,3.427C-1.083,2.75 -1.612,1.092 -1.612,0.003C-1.612,-2.043 0.243,-3.922 3.543,-3.922C5.375,-3.922 6.703,-3.344 7.521,-2.764C8.121,-2.38 8.506,-1.972 8.749,-1.684L6.703,0.222C6.365,-0.428 5.545,-1.608 3.424,-1.608C2.05,-1.608 1.423,-1.008 1.423,-0.379C1.423,0.487 2.318,0.728 3.857,0.994C6.365,1.451 7.061,1.572 7.833,2.174C8.581,2.75 9.065,3.715 9.065,4.729C9.065,6.605 7.376,8.843 3.64,8.843C1.493,8.843 -0.626,8.17 -2.144,6.701L0,4.921Z" style="fill:rgb(29,29,27);fill-rule:nonzero;"/>
            </g>
            <g transform="matrix(1,0,0,1,634.643,396.523)">
                <path d="M0,6.655C-1.497,8.653 -3.421,9.71 -5.882,9.71C-9.039,9.71 -12.07,7.71 -12.07,3.284C-12.07,-0.77 -9.47,-3.055 -6.074,-3.055C-2.89,-3.055 -1.566,-1.15 -1.328,-0.79C-0.337,0.607 -0.12,2.702 -0.094,3.907L-9.013,3.907C-8.674,5.81 -7.493,6.894 -5.588,6.894C-3.617,6.894 -2.816,5.739 -2.457,5.233L0,6.655ZM-3.275,1.787C-3.539,-0.092 -4.699,-0.741 -5.978,-0.741C-7.521,-0.741 -8.58,0.149 -8.919,1.787L-3.275,1.787Z" style="fill:rgb(29,29,27);fill-rule:nonzero;"/>
            </g>
            <g transform="matrix(1,0,0,1,636.477,402.258)">
                <path d="M0,-4.888C0.047,-5.492 0.099,-5.997 0.482,-6.697C1.641,-8.791 4.507,-8.791 5.279,-8.791C6.434,-8.791 7.832,-8.65 8.893,-8.021C10.316,-7.151 10.338,-6.019 10.338,-4.716L10.338,1.663C10.338,2.581 10.338,2.893 10.871,3.613L7.446,3.613C7.42,3.327 7.373,2.844 7.373,2.677C6.75,3.207 5.471,3.903 3.81,3.903C1.084,3.903 -0.556,2.219 -0.556,0.147C-0.556,-0.454 -0.411,-1.009 -0.17,-1.492C0.696,-3.226 2.556,-3.609 3.711,-3.828C6.194,-4.332 6.387,-4.381 7.446,-4.716C7.446,-5.321 7.399,-6.553 5.4,-6.553C4.193,-6.553 3.539,-6.164 3.253,-5.778C2.939,-5.395 2.963,-5.055 2.963,-4.716L0,-4.888ZM7.446,-2.38C6.868,-2.092 6.215,-1.874 4.916,-1.657C3.878,-1.515 2.506,-1.274 2.506,0.004C2.506,0.942 3.302,1.424 4.458,1.424C5.93,1.424 6.962,0.75 7.279,0.028C7.446,-0.336 7.446,-0.694 7.446,-1.056L7.446,-2.38Z" style="fill:rgb(29,29,27);fill-rule:nonzero;"/>
            </g>
            <g transform="matrix(1,0,0,1,652.695,405.537)">
                <path d="M0,-11.713L0,-9.999C0.358,-10.626 1.155,-12.048 3.855,-11.974L3.855,-9.013C3.234,-8.986 2.146,-8.964 1.252,-8.285C0.024,-7.346 0,-6.118 0,-4.12L0,0.335L-2.795,0.335L-2.795,-11.713L0,-11.713Z" style="fill:rgb(29,29,27);fill-rule:nonzero;"/>
            </g>
            <g transform="matrix(1,0,0,1,665.692,401.608)">
                <path d="M0,-3.515C-0.219,-4.311 -1.062,-5.561 -2.725,-5.561C-4.387,-5.561 -5.712,-4.238 -5.712,-1.828C-5.712,0.341 -4.579,1.929 -2.675,1.929C-0.841,1.929 -0.146,0.533 0.214,-0.432L2.696,0.871C1.761,3.47 -0.627,4.626 -2.725,4.626C-6.074,4.626 -8.7,2.049 -8.7,-1.754C-8.7,-5.443 -6.049,-8.141 -2.626,-8.141C0.406,-8.141 1.953,-6.117 2.577,-4.72L0,-3.515Z" style="fill:rgb(29,29,27);fill-rule:nonzero;"/>
            </g>
            <g transform="matrix(1,0,0,1,672.375,405.872)">
                <path d="M0,-17.011L0,-10.817C0.915,-11.729 2.167,-12.406 3.831,-12.406C5.322,-12.406 6.482,-11.827 7.13,-11.107C8.12,-10.046 8.141,-8.817 8.141,-7.443L8.141,0L5.298,0L5.298,-6.621C5.253,-7.707 5.253,-7.972 5.11,-8.33C5.01,-8.575 4.599,-9.658 3.01,-9.658C1.154,-9.658 0.282,-8.163 0.094,-7.464C0,-7.08 0,-6.887 0,-5.536L0,0L-2.896,0L-2.896,-17.011L0,-17.011Z" style="fill:rgb(29,29,27);fill-rule:nonzero;"/>
            </g>
            <g transform="matrix(1,0,0,1,704.765,393.61)">
                <path d="M0,7.517C-0.22,8.076 -0.627,9.06 -1.47,10.072C-2.677,11.468 -4.579,12.696 -7.351,12.696C-11.86,12.696 -15.306,9.398 -15.306,3.711C-15.306,-2.071 -11.57,-5.179 -7.232,-5.179C-1.931,-5.179 -0.677,-1.109 -0.29,0.075L-3.473,0.917C-3.52,0.601 -3.662,-0.12 -4.096,-0.772C-4.458,-1.3 -5.4,-2.263 -7.158,-2.263C-9.929,-2.263 -11.86,0.027 -11.86,3.663C-11.86,7.546 -9.81,9.688 -7.134,9.688C-5.541,9.688 -4.579,8.917 -3.882,8.024C-3.327,7.28 -3.106,6.652 -2.99,6.268L0,7.517Z" style="fill:rgb(29,29,27);fill-rule:nonzero;"/>
            </g>
            <g transform="matrix(1,0,0,1,712.258,393.466)">
                <path d="M0,12.766C-3.758,12.766 -6.268,10.024 -6.268,6.34C-6.268,2.65 -3.709,0 -0.118,0C3.23,0 6.098,2.337 6.123,6.34C6.123,10.093 3.644,12.766 0,12.766M-0.143,2.603C-1.948,2.603 -3.255,4.05 -3.255,6.266C-3.255,8.746 -1.732,10.121 0,10.121C2.099,10.121 3.157,8.289 3.088,6.289C3.037,4.287 1.879,2.603 -0.143,2.603" style="fill:rgb(29,29,27);fill-rule:nonzero;"/>
            </g>
            <g transform="matrix(1,0,0,1,731.66,406.162)">
                <path d="M0,-12.338L0,-0.29L-2.889,-0.29L-2.889,-1.518C-3.4,-1.035 -4.575,0 -6.795,0C-8.771,0 -9.709,-0.842 -10.146,-1.397C-10.965,-2.434 -10.965,-3.566 -10.965,-5.369L-10.965,-12.338L-8.047,-12.338L-8.047,-5.419C-8.047,-4.938 -8.047,-4.528 -7.953,-4.214C-7.639,-3.154 -6.771,-2.698 -5.706,-2.698C-4.505,-2.698 -3.758,-3.348 -3.374,-3.975C-2.941,-4.768 -2.916,-5.537 -2.889,-7.224L-2.889,-12.338L0,-12.338Z" style="fill:rgb(29,29,27);fill-rule:nonzero;"/>
            </g>
            <g transform="matrix(1,0,0,1,734.769,405.516)">
                <path d="M0,-11.692L2.916,-11.692L2.916,-10.267C3.062,-10.482 3.351,-10.871 3.856,-11.206C4.581,-11.737 5.688,-12.048 6.627,-12.048C8.002,-12.048 9.187,-11.425 9.787,-10.605C10.532,-9.591 10.532,-8.289 10.532,-6.724L10.532,0.356L7.665,0.356L7.665,-5.784C7.665,-6.675 7.665,-7.278 7.565,-7.616C7.299,-8.674 6.531,-9.23 5.592,-9.23C4.655,-9.23 3.782,-8.674 3.374,-7.88C2.916,-6.989 2.916,-5.76 2.916,-4.87L2.916,0.356L0,0.356L0,-11.692Z" style="fill:rgb(29,29,27);fill-rule:nonzero;"/>
            </g>
            <g transform="matrix(1,0,0,1,756.076,401.608)">
                <path d="M0,-3.515C-0.219,-4.311 -1.06,-5.561 -2.725,-5.561C-4.385,-5.561 -5.715,-4.238 -5.715,-1.828C-5.715,0.341 -4.581,1.929 -2.675,1.929C-0.842,1.929 -0.145,0.533 0.214,-0.432L2.698,0.871C1.76,3.47 -0.627,4.626 -2.725,4.626C-6.076,4.626 -8.7,2.049 -8.7,-1.754C-8.7,-5.443 -6.049,-8.141 -2.629,-8.141C0.408,-8.141 1.952,-6.117 2.575,-4.72L0,-3.515Z" style="fill:rgb(29,29,27);fill-rule:nonzero;"/>
            </g>
            <g transform="matrix(1,0,0,1,0,199.626)">
                <path d="M763.282,192.324L760.412,192.324L760.412,189.408L763.282,189.408L763.282,192.324ZM760.412,194.199L763.282,194.199L763.282,206.246L760.412,206.246L760.412,194.199Z" style="fill:rgb(29,29,27);fill-rule:nonzero;"/>
            </g>
            <g transform="matrix(1,0,0,1,0,199.452)">
                <rect x="766.437" y="189.409" width="2.919" height="17.01" style="fill:rgb(29,29,27);"/>
            </g>
            <g transform="matrix(1,0,0,1,470.127,427.872)">
                <path d="M0,11.771L0,0L7.307,0L7.307,1.125L1.257,1.125L1.257,5.274L6.414,5.274L6.414,6.4L1.257,6.4L1.257,10.648L7.307,10.648L7.307,11.771L0,11.771Z" style="fill:rgb(29,29,27);fill-rule:nonzero;"/>
            </g>
            <g transform="matrix(1,0,0,1,482.387,431.41)">
                <path d="M0,8.333C-1.372,8.333 -2.446,8.018 -3.339,7.157L-2.546,6.363C-1.9,7.042 -1.024,7.308 -0.016,7.308C1.322,7.308 2.148,6.827 2.148,5.869C2.148,5.158 1.736,4.761 0.794,4.679L-0.545,4.562C-2.132,4.43 -2.976,3.719 -2.976,2.382C-2.976,0.893 -1.72,0 0.017,0C1.174,0 2.216,0.281 2.942,0.876L2.166,1.653C1.588,1.207 0.843,1.009 0,1.009C-1.19,1.009 -1.818,1.521 -1.818,2.349C-1.818,3.043 -1.421,3.455 -0.396,3.537L0.909,3.653C2.33,3.786 3.306,4.332 3.306,5.851C3.306,7.422 1.968,8.333 0,8.333" style="fill:rgb(29,29,27);fill-rule:nonzero;"/>
            </g>
            <g transform="matrix(1,0,0,1,490.136,429.015)">
                <path d="M0,10.628C-1.389,10.628 -2.083,9.651 -2.083,8.447L-2.083,3.453L-3.107,3.453L-3.107,2.544L-2.083,2.544L-2.083,0L-0.892,0L-0.892,2.544L0.843,2.544L0.843,3.453L-0.892,3.453L-0.892,8.412C-0.892,9.158 -0.545,9.603 0.215,9.603L0.843,9.603L0.843,10.628L0,10.628Z" style="fill:rgb(29,29,27);fill-rule:nonzero;"/>
            </g>
            <g transform="matrix(1,0,0,1,497.818,431.51)">
                <path d="M0,8.133L0,7.357C-0.661,8.017 -1.256,8.233 -2.348,8.233C-3.472,8.233 -4.133,8.017 -4.645,7.487C-5.042,7.091 -5.256,6.481 -5.256,5.835C-5.256,4.414 -4.265,3.488 -2.447,3.488L0,3.488L0,2.71C0,1.52 -0.596,0.926 -2.082,0.926C-3.124,0.926 -3.653,1.175 -4.133,1.851L-4.943,1.107C-4.216,0.166 -3.389,-0.1 -2.066,-0.1C0.116,-0.1 1.19,0.844 1.19,2.612L1.19,8.133L0,8.133ZM0,4.381L-2.281,4.381C-3.505,4.381 -4.1,4.878 -4.1,5.819C-4.1,6.761 -3.521,7.208 -2.231,7.208C-1.537,7.208 -0.925,7.156 -0.413,6.663C-0.132,6.397 0,5.935 0,5.257L0,4.381Z" style="fill:rgb(29,29,27);fill-rule:nonzero;"/>
            </g>
            <g transform="matrix(1,0,0,1,507.368,428.584)">
                <path d="M0,10.448C-0.43,10.877 -1.157,11.159 -1.984,11.159C-2.877,11.159 -3.62,10.941 -4.282,10.082L-4.282,11.058L-5.471,11.058L-5.471,-0.711L-4.282,-0.711L-4.282,3.867C-3.62,3.023 -2.877,2.826 -1.984,2.826C-1.157,2.826 -0.43,3.107 0,3.537C0.826,4.364 0.991,5.719 0.991,6.992C0.991,8.264 0.826,9.621 0,10.448M-2.231,3.884C-4,3.884 -4.282,5.406 -4.282,6.992C-4.282,8.579 -4,10.1 -2.231,10.1C-0.463,10.1 -0.198,8.579 -0.198,6.992C-0.198,5.406 -0.463,3.884 -2.231,3.884" style="fill:rgb(29,29,27);fill-rule:nonzero;"/>
            </g>
            <g transform="matrix(1,0,0,1,512.935,427.872)">
                <path d="M0,11.771C-1.421,11.771 -2.066,10.846 -2.066,9.606L-2.066,0L-0.876,0L-0.876,9.555C-0.876,10.349 -0.612,10.746 0.214,10.746L0.859,10.746L0.859,11.771L0,11.771Z" style="fill:rgb(29,29,27);fill-rule:nonzero;"/>
            </g>
            <g transform="matrix(1,0,0,1,0,272.219)">
                <path d="M515.742,155.637L517.081,155.637L517.081,156.977L515.742,156.977L515.742,155.637ZM515.808,159.291L516.998,159.291L516.998,167.424L515.808,167.424L515.808,159.291Z" style="fill:rgb(29,29,27);fill-rule:nonzero;"/>
            </g>
            <g transform="matrix(1,0,0,1,522.55,431.41)">
                <path d="M0,8.333C-1.372,8.333 -2.447,8.018 -3.339,7.157L-2.546,6.363C-1.901,7.042 -1.025,7.308 -0.016,7.308C1.322,7.308 2.148,6.827 2.148,5.869C2.148,5.158 1.736,4.761 0.793,4.679L-0.545,4.562C-2.132,4.43 -2.976,3.719 -2.976,2.382C-2.976,0.893 -1.72,0 0.016,0C1.173,0 2.215,0.281 2.942,0.876L2.166,1.653C1.587,1.207 0.842,1.009 0,1.009C-1.19,1.009 -1.819,1.521 -1.819,2.349C-1.819,3.043 -1.421,3.455 -0.396,3.537L0.909,3.653C2.33,3.786 3.305,4.332 3.305,5.851C3.305,7.422 1.967,8.333 0,8.333" style="fill:rgb(29,29,27);fill-rule:nonzero;"/>
            </g>
            <g transform="matrix(1,0,0,1,533.39,427.872)">
                <path d="M0,11.771L0,6.747C0,5.323 -0.761,4.596 -1.984,4.596C-3.206,4.596 -4.017,5.342 -4.017,6.747L-4.017,11.771L-5.207,11.771L-5.207,0L-4.017,0L-4.017,4.531C-3.422,3.853 -2.646,3.538 -1.736,3.538C0.099,3.538 1.189,4.713 1.189,6.547L1.189,11.771L0,11.771Z" style="fill:rgb(29,29,27);fill-rule:nonzero;"/>
            </g>
            <g transform="matrix(1,0,0,1,538.211,435.264)">
                <path d="M0,0.627C0,2.412 0.844,3.438 2.398,3.438C3.34,3.438 3.885,3.156 4.53,2.51L5.341,3.221C4.515,4.048 3.754,4.48 2.364,4.48C0.217,4.48 -1.189,3.189 -1.189,0.313C-1.189,-2.315 0.083,-3.853 2.15,-3.853C4.248,-3.853 5.489,-2.332 5.489,0.082L5.489,0.627L0,0.627ZM4.051,-1.622C3.736,-2.365 3.009,-2.845 2.15,-2.845C1.29,-2.845 0.563,-2.365 0.248,-1.622C0.067,-1.176 0.034,-0.927 0,-0.266L4.299,-0.266C4.267,-0.927 4.232,-1.176 4.051,-1.622" style="fill:rgb(29,29,27);fill-rule:nonzero;"/>
            </g>
            <g transform="matrix(1,0,0,1,551.084,427.972)">
                <path d="M0,11.671L0,10.694C-0.661,11.555 -1.421,11.771 -2.313,11.771C-3.141,11.771 -3.867,11.489 -4.298,11.06C-5.124,10.233 -5.29,8.877 -5.29,7.605C-5.29,6.332 -5.124,4.976 -4.298,4.149C-3.867,3.72 -3.141,3.438 -2.313,3.438C-1.421,3.438 -0.678,3.636 -0.016,4.48L-0.016,-0.1L1.174,-0.1L1.174,11.671L0,11.671ZM-2.05,4.496C-3.817,4.496 -4.099,6.018 -4.099,7.605C-4.099,9.192 -3.817,10.713 -2.05,10.713C-0.28,10.713 -0.016,9.192 -0.016,7.605C-0.016,6.018 -0.28,4.496 -2.05,4.496" style="fill:rgb(29,29,27);fill-rule:nonzero;"/>
            </g>
            <g transform="matrix(1,0,0,1,564.814,428.584)">
                <path d="M0,10.448C-0.431,10.877 -1.157,11.159 -1.984,11.159C-2.877,11.159 -3.62,10.941 -4.282,10.082L-4.282,11.058L-5.472,11.058L-5.472,-0.711L-4.282,-0.711L-4.282,3.867C-3.62,3.023 -2.877,2.826 -1.984,2.826C-1.157,2.826 -0.431,3.107 0,3.537C0.825,4.364 0.991,5.719 0.991,6.992C0.991,8.264 0.825,9.621 0,10.448M-2.231,3.884C-4,3.884 -4.282,5.406 -4.282,6.992C-4.282,8.579 -4,10.1 -2.231,10.1C-0.464,10.1 -0.198,8.579 -0.198,6.992C-0.198,5.406 -0.464,3.884 -2.231,3.884" style="fill:rgb(29,29,27);fill-rule:nonzero;"/>
            </g>
            <g transform="matrix(1,0,0,1,570.364,433.03)">
                <path d="M0,8.579C-0.165,9.026 -0.348,9.323 -0.579,9.539C-1.009,9.952 -1.587,10.1 -2.166,10.1L-2.679,10.1L-2.679,9.043L-2.314,9.043C-1.488,9.043 -1.24,8.777 -0.976,8.034L-0.397,6.447L-3.323,-1.521L-2.033,-1.521L0.198,5.009L2.413,-1.521L3.703,-1.521L0,8.579Z" style="fill:rgb(29,29,27);fill-rule:nonzero;"/>
            </g>
            <g transform="matrix(1,0,0,1,582.127,429.015)">
                <path d="M0,10.628C-1.389,10.628 -2.083,9.651 -2.083,8.447L-2.083,3.453L-3.108,3.453L-3.108,2.544L-2.083,2.544L-2.083,0L-0.893,0L-0.893,2.544L0.842,2.544L0.842,3.453L-0.893,3.453L-0.893,8.412C-0.893,9.158 -0.545,9.603 0.214,9.603L0.842,9.603L0.842,10.628L0,10.628Z" style="fill:rgb(29,29,27);fill-rule:nonzero;"/>
            </g>
            <g transform="matrix(1,0,0,1,590.537,427.872)">
                <path d="M0,11.771L0,6.747C0,5.323 -0.761,4.596 -1.984,4.596C-3.206,4.596 -4.017,5.342 -4.017,6.747L-4.017,11.771L-5.207,11.771L-5.207,0L-4.017,0L-4.017,4.531C-3.422,3.853 -2.645,3.538 -1.736,3.538C0.099,3.538 1.19,4.713 1.19,6.547L1.19,11.771L0,11.771Z" style="fill:rgb(29,29,27);fill-rule:nonzero;"/>
            </g>
            <g transform="matrix(1,0,0,1,595.359,435.264)">
                <path d="M0,0.627C0,2.412 0.843,3.438 2.396,3.438C3.339,3.438 3.885,3.156 4.53,2.51L5.34,3.221C4.513,4.048 3.753,4.48 2.364,4.48C0.215,4.48 -1.19,3.189 -1.19,0.313C-1.19,-2.315 0.083,-3.853 2.148,-3.853C4.249,-3.853 5.489,-2.332 5.489,0.082L5.489,0.627L0,0.627ZM4.05,-1.622C3.736,-2.365 3.008,-2.845 2.148,-2.845C1.29,-2.845 0.562,-2.365 0.248,-1.622C0.066,-1.176 0.034,-0.927 0,-0.266L4.298,-0.266C4.266,-0.927 4.232,-1.176 4.05,-1.622" style="fill:rgb(29,29,27);fill-rule:nonzero;"/>
            </g>
            <g transform="matrix(1,0,0,1,607.701,427.872)">
                <path d="M0,11.771L0,0L7.306,0L7.306,1.125L1.257,1.125L1.257,5.274L6.414,5.274L6.414,6.4L1.257,6.4L1.257,10.648L7.306,10.648L7.306,11.771L0,11.771Z" style="fill:rgb(29,29,27);fill-rule:nonzero;"/>
            </g>
            <g transform="matrix(1,0,0,1,622.54,431.61)">
                <path d="M0,8.033L0,7.124C-0.578,7.786 -1.39,8.133 -2.298,8.133C-3.174,8.133 -3.901,7.868 -4.397,7.371C-4.976,6.81 -5.224,6.034 -5.224,5.09L-5.224,-0.1L-4.034,-0.1L-4.034,4.908C-4.034,6.346 -3.273,7.075 -2.05,7.075C-0.826,7.075 -0.017,6.33 -0.017,4.908L-0.017,-0.1L1.174,-0.1L1.174,8.033L0,8.033Z" style="fill:rgb(29,29,27);fill-rule:nonzero;"/>
            </g>
            <g transform="matrix(1,0,0,1,631.231,437.989)">
                <path d="M0,-4.924C-0.445,-5.371 -0.776,-5.521 -1.405,-5.521C-2.595,-5.521 -3.356,-4.577 -3.356,-3.337L-3.356,1.654L-4.547,1.654L-4.547,-6.479L-3.356,-6.479L-3.356,-5.486C-2.908,-6.164 -2.017,-6.578 -1.074,-6.578C-0.299,-6.578 0.298,-6.398 0.875,-5.818L0,-4.924Z" style="fill:rgb(29,29,27);fill-rule:nonzero;"/>
            </g>
            <g transform="matrix(1,0,0,1,638.298,432.336)">
                <path d="M0,6.479C-0.562,7.041 -1.338,7.406 -2.329,7.406C-3.322,7.406 -4.099,7.041 -4.661,6.479C-5.487,5.638 -5.652,4.496 -5.652,3.24C-5.652,1.984 -5.487,0.842 -4.661,0C-4.099,-0.563 -3.322,-0.927 -2.329,-0.927C-1.338,-0.927 -0.562,-0.563 0,0C0.827,0.842 0.991,1.984 0.991,3.24C0.991,4.496 0.827,5.638 0,6.479M-0.843,0.728C-1.223,0.348 -1.752,0.132 -2.329,0.132C-2.909,0.132 -3.421,0.348 -3.801,0.728C-4.396,1.322 -4.462,2.331 -4.462,3.24C-4.462,4.149 -4.396,5.158 -3.801,5.752C-3.421,6.132 -2.909,6.348 -2.329,6.348C-1.752,6.348 -1.223,6.132 -0.843,5.752C-0.247,5.158 -0.197,4.149 -0.197,3.24C-0.197,2.331 -0.247,1.322 -0.843,0.728" style="fill:rgb(29,29,27);fill-rule:nonzero;"/>
            </g>
            <g transform="matrix(1,0,0,1,647.303,435.658)">
                <path d="M0,3.374C-0.429,3.803 -1.155,4.085 -1.984,4.085C-2.876,4.085 -3.619,3.867 -4.28,3.026L-4.28,7.622L-5.471,7.622L-5.471,-4.148L-4.28,-4.148L-4.28,-3.19C-3.619,-4.051 -2.876,-4.248 -1.984,-4.248C-1.155,-4.248 -0.429,-3.967 0,-3.537C0.825,-2.71 0.993,-1.355 0.993,-0.082C0.993,1.19 0.825,2.547 0,3.374M-2.229,-3.19C-3.999,-3.19 -4.28,-1.668 -4.28,-0.082C-4.28,1.505 -3.999,3.026 -2.229,3.026C-0.461,3.026 -0.197,1.505 -0.197,-0.082C-0.197,-1.668 -0.461,-3.19 -2.229,-3.19" style="fill:rgb(29,29,27);fill-rule:nonzero;"/>
            </g>
            <g transform="matrix(1,0,0,1,651.58,435.264)">
                <path d="M0,0.627C0,2.412 0.844,3.438 2.397,3.438C3.339,3.438 3.885,3.156 4.529,2.51L5.339,3.221C4.514,4.048 3.754,4.48 2.364,4.48C0.216,4.48 -1.189,3.189 -1.189,0.313C-1.189,-2.315 0.082,-3.853 2.148,-3.853C4.248,-3.853 5.489,-2.332 5.489,0.082L5.489,0.627L0,0.627ZM4.05,-1.622C3.736,-2.365 3.008,-2.845 2.148,-2.845C1.291,-2.845 0.563,-2.365 0.249,-1.622C0.064,-1.176 0.032,-0.927 0,-0.266L4.297,-0.266C4.264,-0.927 4.231,-1.176 4.05,-1.622" style="fill:rgb(29,29,27);fill-rule:nonzero;"/>
            </g>
            <g transform="matrix(1,0,0,1,664.205,431.51)">
                <path d="M0,8.133L0,7.357C-0.662,8.017 -1.258,8.233 -2.349,8.233C-3.472,8.233 -4.134,8.017 -4.646,7.487C-5.042,7.091 -5.257,6.481 -5.257,5.835C-5.257,4.414 -4.264,3.488 -2.446,3.488L0,3.488L0,2.71C0,1.52 -0.596,0.926 -2.083,0.926C-3.125,0.926 -3.653,1.175 -4.134,1.851L-4.941,1.107C-4.215,0.166 -3.39,-0.1 -2.066,-0.1C0.114,-0.1 1.189,0.844 1.189,2.612L1.189,8.133L0,8.133ZM0,4.381L-2.283,4.381C-3.504,4.381 -4.101,4.878 -4.101,5.819C-4.101,6.761 -3.521,7.208 -2.231,7.208C-1.538,7.208 -0.927,7.156 -0.414,6.663C-0.133,6.397 0,5.935 0,5.257L0,4.381Z" style="fill:rgb(29,29,27);fill-rule:nonzero;"/>
            </g>
            <g transform="matrix(1,0,0,1,673.49,431.41)">
                <path d="M0,8.233L0,3.225C0,1.785 -0.776,1.058 -2.001,1.058C-3.223,1.058 -4.018,1.804 -4.018,3.225L-4.018,8.233L-5.208,8.233L-5.208,0.1L-4.018,0.1L-4.018,0.993C-3.439,0.331 -2.646,0 -1.736,0C-0.86,0 -0.149,0.266 0.347,0.762C0.925,1.324 1.188,2.084 1.188,3.025L1.188,8.233L0,8.233Z" style="fill:rgb(29,29,27);fill-rule:nonzero;"/>
            </g>
            <g transform="matrix(1,0,0,1,685.566,427.774)">
                <path d="M0,11.969C-1.158,11.969 -2.216,11.537 -3.008,10.745C-4.115,9.636 -4.115,8.481 -4.115,5.985C-4.115,3.487 -4.115,2.33 -3.008,1.224C-2.216,0.43 -1.158,0 0,0C2.116,0 3.686,1.288 4.083,3.504L2.794,3.504C2.479,2.066 1.473,1.123 0,1.123C-0.778,1.123 -1.521,1.421 -2.032,1.95C-2.778,2.71 -2.859,3.522 -2.859,5.985C-2.859,8.448 -2.778,9.256 -2.032,10.018C-1.521,10.544 -0.778,10.844 0,10.844C1.473,10.844 2.512,9.902 2.827,8.463L4.083,8.463C3.703,10.678 2.099,11.969 0,11.969" style="fill:rgb(29,29,27);fill-rule:nonzero;"/>
            </g>
            <g transform="matrix(1,0,0,1,697.431,432.336)">
                <path d="M0,6.479C-0.564,7.041 -1.34,7.406 -2.333,7.406C-3.325,7.406 -4.102,7.041 -4.663,6.479C-5.49,5.638 -5.653,4.496 -5.653,3.24C-5.653,1.984 -5.49,0.842 -4.663,0C-4.102,-0.563 -3.325,-0.927 -2.333,-0.927C-1.34,-0.927 -0.564,-0.563 0,0C0.825,0.842 0.99,1.984 0.99,3.24C0.99,4.496 0.825,5.638 0,6.479M-0.845,0.728C-1.227,0.348 -1.752,0.132 -2.333,0.132C-2.91,0.132 -3.423,0.348 -3.804,0.728C-4.399,1.322 -4.465,2.331 -4.465,3.24C-4.465,4.149 -4.399,5.158 -3.804,5.752C-3.423,6.132 -2.91,6.348 -2.333,6.348C-1.752,6.348 -1.227,6.132 -0.845,5.752C-0.249,5.158 -0.2,4.149 -0.2,3.24C-0.2,2.331 -0.249,1.322 -0.845,0.728" style="fill:rgb(29,29,27);fill-rule:nonzero;"/>
            </g>
            <g transform="matrix(1,0,0,1,711.408,431.41)">
                <path d="M0,8.233L0,3.225C0,1.785 -0.775,1.058 -1.997,1.058C-3.189,1.058 -4.032,1.804 -4.032,3.092L-4.032,8.233L-5.222,8.233L-5.222,3.225C-5.222,1.785 -6.001,1.058 -7.222,1.058C-8.445,1.058 -9.256,1.804 -9.256,3.225L-9.256,8.233L-10.445,8.233L-10.445,0.1L-9.256,0.1L-9.256,0.993C-8.676,0.331 -7.867,0 -6.958,0C-5.833,0 -4.959,0.463 -4.461,1.356C-3.834,0.463 -2.925,0 -1.785,0C-0.907,0 -0.18,0.282 0.314,0.762C0.895,1.324 1.193,2.084 1.193,3.025L1.193,8.233L0,8.233Z" style="fill:rgb(29,29,27);fill-rule:nonzero;"/>
            </g>
            <g transform="matrix(1,0,0,1,725.932,431.41)">
                <path d="M0,8.233L0,3.225C0,1.785 -0.776,1.058 -2,1.058C-3.19,1.058 -4.034,1.804 -4.034,3.092L-4.034,8.233L-5.223,8.233L-5.223,3.225C-5.223,1.785 -6,1.058 -7.225,1.058C-8.445,1.058 -9.259,1.804 -9.259,3.225L-9.259,8.233L-10.447,8.233L-10.447,0.1L-9.259,0.1L-9.259,0.993C-8.679,0.331 -7.867,0 -6.958,0C-5.835,0 -4.959,0.463 -4.463,1.356C-3.836,0.463 -2.926,0 -1.785,0C-0.909,0 -0.183,0.282 0.314,0.762C0.892,1.324 1.19,2.084 1.19,3.025L1.19,8.233L0,8.233Z" style="fill:rgb(29,29,27);fill-rule:nonzero;"/>
            </g>
            <g transform="matrix(1,0,0,1,0,272.219)">
                <path d="M729.94,155.637L731.28,155.637L731.28,156.977L729.94,156.977L729.94,155.637ZM730.006,159.291L731.197,159.291L731.197,167.424L730.006,167.424L730.006,159.291Z" style="fill:rgb(29,29,27);fill-rule:nonzero;"/>
            </g>
            <g transform="matrix(1,0,0,1,736.75,431.41)">
                <path d="M0,8.333C-1.372,8.333 -2.447,8.018 -3.34,7.157L-2.546,6.363C-1.901,7.042 -1.025,7.308 -0.017,7.308C1.321,7.308 2.148,6.827 2.148,5.869C2.148,5.158 1.735,4.761 0.791,4.679L-0.546,4.562C-2.133,4.43 -2.977,3.719 -2.977,2.382C-2.977,0.893 -1.72,0 0.017,0C1.174,0 2.216,0.281 2.942,0.876L2.164,1.653C1.587,1.207 0.844,1.009 0,1.009C-1.191,1.009 -1.818,1.521 -1.818,2.349C-1.818,3.043 -1.422,3.455 -0.396,3.537L0.908,3.653C2.329,3.786 3.307,4.332 3.307,5.851C3.307,7.422 1.967,8.333 0,8.333" style="fill:rgb(29,29,27);fill-rule:nonzero;"/>
            </g>
            <g transform="matrix(1,0,0,1,744.678,431.41)">
                <path d="M0,8.333C-1.372,8.333 -2.447,8.018 -3.339,7.157L-2.545,6.363C-1.9,7.042 -1.024,7.308 -0.016,7.308C1.321,7.308 2.148,6.827 2.148,5.869C2.148,5.158 1.736,4.761 0.792,4.679L-0.545,4.562C-2.132,4.43 -2.976,3.719 -2.976,2.382C-2.976,0.893 -1.72,0 0.017,0C1.174,0 2.216,0.281 2.943,0.876L2.165,1.653C1.587,1.207 0.844,1.009 0,1.009C-1.19,1.009 -1.817,1.521 -1.817,2.349C-1.817,3.043 -1.421,3.455 -0.396,3.537L0.909,3.653C2.33,3.786 3.307,4.332 3.307,5.851C3.307,7.422 1.967,8.333 0,8.333" style="fill:rgb(29,29,27);fill-rule:nonzero;"/>
            </g>
            <g transform="matrix(1,0,0,1,0,272.219)">
                <path d="M750.243,155.637L751.583,155.637L751.583,156.977L750.243,156.977L750.243,155.637ZM750.309,159.291L751.5,159.291L751.5,167.424L750.309,167.424L750.309,159.291Z" style="fill:rgb(29,29,27);fill-rule:nonzero;"/>
            </g>
            <g transform="matrix(1,0,0,1,759.714,432.336)">
                <path d="M0,6.479C-0.562,7.041 -1.34,7.406 -2.33,7.406C-3.323,7.406 -4.1,7.041 -4.661,6.479C-5.488,5.638 -5.653,4.496 -5.653,3.24C-5.653,1.984 -5.488,0.842 -4.661,0C-4.1,-0.563 -3.323,-0.927 -2.33,-0.927C-1.34,-0.927 -0.562,-0.563 0,0C0.827,0.842 0.993,1.984 0.993,3.24C0.993,4.496 0.827,5.638 0,6.479M-0.843,0.728C-1.224,0.348 -1.752,0.132 -2.33,0.132C-2.908,0.132 -3.421,0.348 -3.802,0.728C-4.397,1.322 -4.463,2.331 -4.463,3.24C-4.463,4.149 -4.397,5.158 -3.802,5.752C-3.421,6.132 -2.908,6.348 -2.33,6.348C-1.752,6.348 -1.224,6.132 -0.843,5.752C-0.247,5.158 -0.198,4.149 -0.198,3.24C-0.198,2.331 -0.247,1.322 -0.843,0.728" style="fill:rgb(29,29,27);fill-rule:nonzero;"/>
            </g>
            <g transform="matrix(1,0,0,1,768.453,431.41)">
                <path d="M0,8.233L0,3.225C0,1.785 -0.776,1.058 -1.999,1.058C-3.224,1.058 -4.018,1.804 -4.018,3.225L-4.018,8.233L-5.208,8.233L-5.208,0.1L-4.018,0.1L-4.018,0.993C-3.439,0.331 -2.646,0 -1.736,0C-0.86,0 -0.149,0.266 0.347,0.762C0.925,1.324 1.19,2.084 1.19,3.025L1.19,8.233L0,8.233Z" style="fill:rgb(29,29,27);fill-rule:nonzero;"/>
            </g>
        </g>
    </g>
    <defs>
        <linearGradient id="_Linear2" x1="0" y1="0" x2="1" y2="0" gradientUnits="userSpaceOnUse" gradientTransform="matrix(1,0,0,-1,0,-3.72522e-07)"><stop offset="0" style="stop-color:rgb(234,91,11);stop-opacity:1"/><stop offset="1" style="stop-color:white;stop-opacity:1"/></linearGradient>
    </defs>
</svg>
