<?xml version="1.0" encoding="UTF-8" standalone="no"?>
<!DOCTYPE svg PUBLIC "-//W3C//DTD SVG 1.1//EN" "http://www.w3.org/Graphics/SVG/1.1/DTD/svg11.dtd">
<svg width="100%" height="100%" viewBox="0 0 1000 720" version="1.1" xmlns="http://www.w3.org/2000/svg" xmlns:xlink="http://www.w3.org/1999/xlink" xml:space="preserve" xmlns:serif="http://www.serif.com/" style="fill-rule:evenodd;clip-rule:evenodd;stroke-linejoin:round;stroke-miterlimit:2;">
    <g transform="matrix(1,0,0,1,757,440)">
        <path d="M0,0C7.14,6.12 12.34,14.91 13.22,24.36C13.34,27.06 13.38,29.74 13.38,32.44C13.37,33.41 13.37,34.37 13.37,35.37C13.22,44.07 11.71,51.77 9,60L8.12,62.82C3.34,76.45 -7.32,87.58 -19.79,94.46C-25.03,96.97 -30.35,98.7 -36,100C-36.77,100.18 -37.55,100.36 -38.35,100.54C-47.54,102.38 -56.7,102.27 -66.04,102.21C-68.82,102.19 -71.61,102.19 -74.4,102.19C-76.19,102.18 -77.98,102.17 -79.77,102.17C-80.59,102.17 -81.42,102.17 -82.26,102.16C-86.94,102.13 -91.39,101.77 -96,101C-94.4,89.75 -92.34,78.58 -90.28,67.4L-88.54,57.89C-86.42,46.29 -84.14,34.73 -81.7,23.18C-80.24,16.21 -78.9,9.23 -77.75,2.19C-77.43,0.28 -77.12,-1.62 -76.8,-3.52C-76.67,-4.31 -76.54,-5.11 -76.4,-5.93C-76,-8 -76,-8 -75,-11C-50.75,-16.1 -19.85,-16.66 0,0ZM-54,7C-56.23,17.91 -58.31,28.85 -60.37,39.79C-60.97,43 -61.57,46.21 -62.17,49.41C-64.21,60.26 -66.28,71.1 -68,82C-66,83 -66,83 -62.84,83.17C-48.79,83.24 -36.46,81.31 -25.62,71.38C-16.57,61.48 -12.94,48.45 -12.62,35.31C-12.83,26.81 -14.11,19.83 -20.19,13.57C-28.97,5.93 -28.97,5.93 -54,7Z" style="fill:rgb(3,109,219);"/>
    </g>
    <g transform="matrix(1,0,0,1,821.25,426.75)">
        <path d="M0,0L3.49,-0.06C15.41,-0.12 28.71,1.81 37.86,10.18C44.3,17.23 45.24,23.08 44.99,32.52C44.38,42.06 40.75,47.79 33.75,54.25C29.33,57.72 25.46,59.82 19.75,60.25L19.75,62.25C20.36,62.51 20.96,62.76 21.58,63.03C25.77,65.39 28.02,69.86 29.4,74.38C29.84,76.6 30.16,78.81 30.44,81.06C30.55,81.87 30.67,82.68 30.78,83.52C31.71,90.33 32.45,97.17 33.1,104.02C33.47,107.84 33.99,111.47 34.75,115.25L8.75,115.25C8.51,112.8 8.27,110.36 8.02,107.84C7.77,105.45 7.51,103.07 7.26,100.68C7.09,99.03 6.92,97.38 6.76,95.73C6.53,93.35 6.27,90.97 6.02,88.59C5.95,87.86 5.88,87.13 5.81,86.38C5.22,81.14 3.67,77.66 0.75,73.25C-2.58,70.66 -6.39,70.85 -10.5,70.62C-11.76,70.55 -13.03,70.48 -14.33,70.4C-15.77,70.32 -15.77,70.32 -17.25,70.25C-17.29,70.85 -17.32,71.45 -17.36,72.07C-17.96,80.04 -19.33,87.81 -20.83,95.64C-21.26,97.84 -21.67,100.04 -22.08,102.24C-24.11,112.96 -24.11,112.96 -25.25,115.25L-49.25,115.25C-47.68,104.46 -45.69,93.77 -43.62,83.06L-42.57,77.56C-41.84,73.73 -41.1,69.91 -40.37,66.09C-39.26,60.29 -38.15,54.49 -37.05,48.69C-36.78,47.28 -36.78,47.28 -36.51,45.84C-35.82,42.21 -35.13,38.57 -34.44,34.93C-32.43,24.36 -30.38,13.8 -28.25,3.25C-18.71,0.45 -9.89,0.04 0,0ZM0.375,19C-7.115,19.09 -7.115,19.09 -8.705,26.89C-8.895,27.82 -9.075,28.72 -9.245,29.62C-10.685,36.81 -11.915,43.91 -12.245,51.25C-10.455,51.29 -8.655,51.32 -6.855,51.35C-5.725,51.36 -5.725,51.36 -4.625,51.38C0.595,51.5 4.855,51.35 9.755,49.25C14.955,45.98 18.005,42.21 19.755,36.25C20.525,31.78 20.145,28.88 17.685,24.94C11.955,19.7 7.995,19.08 0.375,19Z" style="fill:rgb(3,109,220);"/>
    </g>
    <g transform="matrix(1,0,0,1,562.375,463.688)">
        <path d="M0,0C6.69,5.52 10.99,12.85 11.84,21.55C12.35,32.02 12.16,41.67 7.62,51.31C7.26,52.11 6.9,52.9 6.53,53.72C0.79,65.07 -7.97,72.55 -19.75,77.12C-30.32,80.59 -45.08,81.82 -55.27,76.7C-64.18,70.82 -69.76,64.26 -72.06,53.7C-73.84,40.25 -71.78,26.81 -64.38,15.31C-49.02,-4.48 -22.87,-15.52 0,0ZM-21.375,12.313C-26.225,11.392 -30.115,11.752 -34.625,13.752C-40.745,19.452 -44.265,26.152 -46.675,34.123C-48.365,41.853 -48.775,49.822 -44.575,56.793C-41.825,60.293 -39.395,61.173 -35.065,61.753C-29.565,61.092 -25.525,59.602 -21.675,55.503C-14.405,45.533 -12.015,33.452 -13.375,21.313C-14.955,17.252 -17.495,14.322 -21.375,12.313Z" style="fill:rgb(4,109,219);"/>
    </g>
    <g transform="matrix(1,0,0,1,279,428)">
        <path d="M0,0L67,0C65.86,11.35 65.86,11.35 65,15.56C64.83,16.39 64.67,17.22 64.5,18.07C64,20 64,20 63,21C61.65,21.09 60.29,21.12 58.94,21.11L56.33,21.11C55.4,21.11 54.46,21.1 53.5,21.1C52.54,21.1 51.59,21.09 50.61,21.09C47.55,21.09 44.49,21.08 41.44,21.06C39.37,21.06 37.3,21.05 35.24,21.05C30.16,21.04 25.08,21.02 20,21C19.67,23.64 19.34,26.28 19,29C18.01,34.28 17.02,39.56 16,45L56,45C55,55 55,55 53,65L12,65C11.34,68.96 10.68,72.92 10,77C9.01,82.28 8.02,87.56 7,93L52,93C51.39,97.84 50.78,102.63 50,107.44C49.83,108.47 49.67,109.5 49.5,110.56C49,113 49,113 48,114C45.82,114.09 43.64,114.12 41.46,114.11L39.39,114.11C37.12,114.11 34.86,114.11 32.59,114.1C31.02,114.1 29.45,114.09 27.89,114.09C23.75,114.09 19.62,114.08 15.48,114.07C11.27,114.06 7.05,114.05 2.83,114.05C-5.44,114.04 -13.72,114.02 -22,114C-20.79,106.6 -19.51,99.21 -18.08,91.85C-17.9,90.92 -17.73,89.99 -17.54,89.04C-17.16,87.07 -16.78,85.09 -16.4,83.12C-15.39,77.89 -14.39,72.67 -13.39,67.44C-13.18,66.39 -12.98,65.34 -12.77,64.25C-10.87,54.36 -9,44.46 -7.12,34.56C-6.99,33.83 -6.85,33.09 -6.7,32.34C-6.44,30.91 -6.17,29.49 -5.9,28.07C-5.64,26.71 -5.39,25.36 -5.13,24C-4.47,20.5 -3.81,17 -3.17,13.49C-2.97,12.38 -2.97,12.38 -2.76,11.26C-2.51,9.84 -2.25,8.43 -2,7.02C-1.11,2.22 -1.11,2.22 0,0Z" style="fill:rgb(1,109,220);fill-rule:nonzero;"/>
    </g>
    <g transform="matrix(1,0,0,1,836,177)">
        <path d="M0,0L1,0C2.14,6.37 3.28,12.74 4.42,19.12C4.81,21.29 5.19,23.45 5.58,25.62C6.14,28.74 6.7,31.85 7.25,34.96C7.42,35.93 7.6,36.91 7.78,37.91C7.94,38.81 8.1,39.71 8.27,40.64C8.41,41.44 8.55,42.23 8.7,43.05C9,45 9,45 9,47C9.87,47.06 9.87,47.06 10.75,47.13C20.11,47.89 29.39,49.25 38.69,50.56C40.37,50.8 42.06,51.04 43.74,51.27C47.83,51.84 51.91,52.42 56,53C53.45,55.9 50.55,57.51 47.19,59.36C46.62,59.68 46.05,59.99 45.46,60.32C43.64,61.32 41.82,62.32 40,63.31C38.81,63.97 37.61,64.63 36.42,65.29C29.29,69.21 22.15,73.11 15,77C15.17,78.03 15.34,79.06 15.52,80.11C18.01,95.08 20.51,110.04 23,125C11.04,114.99 -0.05,104.1 -11,93C-15.24,94.3 -18.99,95.93 -22.89,98.05C-23.99,98.64 -25.09,99.24 -26.23,99.86C-27.37,100.48 -28.51,101.11 -29.69,101.75C-30.81,102.36 -31.93,102.97 -33.08,103.59C-36.39,105.39 -39.7,107.19 -43,109C-45.11,110.15 -47.22,111.3 -49.33,112.45C-50.89,113.3 -52.44,114.15 -54,115C-52.46,109.84 -50.23,105.24 -47.8,100.46C-46.97,98.81 -46.15,97.16 -45.33,95.52C-44.04,92.93 -42.74,90.35 -41.43,87.78C-40.16,85.28 -38.92,82.78 -37.67,80.27C-37.27,79.5 -36.88,78.73 -36.47,77.94C-36.11,77.22 -35.76,76.5 -35.39,75.76C-35.08,75.13 -34.76,74.49 -34.43,73.85C-33.81,71.94 -33.81,71.94 -34.76,69.91C-36.58,67.11 -39.01,65.06 -41.5,62.88C-47.44,57.52 -53.16,51.97 -58.81,46.31C-59.62,45.51 -60.43,44.71 -61.26,43.88C-62.38,42.76 -62.38,42.76 -63.52,41.61C-64.19,40.94 -64.86,40.27 -65.55,39.58C-67,38 -67,38 -67,37C-57.03,37.59 -47.21,38.65 -37.31,40C-35.96,40.18 -34.6,40.36 -33.24,40.54C-23.4,41.87 -23.4,41.87 -20,43C-19.76,42.19 -19.51,41.38 -19.26,40.54C-17.75,36.3 -15.85,32.35 -13.87,28.32C-13.27,27.1 -13.27,27.1 -12.67,25.86C-11.41,23.28 -10.14,20.7 -8.88,18.12C-8.02,16.37 -7.16,14.61 -6.3,12.86C-4.2,8.57 -2.1,4.28 0,0Z" style="fill:rgb(4,109,219);fill-rule:nonzero;"/>
    </g>
    <g transform="matrix(1,0,0,1,634.812,425.688)">
        <path d="M0,0C0.87,0 1.74,0.01 2.64,0.01C10.98,0.14 18.75,1.35 26.19,5.31C25.45,9.54 24.25,13.5 22.88,17.56C22.26,19.43 22.26,19.43 21.64,21.33C20.19,24.31 20.19,24.31 18.32,25.32C15.74,25.31 13.82,24.72 11.38,23.88C4.05,21.74 -5.69,20.08 -12.63,23.84C-13.35,24.32 -14.07,24.81 -14.81,25.31L-16.81,25.31C-19.05,29.65 -18.99,32.6 -17.81,37.31C-14.55,42.57 -9.85,44.84 -4.56,47.69C5.84,53.31 15.29,59.61 19.19,71.31C20.09,84.23 18.88,95.02 10.22,105.31C1.2,114.17 -11.45,117.78 -23.81,117.87C-24.95,117.85 -26.08,117.83 -27.25,117.81C-28.43,117.8 -29.62,117.79 -30.84,117.78C-41.4,117.56 -49.75,115.98 -58.81,110.31C-58.11,105.75 -56.5,101.74 -54.75,97.5C-54.33,96.46 -54.33,96.46 -53.9,95.4C-53.21,93.7 -52.51,92.01 -51.81,90.31C-48.29,90.9 -45.43,91.9 -42.19,93.38C-36.75,95.41 -31.74,95.72 -26,95.75C-24.78,95.76 -24.78,95.76 -23.54,95.78C-17.73,95.7 -13.66,94.56 -9.01,90.89C-6.58,87.69 -6.34,84.22 -6.81,80.31C-9.98,73.79 -16.36,70.64 -22.47,67.31C-32.89,61.6 -40.94,54.92 -44.81,43.31C-45.6,32.34 -44.48,23.82 -37.47,15.16C-27.37,3.92 -14.8,-0.09 0,0Z" style="fill:rgb(4,109,219);fill-rule:nonzero;"/>
    </g>
    <g transform="matrix(1,0,0,1,354,459)">
        <path d="M0,0L24,0C22.76,12.05 20.55,23.81 18.03,35.64C15.48,47.75 15.48,47.75 16,60C18.27,62.86 19.25,63.87 22.88,64.5C28.43,63.61 32.38,60.32 35.79,55.92C41.56,46.77 43.41,36.35 45.19,25.88C45.44,24.47 45.68,23.07 45.94,21.67C46.4,19.07 46.85,16.48 47.3,13.88C48.14,9.24 49.08,4.62 50,0L74,0C73.39,11.97 70.96,23.56 68.69,35.31C67.9,39.43 67.11,43.55 66.32,47.68C66.13,48.68 65.94,49.69 65.74,50.73C63.7,61.47 61.85,72.23 60,83L38,83C38.33,78.71 38.66,74.42 39,70C38.36,70.87 37.72,71.73 37.06,72.62C32.35,78.27 26.09,82.13 19,84C16.29,84.21 13.71,84.33 11,84.31C9.97,84.34 9.97,84.34 8.92,84.36C4.19,84.37 1.01,83.49 -3,81C-9.74,74.11 -10.41,67.44 -10.4,58.21C-10.17,46.93 -7.77,35.97 -5.56,24.94C-5.14,22.73 -4.71,20.52 -4.29,18.31C-3.51,14.32 -2.74,10.32 -1.94,6.33C-1.7,5.15 -1.7,5.15 -1.46,3.93C-1,2 -1,2 0,0Z" style="fill:rgb(2,109,220);fill-rule:nonzero;"/>
    </g>
    <g transform="matrix(1,0,0,1,643,181)">
        <path d="M0,0C2.94,3.41 4.29,7.12 5.7,11.32C5.94,12.02 6.18,12.72 6.43,13.44C6.93,14.91 7.43,16.39 7.93,17.86C8.69,20.13 9.46,22.39 10.24,24.64C10.72,26.08 11.21,27.51 11.7,28.95C11.93,29.62 12.16,30.3 12.4,31C14,35.77 14,35.77 14,38L56,38C50.37,43.63 50.37,43.63 47.91,45.54C47.36,45.97 46.81,46.4 46.24,46.84C45.67,47.29 45.09,47.73 44.5,48.19C43.9,48.66 43.3,49.12 42.68,49.61C40.79,51.08 38.89,52.54 37,54C36.37,54.49 35.73,54.98 35.08,55.48C31.39,58.33 27.7,61.17 24,64C25.41,68.27 26.83,72.54 28.25,76.81C28.65,78.01 29.04,79.2 29.45,80.44C31.62,86.97 33.86,93.46 36.29,99.9C37,102 37,102 37,104C33.27,102.66 30.41,101.01 27.25,98.62C26.31,97.93 25.36,97.23 24.39,96.51C22.56,95.15 20.73,93.8 18.9,92.44C16.63,90.76 14.35,89.1 12.06,87.44C11.33,86.89 10.59,86.34 9.84,85.77C8.79,85.02 8.79,85.02 7.72,84.25C7.1,83.79 6.48,83.33 5.84,82.86C4.03,81.82 4.03,81.82 1.97,82.21C-1.46,83.58 -4.13,86.1 -6.94,88.44C-8.27,89.53 -9.61,90.62 -10.95,91.7C-11.62,92.25 -12.3,92.8 -12.99,93.37C-16.05,95.85 -19.14,98.28 -22.25,100.69C-23.29,101.5 -24.32,102.3 -25.39,103.14C-28,105 -28,105 -31,106C-28.68,96.17 -25.74,86.6 -22.61,77.01C-22.08,75.35 -22.08,75.35 -21.55,73.66C-21.23,72.66 -20.9,71.67 -20.57,70.65C-19.98,67.9 -19.88,66.56 -21,64C-23.3,62.18 -25.54,60.59 -28,59C-29.45,58.03 -30.9,57.07 -32.34,56.1C-33.48,55.35 -33.48,55.35 -34.64,54.58C-38.64,51.9 -42.57,49.14 -46.5,46.38C-47.25,45.85 -48,45.33 -48.77,44.8C-50.53,43.56 -52.27,42.28 -54,41L-54,40C-25.07,38.81 -25.07,38.81 -11,39C-10.85,38.16 -10.85,38.16 -10.71,37.3C-9.29,29.71 -7.17,22.39 -4.94,15C-4.39,13.16 -4.39,13.16 -3.83,11.29C-1.15,2.29 -1.15,2.29 0,0Z" style="fill:rgb(4,109,219);fill-rule:nonzero;"/>
    </g>
    <g transform="matrix(1,0,0,1,467,212)">
        <path d="M0,0C2.9,3.46 5.25,6.95 7.45,10.89C8.38,12.54 8.38,12.54 9.33,14.23C9.96,15.37 10.6,16.51 11.25,17.69C11.91,18.85 12.56,20.02 13.22,21.18C18,29.74 18,29.74 18,32C18.57,31.86 19.14,31.73 19.72,31.59C24.31,30.49 28.89,29.4 33.48,28.32C36.71,27.55 39.93,26.77 43.15,25.96C44.28,25.69 45.4,25.41 46.56,25.12C47.53,24.88 48.5,24.64 49.5,24.38C52.04,23.99 53.59,24.17 56,25C55.31,25.74 54.62,26.48 53.91,27.24C48.37,33.21 43.05,39.25 37.97,45.62C36.09,47.89 34.12,49.96 32,52C33.46,55.94 35.32,59.45 37.44,63.07C37.93,63.91 37.93,63.91 38.43,64.78C39.47,66.56 40.52,68.34 41.56,70.12C42.61,71.91 43.66,73.7 44.7,75.5C45.65,77.12 46.59,78.73 47.54,80.35C49,83 49,83 50,86C45.72,84.65 41.69,83.03 37.61,81.14C36.43,80.61 35.24,80.07 34.02,79.51C32.16,78.66 30.29,77.8 28.43,76.94C26.62,76.1 24.81,75.28 22.99,74.46C21.37,73.71 21.37,73.71 19.72,72.96C16.96,71.67 16.96,71.67 14,73C12.65,74.51 11.37,76.08 10.12,77.69C6.26,82.53 2.22,87.15 -2,91.69C-2.58,92.31 -3.15,92.94 -3.75,93.58C-5.14,95.07 -6.57,96.54 -8,98L-9,98C-8.86,95.02 -8.71,92.04 -8.56,89.06C-8.52,88.23 -8.48,87.4 -8.44,86.54C-8.24,82.49 -7.96,78.47 -7.46,74.43C-6.84,69.25 -6.84,69.25 -7,61C-17.89,56.05 -28.78,51.1 -40,46C-36.67,43.78 -34.14,43.17 -30.25,42.27C-29.6,42.12 -28.94,41.97 -28.27,41.81C-26.89,41.49 -25.5,41.17 -24.12,40.86C-22.01,40.38 -19.89,39.88 -17.78,39.39C-7.44,37 -7.44,37 -4,37C-3.91,36.06 -3.83,35.11 -3.74,34.14C-3.42,30.63 -3.1,27.12 -2.77,23.6C-2.63,22.08 -2.49,20.57 -2.36,19.05C-2.16,16.86 -1.96,14.68 -1.75,12.49C-1.57,10.52 -1.57,10.52 -1.39,8.51C-1.07,5.61 -0.63,2.84 0,0Z" style="fill:rgb(5,110,218);fill-rule:nonzero;"/>
    </g>
    <g transform="matrix(1,0,0,1,489.188,456.938)">
        <path d="M0,0C0.9,0.01 1.8,0.02 2.73,0.03C3.42,0.04 4.1,0.05 4.81,0.06C4.17,3.88 3.52,7.69 2.88,11.5C2.69,12.59 2.51,13.68 2.32,14.8C2.15,15.83 1.97,16.87 1.79,17.93C1.62,18.89 1.46,19.85 1.29,20.84C0.81,23.06 0.81,23.06 -0.19,24.06C-2.08,24.36 -3.98,24.63 -5.88,24.88C-12.71,26 -16.73,28.12 -21.25,33.38C-30.11,46.14 -31.26,63.38 -33.69,78.28C-34.1,80.56 -34.63,82.82 -35.19,85.06L-60.19,85.06C-58.99,77.89 -57.78,70.77 -56.35,63.65C-52.56,44.51 -49.04,25.58 -47.45,6.1C-47.19,4.06 -47.19,4.06 -46.19,2.06L-25.19,2.06L-25.19,16.06C-23.87,14.52 -22.55,12.97 -21.19,11.38C-15.17,4.67 -9.29,-0.12 0,0Z" style="fill:rgb(1,109,221);fill-rule:nonzero;"/>
    </g>
    <g transform="matrix(1,0,0,1,312,277)">
        <path d="M0,0C3.9,2.84 6.85,6.05 9.95,9.7C13.77,13.99 17.9,17.98 22,22C29.89,19.68 36.89,16.14 44.15,12.32C45.01,11.88 45.86,11.44 46.75,10.98C47.52,10.58 48.29,10.17 49.08,9.76C50.03,9.38 50.03,9.38 51,9C51.99,9.5 51.99,9.5 53,10C52.65,10.68 52.29,11.35 51.93,12.05C50.33,15.12 48.73,18.18 47.12,21.25C46.57,22.31 46.01,23.38 45.44,24.47C44.64,26.01 44.64,26.01 43.82,27.58C43.33,28.52 42.84,29.46 42.33,30.43C41.89,31.28 41.45,32.13 41,33C40.59,33.69 40.18,34.38 39.76,35.09C38.78,37.56 38.97,38.57 40,41C41.52,42.9 41.52,42.9 43.46,44.68C44.51,45.7 44.51,45.7 45.58,46.75C46.32,47.45 47.05,48.15 47.81,48.88C52.45,53.32 56.69,57.46 60,63C48.98,61.47 37.99,59.76 27,58C26.78,58.77 26.57,59.53 26.34,60.32C24.49,65.39 22.01,70.05 19.5,74.81C19,75.78 18.5,76.74 17.99,77.74C17.51,78.66 17.03,79.57 16.53,80.52C16.09,81.36 15.66,82.19 15.21,83.05C14,85 14,85 12,86C8.72,64.05 8.72,64.05 8,53C7.41,52.95 6.81,52.9 6.2,52.85C-0.33,52.27 -6.69,51.22 -13.12,49.94C-14.08,49.75 -15.04,49.56 -16.02,49.37C-18.35,48.92 -20.68,48.46 -23,48L-23,45C-18.88,42.99 -14.75,41 -10.62,39C-9.45,38.43 -8.27,37.86 -7.06,37.27C-5.38,36.45 -5.38,36.45 -3.66,35.62C-2.63,35.12 -1.59,34.62 -0.52,34.1C2,33 2,33 4,33C3.88,32.14 3.76,31.28 3.63,30.4C3.18,27.21 2.74,24.02 2.29,20.83C2.1,19.45 1.9,18.07 1.71,16.69C1.43,14.71 1.15,12.72 0.88,10.73C0.71,9.54 0.54,8.35 0.37,7.12C0,4 0,4 0,0Z" style="fill:rgb(3,109,219);fill-rule:nonzero;"/>
    </g>
    <g transform="matrix(1,0,0,1,234,368)">
        <path d="M0,0C0.96,3.05 0.99,5.03 0.22,8.12C0.04,8.89 -0.14,9.66 -0.33,10.46C-0.53,11.25 -0.73,12.05 -0.94,12.88C-1.33,14.45 -1.71,16.03 -2.09,17.62C-2.26,18.31 -2.44,19.01 -2.62,19.73C-3.11,22.64 -3.36,25.05 -3,28C-1.01,29.98 -1.01,29.98 1.78,31.36C3.26,32.2 3.26,32.2 4.77,33.05C5.82,33.61 6.86,34.17 7.94,34.75C9.99,35.89 12.04,37.03 14.09,38.17C15.01,38.67 15.92,39.16 16.87,39.67C19,41 19,41 20,43C17.02,43.34 14.04,43.67 11.06,44C10.23,44.1 9.4,44.19 8.54,44.29C2.99,44.89 -2.42,45.09 -8,45C-8.1,45.6 -8.2,46.19 -8.3,46.81C-9.82,55.63 -11.9,64.3 -14,73C-16.74,68.89 -18.6,64.49 -20.62,60C-21.05,59.08 -21.47,58.17 -21.9,57.23C-22.3,56.35 -22.69,55.47 -23.1,54.56C-23.47,53.76 -23.83,52.96 -24.21,52.13C-25,50 -25,50 -25,47C-25.62,47.06 -26.25,47.12 -26.89,47.18C-29.76,47.46 -32.63,47.73 -35.5,48C-36.48,48.1 -37.46,48.19 -38.48,48.29C-44.01,48.81 -49.44,49.11 -55,49C-51.2,45.15 -47.29,41.42 -43.31,37.75C-42.73,37.21 -42.15,36.67 -41.55,36.11C-37.24,32.12 -37.24,32.12 -35,31C-35.57,24.88 -38.11,19.68 -40.56,14.12C-40.99,13.15 -41.41,12.18 -41.85,11.17C-42.89,8.78 -43.94,6.39 -45,4C-41.64,5.25 -38.74,6.68 -35.75,8.67C-34.59,9.42 -34.59,9.42 -33.41,10.18C-31.79,11.23 -30.19,12.29 -28.59,13.36C-24.21,16.37 -24.21,16.37 -19.14,16.52C-17.11,15.08 -15.48,13.71 -13.81,11.88C-9.59,7.44 -4.84,3.75 0,0Z" style="fill:rgb(5,110,218);fill-rule:nonzero;"/>
    </g>
    <g transform="matrix(1,0,0,1,143,469)">
        <path d="M0,0L1,0C1.84,8.36 2.12,16.6 2,25C3.07,25.27 4.15,25.53 5.25,25.8C6.69,26.16 8.13,26.52 9.56,26.88C10.27,27.05 10.97,27.22 11.7,27.4C16.16,28.51 20.58,29.71 25,31C21.26,34.35 16.92,35.62 12.25,37.19C9.53,38.12 6.81,39.04 4,40L4,64C-1.62,58.38 -1.62,58.38 -3.68,55.67C-4.11,55.1 -4.55,54.53 -4.99,53.94C-5.43,53.36 -5.86,52.78 -6.31,52.19C-6.99,51.29 -6.99,51.29 -7.69,50.38C-8.8,48.92 -9.9,47.46 -11,46C-17.77,47.73 -24.28,49.75 -30.79,52.33C-33,53 -33,53 -35,52C-34.67,51.54 -34.34,51.08 -34.01,50.61C-32.52,48.52 -31.04,46.42 -29.56,44.31C-29.05,43.59 -28.53,42.87 -28,42.13C-24.16,37.02 -24.16,37.02 -23,31C-24.51,28.76 -25.93,26.96 -27.75,25C-30.88,21.51 -33.72,18.13 -36,14C-34.25,14.44 -32.5,14.88 -30.75,15.31C-29.67,15.58 -28.58,15.85 -27.47,16.13C-25.16,16.71 -22.84,17.29 -20.53,17.87C-18.91,18.27 -18.91,18.27 -17.25,18.69C-15.5,19.12 -13.75,19.56 -12,20C-11.66,19 -11.66,19 -11.32,17.99C-9.6,14.09 -7.32,10.71 -4.94,7.19C-4.48,6.49 -4.02,5.8 -3.54,5.09C-2.39,3.37 -1.2,1.68 0,0Z" style="fill:rgb(6,110,218);fill-rule:nonzero;"/>
    </g>
</svg>
