<?xml version="1.0" encoding="UTF-8" standalone="no"?>
<!DOCTYPE svg PUBLIC "-//W3C//DTD SVG 1.1//EN" "http://www.w3.org/Graphics/SVG/1.1/DTD/svg11.dtd">
<svg width="100%" height="100%" viewBox="0 0 451 344" version="1.1" xmlns="http://www.w3.org/2000/svg" xmlns:xlink="http://www.w3.org/1999/xlink" xml:space="preserve" xmlns:serif="http://www.serif.com/" style="fill-rule:evenodd;clip-rule:evenodd;stroke-linejoin:round;stroke-miterlimit:1.41421;">
    <g transform="matrix(1,0,0,1,-735.049,-447.691)">
        <path d="M743.95,454.766L741.168,482.58L744.012,482.58L753.654,470.218L758.476,470.218L747.536,484.373L757.054,498.898L751.49,498.898L743.271,485.98L740.859,485.98L739.623,498.898L735.049,498.898L739.438,455.137L743.95,454.766Z" style="fill:rgb(0,136,156);fill-rule:nonzero;"/>
    </g>
    <g transform="matrix(1,0,0,1,-735.049,-432.548)">
        <path d="M783.014,483.632L778.563,483.755L778.44,477.698C772.939,483.014 771.269,484.002 768.365,484.002C764.842,484.002 761.998,481.345 761.998,474.175C761.998,461.875 767.067,454.519 775.412,454.519C778.131,454.519 781.777,455.075 784.683,455.941L782.89,474.36L783.014,483.632ZM779.923,459.032C778.316,458.661 776.339,458.352 774.855,458.352C769.477,458.352 766.697,463.914 766.697,473.68C766.697,478.069 767.994,479.737 769.786,479.737C771.455,479.737 773.186,478.378 778.502,473.31L779.923,459.032Z" style="fill:rgb(0,136,156);fill-rule:nonzero;"/>
    </g>
    <g transform="matrix(1,0,0,1,-735.049,-447.444)">
        <path d="M804.46,469.415C806.005,469.415 807.613,469.601 809.282,469.971L810.827,454.828L815.338,454.519L811.94,489.256L812.063,498.528L807.613,498.651L807.489,492.594C801.988,497.91 800.32,498.898 797.414,498.898C793.891,498.898 791.048,496.241 791.048,489.071C791.048,476.771 796.115,469.415 804.46,469.415M798.836,494.633C800.505,494.633 802.235,493.274 807.551,488.206L808.973,473.928C807.366,473.557 805.387,473.248 803.904,473.248C798.527,473.248 795.745,478.81 795.745,488.576C795.745,492.965 797.044,494.633 798.836,494.633" style="fill:rgb(0,136,156);fill-rule:nonzero;"/>
    </g>
    <g transform="matrix(1,0,0,1,-735.049,-432.548)">
        <path d="M841.114,483.632L836.662,483.755L836.538,477.698C831.039,483.014 829.369,484.002 826.464,484.002C822.941,484.002 820.098,481.345 820.098,474.175C820.098,461.875 825.166,454.519 833.511,454.519C836.229,454.519 839.877,455.075 842.782,455.941L840.99,474.36L841.114,483.632ZM838.023,459.032C836.415,458.661 834.438,458.352 832.954,458.352C827.576,458.352 824.795,463.914 824.795,473.68C824.795,478.069 826.093,479.737 827.885,479.737C829.555,479.737 831.286,478.378 836.6,473.31L838.023,459.032Z" style="fill:rgb(0,136,156);fill-rule:nonzero;"/>
    </g>
    <g transform="matrix(1,0,0,1,-735.049,-432.547)">
        <path d="M863.859,459.031C861.757,458.413 860.026,458.103 858.171,458.103C855.452,458.103 854.34,459.71 854.34,461.627C854.34,463.666 854.896,464.84 857.801,467.313C863.24,471.887 864.106,473.494 864.106,476.399C864.106,480.973 860.891,484.125 855.391,484.125C852.485,484.125 849.581,483.445 847.169,481.962L848.467,478.377C850.878,479.551 853.536,480.231 855.638,480.231C858.42,480.231 859.717,478.871 859.717,476.893C859.717,474.977 859.099,473.927 855.391,471.022C851.125,467.684 849.89,465.335 849.89,461.935C849.89,458.103 852.609,454.395 858.109,454.395C860.83,454.395 862.807,454.704 864.786,455.445L863.859,459.031Z" style="fill:rgb(0,136,156);fill-rule:nonzero;"/>
    </g>
    <g transform="matrix(1,0,0,1,-735.049,-441.943)">
        <path d="M878.259,464.47L885.553,464.47L885.121,468.118L877.95,468.118L876.405,483.57C876.22,485.115 876.22,486.66 876.22,487.588C876.22,489.071 876.776,489.38 877.95,489.38C878.939,489.38 880.918,488.947 883.575,488.02L884.379,491.481C881.165,492.903 878.63,493.459 876.096,493.459C873.005,493.459 871.399,491.852 871.399,488.638C871.399,487.526 871.461,486.289 871.646,484.249L873.314,468.056L869.173,467.932L869.483,464.779L873.747,464.47L875.231,454.581L879.063,454.457L878.259,464.47Z" style="fill:rgb(0,136,156);fill-rule:nonzero;"/>
    </g>
    <g transform="matrix(1,0,0,1,-735.049,-432.671)">
        <path d="M894.268,470.465C894.206,471.207 894.206,471.887 894.206,472.381C894.206,478.439 896.121,480.293 899.521,480.293C901.684,480.293 904.528,479.675 909.102,477.326L910.399,480.85C905.578,483.322 902.24,484.249 898.593,484.249C892.845,484.249 889.508,480.726 889.508,473C889.508,461.998 894.082,454.395 901.931,454.395C907.247,454.395 909.72,457.177 909.72,462.059C909.72,463.605 909.349,467.066 908.731,469.6L894.268,470.465ZM905.022,466.263C905.269,464.903 905.393,463.234 905.393,462.492C905.393,459.464 904.033,458.042 901.375,458.042C897.79,458.042 895.565,461.318 894.7,466.942L905.022,466.263Z" style="fill:rgb(0,136,156);fill-rule:nonzero;"/>
    </g>
    <g transform="matrix(1,0,0,1,-735.049,-432.733)">
        <path d="M921.217,483.94L916.581,483.94L919.424,455.199L923.442,455.199L922.885,462.492C927.583,455.569 928.386,454.766 930.859,454.766C932.157,454.766 933.146,454.951 934.073,455.199L933.331,459.34C932.466,459.278 931.786,459.217 931.045,459.217C929.313,459.217 928.572,460.143 922.638,468.241L921.217,483.94Z" style="fill:rgb(0,136,156);fill-rule:nonzero;"/>
    </g>
    <g transform="matrix(0.283783,-0.958889,-0.958889,-0.283783,303.712,1167.77)">
        <path d="M906.816,343.635L1103.81,343.635L1091.49,385.287L820.979,385.285L906.816,343.635Z" style="fill:rgb(0,136,156);fill-rule:nonzero;"/>
    </g>
    <g transform="matrix(-0.673878,0.738843,0.738843,0.673878,849.42,-759.24)">
        <path d="M1026.15,190.388L1068.75,190.388L1131.36,359.46L1097.43,396.653L1026.15,190.388Z" style="fill:rgb(0,65,120);fill-rule:nonzero;"/>
    </g>
</svg>
