<?xml version="1.0" encoding="UTF-8" standalone="no"?>
<!DOCTYPE svg PUBLIC "-//W3C//DTD SVG 1.1//EN" "http://www.w3.org/Graphics/SVG/1.1/DTD/svg11.dtd">
<svg width="100%" height="100%" viewBox="0 0 142 230" version="1.1" xmlns="http://www.w3.org/2000/svg" xmlns:xlink="http://www.w3.org/1999/xlink" xml:space="preserve" xmlns:serif="http://www.serif.com/" style="fill-rule:evenodd;clip-rule:evenodd;stroke-linejoin:round;stroke-miterlimit:2;">
    <g transform="matrix(134.855,-233.576,-233.576,-134.855,3.43877,231.591)">
        <g id="Laag-2" serif:id="Laag 2">
            <path d="M0.93,0.106C0.936,0.044 0.921,-0.018 0.887,-0.072C0.884,-0.076 0.881,-0.081 0.878,-0.085L1,-0.015L0.93,0.106ZM0.737,0.44L0.612,0.368C0.676,0.375 0.74,0.361 0.796,0.326C0.8,0.323 0.804,0.321 0.808,0.318L0.737,0.44ZM0.763,0.289C0.706,0.324 0.64,0.336 0.575,0.321C0.51,0.306 0.455,0.267 0.42,0.21C0.385,0.154 0.374,0.088 0.388,0.023C0.403,-0.042 0.442,-0.097 0.499,-0.132C0.555,-0.167 0.622,-0.179 0.686,-0.164C0.711,-0.158 0.734,-0.149 0.755,-0.137C0.784,-0.12 0.808,-0.099 0.828,-0.072C0.805,-0.093 0.777,-0.107 0.745,-0.114C0.695,-0.126 0.644,-0.117 0.6,-0.09C0.573,-0.073 0.551,-0.05 0.536,-0.023C0.526,-0.007 0.519,0.011 0.515,0.03C0.503,0.08 0.512,0.132 0.539,0.175C0.595,0.265 0.714,0.293 0.804,0.236C0.821,0.226 0.836,0.213 0.849,0.198C0.848,0.2 0.847,0.202 0.846,0.203C0.826,0.238 0.798,0.267 0.763,0.289ZM0.796,0.228C0.721,0.275 0.622,0.252 0.575,0.177C0.552,0.141 0.545,0.098 0.555,0.056C0.564,0.014 0.59,-0.021 0.626,-0.044C0.662,-0.067 0.705,-0.074 0.747,-0.064C0.785,-0.055 0.818,-0.034 0.84,-0.003C0.826,-0.015 0.808,-0.024 0.789,-0.029C0.757,-0.036 0.725,-0.031 0.697,-0.013C0.68,-0.003 0.666,0.012 0.657,0.029C0.651,0.039 0.646,0.05 0.643,0.062C0.636,0.094 0.642,0.126 0.659,0.154C0.694,0.211 0.769,0.228 0.826,0.192C0.835,0.187 0.843,0.18 0.85,0.173C0.85,0.173 0.85,0.173 0.85,0.173C0.837,0.195 0.819,0.214 0.796,0.228ZM0.825,0.168C0.81,0.177 0.793,0.182 0.777,0.182C0.787,0.177 0.795,0.169 0.802,0.159C0.818,0.13 0.808,0.093 0.779,0.076C0.75,0.06 0.714,0.069 0.697,0.098C0.69,0.11 0.688,0.122 0.689,0.134C0.676,0.112 0.673,0.087 0.678,0.063C0.684,0.037 0.699,0.016 0.722,0.002C0.744,-0.012 0.77,-0.016 0.795,-0.01C0.821,-0.005 0.842,0.011 0.856,0.033C0.876,0.065 0.875,0.103 0.858,0.134C0.85,0.147 0.839,0.159 0.825,0.168ZM0,0.015L0.02,-0.021L0.152,0.056L0.166,0.032L0.122,-0.068L0.198,-0.024L0.215,-0.053L0.083,-0.129L0.106,-0.17L0.219,-0.061L0.238,-0.093L0.171,-0.155L0.262,-0.134L0.276,-0.158L0.212,-0.227L0.3,-0.2L0.319,-0.232L0.168,-0.275L0.21,-0.348C0.204,-0.316 0.22,-0.283 0.25,-0.266L0.25,-0.266C0.289,-0.243 0.338,-0.254 0.361,-0.296C0.38,-0.327 0.376,-0.362 0.356,-0.387L0.669,-0.206C0.607,-0.212 0.544,-0.197 0.49,-0.163C0.355,-0.079 0.314,0.1 0.398,0.234C0.402,0.24 0.406,0.246 0.41,0.251L0,0.015ZM0.268,-0.296L0.268,-0.296C0.244,-0.309 0.235,-0.337 0.249,-0.361C0.263,-0.385 0.291,-0.391 0.314,-0.377L0.315,-0.377C0.338,-0.364 0.346,-0.336 0.332,-0.312C0.319,-0.288 0.291,-0.282 0.268,-0.296ZM0.037,-0.049L0.07,-0.107L0.115,-0.004L0.037,-0.049ZM0.122,-0.197L0.152,-0.248L0.215,-0.177L0.122,-0.197ZM0.24,-0.4L0.263,-0.44L0.302,-0.417C0.28,-0.421 0.257,-0.415 0.24,-0.4Z" style="fill:url(#_Linear1);fill-rule:nonzero;"/>
        </g>
    </g>
    <defs>
        <linearGradient id="_Linear1" x1="0" y1="0" x2="1" y2="0" gradientUnits="userSpaceOnUse" gradientTransform="matrix(1,0,0,-1,0,3.03691e-07)"><stop offset="0" style="stop-color:rgb(14,101,125);stop-opacity:1"/><stop offset="1" style="stop-color:rgb(66,168,187);stop-opacity:1"/></linearGradient>
    </defs>
</svg>
