<?xml version="1.0" encoding="UTF-8" standalone="no"?>
<!DOCTYPE svg PUBLIC "-//W3C//DTD SVG 1.1//EN" "http://www.w3.org/Graphics/SVG/1.1/DTD/svg11.dtd">
<svg width="100%" height="100%" viewBox="0 0 859 163" version="1.1" xmlns="http://www.w3.org/2000/svg" xmlns:xlink="http://www.w3.org/1999/xlink" xml:space="preserve" xmlns:serif="http://www.serif.com/" style="fill-rule:evenodd;clip-rule:evenodd;stroke-linejoin:round;stroke-miterlimit:1.41421;">
    <g transform="matrix(4.16667,0,0,4.16667,0,0)">
        <path d="M91.403,8.162L89.736,12.311L93.07,12.311L91.403,8.162ZM90.815,7.035L92.075,7.035L95.613,15.406L94.305,15.406L93.454,13.295L89.352,13.295L88.501,15.406L87.241,15.406L90.815,7.035Z" style="fill:rgb(35,31,32);fill-rule:nonzero;"/>
        <path d="M99.779,10.057C98.556,10.057 97.968,11.22 97.968,12.36C97.968,13.378 98.496,14.638 99.767,14.638C100.979,14.638 101.482,13.283 101.459,12.324C101.482,11.22 101.003,10.057 99.779,10.057ZM96.84,9.29L97.92,9.29L97.92,10.153L97.944,10.153C98.244,9.697 98.94,9.145 100.02,9.145C101.795,9.145 102.658,10.596 102.658,12.24C102.658,13.918 101.879,15.549 100.031,15.549C98.952,15.549 98.34,15.13 97.993,14.566L97.968,14.566L97.968,17.924L96.84,17.924L96.84,9.29Z" style="fill:rgb(35,31,32);fill-rule:nonzero;"/>
        <path d="M107.231,10.057C106.009,10.057 105.421,11.22 105.421,12.36C105.421,13.378 105.948,14.638 107.22,14.638C108.432,14.638 108.935,13.283 108.911,12.324C108.935,11.22 108.455,10.057 107.231,10.057ZM104.294,9.29L105.373,9.29L105.373,10.153L105.396,10.153C105.696,9.697 106.393,9.145 107.472,9.145C109.247,9.145 110.11,10.596 110.11,12.24C110.11,13.918 109.331,15.549 107.483,15.549C106.404,15.549 105.793,15.13 105.444,14.566L105.421,14.566L105.421,17.924L104.294,17.924L104.294,9.29Z" style="fill:rgb(35,31,32);fill-rule:nonzero;"/>
        <rect x="111.89" y="6.411" width="1.127" height="8.995" style="fill:rgb(35,31,32);fill-rule:nonzero;"/>
        <path d="M115.346,9.29L116.473,9.29L116.473,15.406L115.346,15.406L115.346,9.29ZM116.545,7.922L115.273,7.922L115.273,6.651L116.545,6.651L116.545,7.922Z" style="fill:rgb(35,31,32);fill-rule:nonzero;"/>
        <path d="M122.614,11.76C122.614,10.825 122.063,10.057 121.092,10.057C119.988,10.057 119.532,10.968 119.448,11.76L122.614,11.76ZM123.346,15.154C122.914,15.31 122.423,15.549 121.415,15.549C119.244,15.549 118.249,14.23 118.249,12.24C118.249,10.428 119.389,9.145 121.115,9.145C123.154,9.145 123.813,10.632 123.813,12.599L119.448,12.599C119.448,13.811 120.396,14.638 121.463,14.638C122.207,14.638 123.07,14.254 123.346,14.027L123.346,15.154Z" style="fill:rgb(35,31,32);fill-rule:nonzero;"/>
        <path d="M127.932,14.638C129.203,14.638 129.729,13.378 129.729,12.36C129.729,11.22 129.143,10.057 127.919,10.057C126.696,10.057 126.216,11.208 126.24,12.324C126.216,13.283 126.72,14.638 127.932,14.638ZM129.778,14.542L129.754,14.542C129.453,14.997 128.759,15.549 127.668,15.549C125.82,15.549 125.041,13.907 125.041,12.24C125.041,10.596 125.904,9.145 127.68,9.145C128.746,9.145 129.358,9.565 129.705,10.128L129.729,10.128L129.729,6.411L130.856,6.411L130.856,15.406L129.778,15.406L129.778,14.542Z" style="fill:rgb(35,31,32);fill-rule:nonzero;"/>
        <path d="M139.991,12.492C139.751,12.492 139.511,12.467 139.271,12.467C138.659,12.467 137.148,12.563 137.148,13.643C137.148,14.29 137.772,14.638 138.288,14.638C139.403,14.638 139.991,13.943 139.991,13.031L139.991,12.492ZM136.645,9.721C137.208,9.385 137.88,9.145 138.659,9.145C140.411,9.145 141.118,10.008 141.118,11.676L141.118,14.206C141.118,14.902 141.143,15.226 141.166,15.406L140.111,15.406L140.111,14.614L140.087,14.614C139.823,14.986 139.224,15.549 138.192,15.549C136.873,15.549 135.949,14.974 135.949,13.643C135.949,12.108 137.628,11.627 138.792,11.627C139.235,11.627 139.547,11.627 139.991,11.652C139.991,10.596 139.607,10.057 138.479,10.057C137.844,10.057 137.16,10.296 136.705,10.68L136.645,9.721Z" style="fill:rgb(35,31,32);fill-rule:nonzero;"/>
        <path d="M143.149,9.29L144.24,9.29L144.24,10.26L144.265,10.26C144.601,9.565 145.416,9.145 146.268,9.145C147.851,9.145 148.558,10.128 148.558,11.772L148.558,15.406L147.431,15.406L147.431,12.24C147.431,10.812 147.119,10.117 146.136,10.057C144.852,10.057 144.276,11.088 144.276,12.576L144.276,15.406L143.149,15.406L143.149,9.29Z" style="fill:rgb(35,31,32);fill-rule:nonzero;"/>
        <path d="M153.084,14.638C154.355,14.638 154.883,13.378 154.883,12.36C154.883,11.22 154.295,10.057 153.071,10.057C151.849,10.057 151.368,11.208 151.393,12.324C151.368,13.283 151.872,14.638 153.084,14.638ZM154.931,14.542L154.906,14.542C154.606,14.997 153.911,15.549 152.82,15.549C150.973,15.549 150.193,13.907 150.193,12.24C150.193,10.596 151.057,9.145 152.832,9.145C153.899,9.145 154.511,9.565 154.858,10.128L154.883,10.128L154.883,6.411L156.01,6.411L156.01,15.406L154.931,15.406L154.931,14.542Z" style="fill:rgb(35,31,32);fill-rule:nonzero;"/>
        <path d="M88.224,24.255L92.914,24.255L92.914,25.31L89.424,25.31L89.424,27.757L92.602,27.757L92.602,28.813L89.424,28.813L89.424,31.571L92.914,31.571L92.914,32.626L88.224,32.626L88.224,24.255Z" style="fill:rgb(35,31,32);fill-rule:nonzero;"/>
        <path d="M94.848,26.51L95.94,26.51L95.94,27.481L95.964,27.481C96.3,26.786 97.116,26.366 97.967,26.366C99.55,26.366 100.258,27.349 100.258,28.993L100.258,32.626L99.13,32.626L99.13,29.46C99.13,28.033 98.819,27.337 97.835,27.278C96.551,27.278 95.976,28.309 95.976,29.796L95.976,32.626L94.848,32.626L94.848,26.51Z" style="fill:rgb(35,31,32);fill-rule:nonzero;"/>
        <path d="M106.583,29.64C106.583,28.369 105.995,27.278 104.796,27.278C103.656,27.278 103.093,28.513 103.093,29.556C103.093,30.707 103.74,31.715 104.796,31.715C105.852,31.715 106.583,30.78 106.583,29.64ZM107.71,32.363C107.71,34.221 106.751,35.289 104.556,35.289C103.908,35.289 103.345,35.205 102.361,34.87L102.481,33.826C103.345,34.221 103.86,34.377 104.688,34.377C105.875,34.377 106.583,33.574 106.583,32.279L106.583,31.679L106.559,31.679C106.079,32.315 105.288,32.626 104.508,32.626C102.757,32.626 101.894,31.2 101.894,29.616C101.894,28.045 102.781,26.366 104.628,26.366C105.707,26.366 106.307,26.761 106.643,27.421L106.667,27.421L106.667,26.51L107.71,26.51L107.71,32.363Z" style="fill:rgb(35,31,32);fill-rule:nonzero;"/>
        <path d="M109.897,26.51L111.024,26.51L111.024,32.626L109.897,32.626L109.897,26.51ZM111.097,25.143L109.825,25.143L109.825,23.872L111.097,23.872L111.097,25.143Z" style="fill:rgb(35,31,32);fill-rule:nonzero;"/>
        <path d="M113.21,26.51L114.301,26.51L114.301,27.481L114.325,27.481C114.661,26.786 115.477,26.366 116.328,26.366C117.911,26.366 118.618,27.349 118.618,28.993L118.618,32.626L117.491,32.626L117.491,29.46C117.491,28.033 117.18,27.337 116.196,27.278C114.912,27.278 114.337,28.309 114.337,29.796L114.337,32.626L113.21,32.626L113.21,26.51Z" style="fill:rgb(35,31,32);fill-rule:nonzero;"/>
        <path d="M124.618,28.981C124.618,28.045 124.066,27.278 123.096,27.278C121.992,27.278 121.536,28.189 121.452,28.981L124.618,28.981ZM125.35,32.374C124.918,32.531 124.427,32.77 123.419,32.77C121.248,32.77 120.253,31.451 120.253,29.46C120.253,27.649 121.393,26.366 123.119,26.366C125.158,26.366 125.817,27.853 125.817,29.82L121.452,29.82C121.452,31.032 122.399,31.859 123.467,31.859C124.211,31.859 125.074,31.475 125.35,31.247L125.35,32.374Z" style="fill:rgb(35,31,32);fill-rule:nonzero;"/>
        <path d="M131.41,28.981C131.41,28.045 130.858,27.278 129.888,27.278C128.784,27.278 128.328,28.189 128.244,28.981L131.41,28.981ZM132.142,32.374C131.71,32.531 131.219,32.77 130.211,32.77C128.039,32.77 127.045,31.451 127.045,29.46C127.045,27.649 128.185,26.366 129.91,26.366C131.95,26.366 132.609,27.853 132.609,29.82L128.244,29.82C128.244,31.032 129.19,31.859 130.259,31.859C131.003,31.859 131.866,31.475 132.142,31.247L132.142,32.374Z" style="fill:rgb(35,31,32);fill-rule:nonzero;"/>
        <path d="M134.245,26.51L135.3,26.51L135.3,27.457L135.324,27.457C135.624,26.822 136.271,26.366 136.919,26.366C137.255,26.366 137.423,26.402 137.663,26.45L137.663,27.457C137.459,27.373 137.231,27.349 137.039,27.349C136.031,27.349 135.372,28.309 135.372,29.844L135.372,32.626L134.245,32.626L134.245,26.51Z" style="fill:rgb(35,31,32);fill-rule:nonzero;"/>
        <path d="M139.177,26.51L140.304,26.51L140.304,32.626L139.177,32.626L139.177,26.51ZM140.376,25.143L139.104,25.143L139.104,23.872L140.376,23.872L140.376,25.143Z" style="fill:rgb(35,31,32);fill-rule:nonzero;"/>
        <path d="M142.489,26.51L143.58,26.51L143.58,27.481L143.604,27.481C143.94,26.786 144.756,26.366 145.607,26.366C147.19,26.366 147.897,27.349 147.897,28.993L147.897,32.626L146.771,32.626L146.771,29.46C146.771,28.033 146.459,27.337 145.476,27.278C144.191,27.278 143.616,28.309 143.616,29.796L143.616,32.626L142.489,32.626L142.489,26.51Z" style="fill:rgb(35,31,32);fill-rule:nonzero;"/>
        <path d="M154.223,29.64C154.223,28.369 153.635,27.278 152.436,27.278C151.296,27.278 150.732,28.513 150.732,29.556C150.732,30.707 151.38,31.715 152.436,31.715C153.491,31.715 154.223,30.78 154.223,29.64ZM155.35,32.363C155.35,34.221 154.391,35.289 152.195,35.289C151.548,35.289 150.984,35.205 150.001,34.87L150.121,33.826C150.984,34.221 151.5,34.377 152.327,34.377C153.515,34.377 154.223,33.574 154.223,32.279L154.223,31.679L154.198,31.679C153.719,32.315 152.928,32.626 152.147,32.626C150.396,32.626 149.533,31.2 149.533,29.616C149.533,28.045 150.421,26.366 152.268,26.366C153.347,26.366 153.946,26.761 154.282,27.421L154.307,27.421L154.307,26.51L155.35,26.51L155.35,32.363Z" style="fill:rgb(35,31,32);fill-rule:nonzero;"/>
        <path d="M164.759,25.514C164.147,25.275 163.812,25.166 163.188,25.166C162.517,25.166 161.725,25.407 161.725,26.282C161.725,27.889 165.322,27.517 165.322,30.276C165.322,32.063 163.943,32.77 162.265,32.77C161.677,32.77 161.101,32.602 160.549,32.422L160.669,31.307C161.077,31.475 161.797,31.715 162.408,31.715C163.092,31.715 164.052,31.331 164.052,30.348C164.052,28.477 160.453,28.993 160.453,26.39C160.453,24.903 161.629,24.111 163.14,24.111C163.691,24.111 164.352,24.207 164.927,24.411L164.759,25.514Z" style="fill:rgb(35,31,32);fill-rule:nonzero;"/>
        <path d="M170.854,27.541C170.423,27.362 169.99,27.278 169.631,27.278C168.371,27.278 167.664,28.405 167.664,29.568C167.664,30.66 168.252,31.859 169.703,31.859C170.087,31.859 170.566,31.739 170.914,31.511L170.998,32.518C170.53,32.735 169.99,32.77 169.583,32.77C167.735,32.77 166.465,31.319 166.465,29.568C166.465,27.709 167.712,26.366 169.583,26.366C170.038,26.366 170.626,26.474 170.95,26.606L170.854,27.541Z" style="fill:rgb(35,31,32);fill-rule:nonzero;"/>
        <path d="M172.561,26.51L173.688,26.51L173.688,32.626L172.561,32.626L172.561,26.51ZM173.76,25.143L172.488,25.143L172.488,23.872L173.76,23.872L173.76,25.143Z" style="fill:rgb(35,31,32);fill-rule:nonzero;"/>
        <path d="M179.83,28.981C179.83,28.045 179.278,27.278 178.308,27.278C177.204,27.278 176.748,28.189 176.664,28.981L179.83,28.981ZM180.562,32.374C180.13,32.531 179.639,32.77 178.631,32.77C176.46,32.77 175.465,31.451 175.465,29.46C175.465,27.649 176.604,26.366 178.331,26.366C180.37,26.366 181.029,27.853 181.029,29.82L176.664,29.82C176.664,31.032 177.611,31.859 178.679,31.859C179.423,31.859 180.286,31.475 180.562,31.247L180.562,32.374Z" style="fill:rgb(35,31,32);fill-rule:nonzero;"/>
        <path d="M182.665,26.51L183.756,26.51L183.756,27.481L183.78,27.481C184.116,26.786 184.932,26.366 185.783,26.366C187.366,26.366 188.073,27.349 188.073,28.993L188.073,32.626L186.946,32.626L186.946,29.46C186.946,28.033 186.635,27.337 185.651,27.278C184.367,27.278 183.792,28.309 183.792,29.796L183.792,32.626L182.665,32.626L182.665,26.51Z" style="fill:rgb(35,31,32);fill-rule:nonzero;"/>
        <path d="M194.003,27.541C193.571,27.362 193.139,27.278 192.779,27.278C191.52,27.278 190.813,28.405 190.813,29.568C190.813,30.66 191.4,31.859 192.852,31.859C193.235,31.859 193.715,31.739 194.063,31.511L194.146,32.518C193.679,32.735 193.139,32.77 192.731,32.77C190.884,32.77 189.613,31.319 189.613,29.568C189.613,27.709 190.86,26.366 192.731,26.366C193.187,26.366 193.774,26.474 194.099,26.606L194.003,27.541Z" style="fill:rgb(35,31,32);fill-rule:nonzero;"/>
        <path d="M199.522,28.981C199.522,28.045 198.971,27.278 198,27.278C196.896,27.278 196.44,28.189 196.356,28.981L199.522,28.981ZM200.254,32.374C199.822,32.531 199.331,32.77 198.323,32.77C196.152,32.77 195.157,31.451 195.157,29.46C195.157,27.649 196.297,26.366 198.023,26.366C200.063,26.366 200.722,27.853 200.722,29.82L196.356,29.82C196.356,31.032 197.304,31.859 198.371,31.859C199.115,31.859 199.979,31.475 200.254,31.247L200.254,32.374Z" style="fill:rgb(35,31,32);fill-rule:nonzero;"/>
        <path d="M201.901,31.427C202.345,31.715 202.98,31.859 203.305,31.859C203.82,31.859 204.456,31.643 204.456,30.983C204.456,29.868 201.806,29.964 201.806,28.248C201.806,26.978 202.753,26.366 203.964,26.366C204.492,26.366 204.924,26.474 205.367,26.606L205.271,27.589C205.02,27.433 204.348,27.278 204.084,27.278C203.509,27.278 203.005,27.517 203.005,28.021C203.005,29.268 205.655,28.909 205.655,30.864C205.655,32.17 204.611,32.77 203.521,32.77C202.944,32.77 202.356,32.71 201.841,32.434L201.901,31.427Z" style="fill:rgb(35,31,32);fill-rule:nonzero;"/>
        <path d="M50.623,14.832L50.623,14.118C52.485,12.809 53.714,11.942 54.046,10.059C54.173,9.329 53.971,8.424 53.345,7.625C51.646,5.452 47.712,4.249 44.228,3.632C27.086,0.609 10.754,6.946 9.521,7.484L9.519,7.003C10.98,6.152 29.616,-1.501 47.585,1.667C51.06,2.28 54.3,3.278 56.079,5.552C56.779,6.453 57.007,7.414 56.849,8.329C56.424,10.734 53.132,13.409 50.623,14.832Z" style="fill:rgb(237,28,36);fill-rule:nonzero;"/>
        <path d="M59.112,14.303C53.521,14.303 49.438,18.419 49.438,24.099C49.438,29.639 53.521,33.784 58.981,33.784C64.678,33.784 68.865,29.664 68.865,24.04C68.865,18.448 64.704,14.303 59.112,14.303ZM59.217,16.863C63.169,16.863 66.215,19.979 66.215,23.988C66.215,28.132 63.169,31.251 59.139,31.251C55.136,31.251 52.115,28.192 52.115,24.099C52.115,19.895 55.084,16.863 59.217,16.863Z" style="fill:rgb(237,28,36);fill-rule:nonzero;"/>
        <path d="M16.752,14.552L14.287,14.552L14.287,29.273L2.093,14.552L0,14.552L0,33.531L2.439,33.531L2.439,18.919L14.525,33.531L16.752,33.531L16.752,14.552Z" style="fill:rgb(35,31,32);fill-rule:nonzero;"/>
        <path d="M43.867,21.566C41.285,26.105 31.73,35.45 31.73,35.45L30.787,35.45C33.863,30.099 34.989,21.548 35.246,21.334L35.196,21.217C35.196,21.217 33.134,25.312 28.759,29.757C24.49,34.099 22.815,35.45 22.815,35.45L21.793,35.45C25.05,29.318 27.136,22.479 27.136,19.016C27.136,18.023 27.003,17.375 26.455,17.375C25.197,17.375 23.855,19.546 23.113,21.169L22.074,21.169C23.475,18.04 26.871,13.946 28.908,13.946C30.067,13.946 30.515,15.372 30.515,16.599C30.515,23.022 25.977,31.391 25.636,31.732C25.636,31.853 25.789,31.818 25.789,31.818C26.011,30.943 29.618,27.831 32.603,23.222C35.543,18.678 37.837,13.683 38.052,13.683C38.127,13.61 38.566,14.476 38.566,16.599C38.566,23.914 35.029,30.917 34.252,31.751C34.252,31.821 34.312,31.848 34.369,31.838C34.686,31.097 37.804,28.008 39.757,25.425C40.484,24.467 43.484,20.505 43.234,16.964C43.234,16.964 43.634,16.124 45.027,14.736C45.027,14.736 45.989,13.779 46.541,13.779C46.833,13.779 46.833,14.476 46.833,14.476C46.833,16.761 44.486,20.48 43.867,21.566Z" style="fill:rgb(35,31,32);fill-rule:nonzero;"/>
        <rect x="77.456" y="0.733" width="0.566" height="38.267" style="fill:rgb(35,31,32);fill-rule:nonzero;"/>
    </g>
</svg>
