<?xml version="1.0" encoding="UTF-8" standalone="no"?>
<!DOCTYPE svg PUBLIC "-//W3C//DTD SVG 1.1//EN" "http://www.w3.org/Graphics/SVG/1.1/DTD/svg11.dtd">
<svg width="100%" height="100%" viewBox="0 0 114 115" version="1.1" xmlns="http://www.w3.org/2000/svg" xmlns:xlink="http://www.w3.org/1999/xlink" xml:space="preserve" style="fill-rule:evenodd;clip-rule:evenodd;stroke-linejoin:round;stroke-miterlimit:1.41421;">
    <g>
        <g>
            <clipPath id="_clip1">
                <rect x="11.165" y="22.024" width="77.251" height="81.496"/>
            </clipPath>
            <g clip-path="url(#_clip1)">
                <path d="M75.398,58.82L89.182,65.241L69.257,101.719L44.745,66.54L57.26,59.793L70.876,69.235L75.398,58.82Z" style="fill:rgb(184,227,236);"/>
                <path d="M74.999,59.581L74.499,58.875L74.898,58.114L75.796,58.059L89.58,64.479L90.08,65.186L89.681,65.947L88.783,66.002L74.999,59.581Z" style="fill:white;fill-rule:nonzero;"/>
                <path d="M88.382,64.852L89.139,64.393L89.939,64.781L89.982,65.629L70.057,102.107L69.3,102.567L68.5,102.178L68.457,101.33L88.382,64.852Z" style="fill:white;fill-rule:nonzero;"/>
                <path d="M70.009,101.252L70.061,102.1L69.309,102.566L68.505,102.185L43.993,67.006L43.941,66.159L44.693,65.693L45.497,66.074L70.009,101.252Z" style="fill:white;fill-rule:nonzero;"/>
                <path d="M45.191,67.277L44.291,67.273L43.845,66.537L44.298,65.803L56.814,59.056L57.713,59.059L58.16,59.796L57.707,60.53L45.191,67.277Z" style="fill:white;fill-rule:nonzero;"/>
                <path d="M56.727,60.477L56.366,59.699L56.899,59.015L57.793,59.109L71.409,68.551L71.771,69.329L71.238,70.013L70.343,69.919L56.727,60.477Z" style="fill:white;fill-rule:nonzero;"/>
                <path d="M71.709,69.557L70.997,70.076L70.164,69.755L70.043,68.914L74.565,58.498L75.276,57.979L76.109,58.3L76.23,59.141L71.709,69.557Z" style="fill:white;fill-rule:nonzero;"/>
                <path d="M56.223,57.925L56.223,45.12L10.399,56.229L38.208,79.035L46.684,73.155L41.575,65.825L56.223,57.925Z" style="fill:rgb(73,125,229);"/>
                <path d="M57.122,57.925L56.672,58.66L55.773,58.66L55.323,57.925L55.323,45.12L55.773,44.385L56.672,44.385L57.122,45.12L57.122,57.925Z" style="fill:white;fill-rule:nonzero;"/>
                <path d="M55.998,44.298L56.865,44.526L57.089,45.348L56.447,45.942L10.623,57.051L9.757,56.823L9.533,56.001L10.175,55.407L55.998,44.298Z" style="fill:white;fill-rule:nonzero;"/>
                <path d="M9.809,56.87L9.516,56.067L10.106,55.426L10.99,55.588L38.798,78.394L39.091,79.197L38.5,79.837L37.617,79.675L9.809,56.87Z" style="fill:white;fill-rule:nonzero;"/>
                <path d="M38.741,79.718L37.846,79.812L37.313,79.128L37.674,78.351L46.151,72.471L47.045,72.377L47.578,73.061L47.217,73.838L38.741,79.718Z" style="fill:white;fill-rule:nonzero;"/>
                <path d="M47.436,72.688L47.488,73.536L46.736,74.002L45.932,73.621L40.823,66.291L40.771,65.443L41.523,64.977L42.327,65.358L47.436,72.688Z" style="fill:white;fill-rule:nonzero;"/>
                <path d="M42.022,66.562L41.122,66.558L40.675,65.821L41.128,65.088L55.776,57.188L56.676,57.192L57.122,57.929L56.669,58.662L42.022,66.562Z" style="fill:white;fill-rule:nonzero;"/>
                <path d="M69.872,65.994L88.246,23.826L46.44,29.475L49.267,44.629L58.453,42.42L58.453,57.996L69.872,65.994Z" style="fill:rgb(102,196,238);"/>
                <path d="M70.704,66.317L69.992,66.836L69.159,66.513L69.04,65.672L87.414,23.503L88.126,22.984L88.958,23.307L89.078,24.148L70.704,66.317Z" style="fill:white;fill-rule:nonzero;"/>
                <path d="M88.118,22.985L88.954,23.301L89.081,24.141L88.374,24.666L46.568,30.315L45.732,29.999L45.605,29.159L46.313,28.634L88.118,22.985Z" style="fill:white;fill-rule:nonzero;"/>
                <path d="M45.554,29.622L45.862,28.824L46.748,28.677L47.326,29.328L50.153,44.482L49.845,45.28L48.959,45.427L48.381,44.776L45.554,29.622Z" style="fill:white;fill-rule:nonzero;"/>
                <path d="M49.489,45.452L48.623,45.222L48.4,44.4L49.045,43.807L58.231,41.597L59.097,41.827L59.32,42.649L58.676,43.242L49.489,45.452Z" style="fill:white;fill-rule:nonzero;"/>
                <path d="M57.554,42.42L58.003,41.685L58.903,41.685L59.353,42.42L59.353,57.996L58.903,58.731L58.003,58.731L57.554,57.996L57.554,42.42Z" style="fill:white;fill-rule:nonzero;"/>
                <path d="M57.917,58.677L57.559,57.898L58.096,57.217L58.99,57.314L70.408,65.313L70.766,66.092L70.229,66.773L69.335,66.676L57.917,58.677Z" style="fill:white;fill-rule:nonzero;"/>
            </g>
        </g>
        <path d="M97.316,17.369C75.176,-4.771 39.28,-4.771 17.14,17.369C-4.999,39.509 -4.999,75.405 17.14,97.545C39.28,119.684 75.176,119.684 97.316,97.545C119.456,75.405 119.456,39.509 97.316,17.369ZM92.305,22.38C111.677,41.753 111.677,73.162 92.305,92.534C72.932,111.907 41.523,111.907 22.151,92.534C2.778,73.162 2.778,41.753 22.151,22.38C41.523,3.008 72.932,3.008 92.305,22.38Z" style="fill:rgb(240,100,100);fill-rule:nonzero;"/>
    </g>
</svg>
