<?xml version="1.0" encoding="UTF-8" standalone="no"?><!DOCTYPE svg PUBLIC "-//W3C//DTD SVG 1.1//EN" "http://www.w3.org/Graphics/SVG/1.1/DTD/svg11.dtd"><svg width="100%" height="100%" viewBox="0 0 232 114" version="1.1" xmlns="http://www.w3.org/2000/svg" xmlns:xlink="http://www.w3.org/1999/xlink" xml:space="preserve" xmlns:serif="http://www.serif.com/" style="fill-rule:evenodd;clip-rule:evenodd;stroke-linecap:round;stroke-miterlimit:1.5;"><g><rect x="5.61" y="6.09" width="220.08" height="100.724" style="fill:none;stroke:#615e5c;stroke-width:8px;"/><path d="M36.305,101.818l0,9.992l57.94,0l0,-9.992l-57.94,0Z" style="fill:#fff;"/><path d="M41.585,102.898l0,8.642l47.38,0l0,-8.642l-47.38,0Z" style="fill:#fff;stroke:#808080;stroke-width:1px;stroke-linejoin:round;"/></g><path d="M140.967,-2.67l0,17.52l39.003,0l0,-17.52l-39.003,0Z" style="fill:#fff;"/><path d="M177.09,45.093l-0.088,-39.003" style="fill:none;stroke:#615e5c;stroke-width:4px;stroke-linecap:butt;"/><path d="M142.372,6.461c0,0 -0.68,18.134 9.9,28.215c13.115,12.495 24.73,9.527 24.73,9.527" style="fill:none;stroke:#615e5c;stroke-width:1px;stroke-linejoin:round;"/><g><rect x="19.08" y="61.451" width="4.824" height="28.08" style="fill:#615e5c;fill-rule:nonzero;"/><path d="M45.216,89.531l0,-13.068c0,-3.456 -1.692,-6.48 -5.868,-6.48c-3.024,0 -5.004,1.26 -6.192,2.988l-0.432,-2.52l-4.14,0l0.324,5.4l0,13.68l4.68,0l0,-13.284c0.54,-0.9 1.764,-2.196 3.96,-2.196c2.124,0 3.024,1.332 3.024,3.168l0,12.312l4.644,0Z" style="fill:#615e5c;fill-rule:nonzero;"/><path d="M56.304,69.983c-5.22,0 -7.164,3.96 -7.164,9.432l0,1.152c0,5.436 1.944,9.432 7.164,9.432c2.7,0 4.428,-1.224 5.472,-2.844l0.396,2.376l4.14,0l-0.288,-5.4l0,-23.4l-4.68,0l0,11.484c-1.08,-1.296 -2.7,-2.232 -5.04,-2.232Zm5.04,13.752c-0.54,0.9 -1.764,2.16 -3.744,2.16c-2.664,0 -3.78,-1.98 -3.78,-5.328l0,-1.152c0,-3.348 1.116,-5.364 3.78,-5.364c1.98,0 3.204,1.296 3.744,2.196l0,7.488Z" style="fill:#615e5c;fill-rule:nonzero;"/><path d="M78.588,89.999c5.976,0 8.64,-3.996 8.64,-9.432l0,-1.152c0,-5.472 -2.664,-9.432 -8.64,-9.432c-5.976,0 -8.64,3.96 -8.64,9.432l0,1.152c0,5.436 2.664,9.432 8.64,9.432Zm0,-4.104c-2.736,0 -3.96,-2.052 -3.96,-5.328l0,-1.152c0,-3.312 1.224,-5.364 3.96,-5.364c2.736,0 3.96,2.052 3.96,5.364l0,1.152c0,3.276 -1.224,5.328 -3.96,5.328Z" style="fill:#615e5c;fill-rule:nonzero;"/><path d="M99.036,89.999c5.976,0 8.64,-3.996 8.64,-9.432l0,-1.152c0,-5.472 -2.664,-9.432 -8.64,-9.432c-5.976,0 -8.64,3.96 -8.64,9.432l0,1.152c0,5.436 2.664,9.432 8.64,9.432Zm0,-4.104c-2.736,0 -3.96,-2.052 -3.96,-5.328l0,-1.152c0,-3.312 1.224,-5.364 3.96,-5.364c2.736,0 3.96,2.052 3.96,5.364l0,1.152c0,3.276 -1.224,5.328 -3.96,5.328Z" style="fill:#615e5c;fill-rule:nonzero;"/><path d="M120.996,69.983c-2.34,0 -4.068,1.188 -5.148,2.772l-0.396,-2.304l-4.14,0l0.324,5.4l0,13.68l4.68,0l0,-12.96c0.576,-0.864 1.908,-2.016 4.428,-2.016l0.792,0l0,-4.536c-0.108,0 -0.324,-0.036 -0.54,-0.036Z" style="fill:#615e5c;fill-rule:nonzero;"/><path d="M135.36,61.451l0,18.864c0,3.6 -0.828,5.472 -3.276,5.472c-2.484,0 -3.276,-1.872 -3.276,-5.724l-4.572,0l0,0.828c0,5.796 2.016,9.108 7.956,9.108c5.724,0 7.992,-3.384 7.992,-9.072l0,-19.476l-4.824,0Z" style="fill:#f8228f;fill-rule:nonzero;"/><path d="M153.18,77.291c4.284,0.576 5.652,1.872 5.652,4.32l0,0.216c0,2.34 -1.728,3.96 -4.752,3.96l-0.324,0c-3.024,0 -4.86,-1.728 -4.86,-5.724l-4.824,0l0,0.36c0,6.444 3.42,9.576 9.864,9.576c6.264,0 9.828,-3.096 9.828,-8.352l0,-0.396c0,-4.932 -2.916,-7.128 -9.036,-7.956c-4.428,-0.612 -5.472,-1.908 -5.472,-4.212l0,-0.216c0,-2.196 1.728,-3.672 4.392,-3.672l0.324,0c3.348,0 4.716,1.872 4.716,6.084l4.824,0l0,-0.828c0,-6.336 -2.916,-9.468 -9.576,-9.468c-6.084,0 -9.612,3.168 -9.612,8.136l0,0.36c0,4.644 2.736,6.984 8.856,7.812Z" style="fill:#f8228f;fill-rule:nonzero;"/><path d="M177.624,89.999c7.02,0 10.368,-4.068 10.368,-13.788l0,-1.44c0,-9.72 -3.348,-13.788 -10.368,-13.788c-7.056,0 -10.404,4.068 -10.404,13.788l0,1.44c0,9.72 3.348,13.788 10.404,13.788Zm-0.18,-4.212c-3.924,0 -5.292,-3.24 -5.292,-9.576l0,-1.44c0,-6.336 1.368,-9.576 5.292,-9.576l0.324,0c3.924,0 5.292,3.24 5.292,9.576l0,1.44c0,6.336 -1.368,9.576 -5.292,9.576l-0.324,0Z" style="fill:#f8228f;fill-rule:nonzero;"/><path d="M212.22,61.451l-4.572,0l0,13.428l0.144,5.94l-10.368,-19.368l-5.112,0l0,28.08l4.572,0l0,-13.428l-0.144,-5.94l10.368,19.368l5.112,0l0,-28.08Z" style="fill:#f8228f;fill-rule:nonzero;"/></g></svg>