<?xml version="1.0" encoding="UTF-8" standalone="no"?>
<!DOCTYPE svg PUBLIC "-//W3C//DTD SVG 1.1//EN" "http://www.w3.org/Graphics/SVG/1.1/DTD/svg11.dtd">
<svg width="100%" height="100%" viewBox="0 0 5391 2580" version="1.1" xmlns="http://www.w3.org/2000/svg" xmlns:xlink="http://www.w3.org/1999/xlink" xml:space="preserve" xmlns:serif="http://www.serif.com/" style="fill-rule:evenodd;clip-rule:evenodd;stroke-linejoin:round;stroke-miterlimit:1.41421;">
    <g transform="matrix(3,0,0,3,0,0)">
        <g id="TUDelft" transform="matrix(25.6809,0,0,25.6809,-37860.4,-0.0631192)">
            <g transform="matrix(0.333333,0,0,0.333333,1502.57,0)">
                <path d="M38.385,44.984C40.878,44.984 42.231,43.329 42.231,41.008L42.231,29.166L47.532,29.166L47.532,41.273C47.479,46.602 43.21,48.694 38.385,48.694C33.56,48.694 29.292,46.602 29.239,41.273L29.239,29.166L34.54,29.166L34.54,41.008C34.54,43.329 35.893,44.984 38.385,44.984" style="fill:white;fill-rule:nonzero;"/>
            </g>
            <g transform="matrix(0.333333,0,0,0.333333,1502.57,0)">
                <path d="M15.505,48.3L20.806,48.3L20.806,32.879L26.745,32.879L26.745,29.167L9.567,29.167L9.567,32.879L15.505,32.879L15.505,48.3" style="fill:white;fill-rule:nonzero;"/>
            </g>
            <g transform="matrix(0.333333,0,0,0.333333,1502.57,0)">
                <path d="M28.239,19.85C26.946,20.255 25.612,19.931 25.616,18.201C25.618,15.565 31.808,13.356 32.667,11.052C32.879,10.478 32.892,10.005 32.618,10.02C32.421,10.031 32.575,10.317 32.141,10.752C29.577,13.317 25.28,13.313 21.983,14.79C19.821,15.761 13.485,18.742 14.944,25.393C15.013,25.708 15.202,26.767 15.395,26.767C15.62,26.767 15.618,26.138 15.612,25.374C15.563,21.414 20.252,20.31 21.778,17.723C21.96,17.413 22.276,16.979 22.351,17.181C22.387,17.278 22.364,17.422 22.302,17.697C21.825,19.823 19.601,21.188 20.231,22.707C21.047,24.68 23.405,23.209 24.129,21.941C24.323,21.592 24.431,21.369 24.561,21.414C24.659,21.448 24.655,21.849 24.594,22.209C24.208,24.497 23.681,25.782 22.006,27.084C21.471,27.501 20.629,27.588 20.739,27.908C20.767,27.991 21.13,27.982 21.42,27.953C25.879,27.668 29.608,22.41 30.596,18.976C30.7,18.734 30.731,18.507 30.622,18.422C30.487,18.318 30.292,18.557 30.092,18.733C29.583,19.181 28.883,19.647 28.239,19.85" style="fill:white;fill-rule:nonzero;"/>
            </g>
            <g transform="matrix(0.333333,0,0,0.333333,1502.57,0)">
                <path d="M82.92,42.124L82.92,40.877C82.92,37.193 80.833,34.594 77.059,34.594C72.845,34.594 70.882,37.856 70.882,41.752C70.882,45.676 72.581,48.697 76.848,48.697C80.03,48.697 82.362,47.188 82.76,44.165L80.11,44.165C79.817,46.1 78.837,46.868 76.876,46.868C74.302,46.868 73.449,44.579 73.449,42.124L82.92,42.124ZM73.505,40.374C73.523,38.298 74.78,36.424 76.876,36.424C79.313,36.424 80.266,38.094 80.266,40.374L73.505,40.374" style="fill:white;fill-rule:nonzero;"/>
            </g>
            <g transform="matrix(0.333333,0,0,0.333333,1502.57,0)">
                <rect x="85.973" y="29.166" width="2.52" height="19.135" style="fill:white;fill-rule:nonzero;"/>
            </g>
            <g transform="matrix(0.333333,0,0,0.333333,1502.57,0)">
                <path d="M96.388,48.3L96.388,36.749L99.461,36.749L99.461,34.997L96.388,34.997L96.388,32.849C96.388,31.311 97.129,31.047 98.562,31.047C98.984,31.047 99.41,31.102 99.834,31.125L99.834,29.034C99.244,28.9 98.642,28.769 98.031,28.769C95.646,28.769 93.869,29.964 93.869,32.511L93.869,34.997L91.273,34.997L91.273,36.749L93.869,36.749L93.869,48.3L96.388,48.3" style="fill:white;fill-rule:nonzero;"/>
            </g>
            <g transform="matrix(0.333333,0,0,0.333333,1502.57,0)">
                <path d="M100.908,34.997L100.908,36.749L103.188,36.749L103.188,45.227C103.188,46.996 103.213,48.696 106.954,48.696C107.536,48.696 108.083,48.642 108.677,48.539L108.677,46.605C108.267,46.703 107.749,46.763 107.35,46.763C106.449,46.763 105.708,46.31 105.708,45.359L105.708,36.749L108.782,36.749L108.782,34.997L105.708,34.997L105.708,31.366L103.188,32.161L103.188,34.999L100.908,34.997" style="fill:white;fill-rule:nonzero;"/>
            </g>
            <g transform="matrix(0.333333,0,0,0.333333,1502.57,0)">
                <path d="M55.487,31.444L59.407,31.444C63.83,31.444 65.665,34.781 65.665,38.734C65.665,42.688 63.83,46.022 59.407,46.022L55.487,46.022L55.487,31.444ZM52.833,48.3L59.406,48.3C67.589,48.3 68.448,41.373 68.448,38.734C68.448,36.095 67.589,29.166 59.406,29.166L52.833,29.166L52.833,48.3" style="fill:white;fill-rule:nonzero;"/>
            </g>
        </g>
        <g id="_3Dgeoinfo" serif:id="3Dgeoinfo" transform="matrix(0.682293,0,0,0.682293,239.435,56.4076)">
            <g transform="matrix(1.47069,0,0,1.47069,-357.925,-83.3191)">
                <path d="M870.143,524.86L870.143,512.163L875.217,512.26C893.17,512.26 904.143,511.123 908.143,508.847C912.143,506.573 914.143,500.363 914.143,490.22C914.143,478.517 912.407,471.363 908.93,468.76C905.453,466.16 895.85,464.86 880.123,464.86C865.627,464.86 856.673,466.13 853.263,468.67C849.85,471.21 848.143,477.883 848.143,488.697L848.077,494.46L833.817,494.46L833.913,489.197C833.913,473.993 836.877,464.037 842.8,459.327C848.727,454.617 861.227,452.26 880.3,452.26C899.897,452.26 912.837,454.45 919.12,458.833C925.403,463.213 928.543,472.25 928.543,485.947C928.543,497.563 927.047,505.513 924.053,509.8C921.057,514.083 915.067,516.777 906.083,517.883L906.083,518.56C916.2,519.933 922.907,522.673 926.2,526.783C929.497,530.897 931.143,538.53 931.143,549.69C931.143,565.22 927.937,575.53 921.52,580.623C915.103,585.713 902.157,588.26 882.677,588.26C861.633,588.26 847.857,585.913 841.34,581.217C834.827,576.52 831.57,566.577 831.57,551.383L831.57,543.46L846.22,543.46L846.22,551.183C846.22,562.583 848.14,569.513 851.983,571.973C855.823,574.43 866.73,575.66 884.703,575.66C898.64,575.66 907.467,574.103 911.177,570.993C914.89,567.88 916.743,560.43 916.743,548.637C916.743,538.747 914.987,532.31 911.467,529.33C907.95,526.35 900.297,524.86 888.503,524.86L875.81,524.86L870.143,524.86Z" style="fill:white;fill-rule:nonzero;"/>
            </g>
            <g transform="matrix(1.47069,0,0,1.47069,-357.925,-83.3191)">
                <path d="M956.6,586.86L956.6,453.46L1018.28,453.46C1037.36,453.46 1050.28,457.663 1057.05,466.067C1063.82,474.47 1067.2,490.563 1067.2,514.343C1067.2,543.27 1064.19,562.59 1058.17,572.297C1052.15,582.007 1040.12,586.86 1022.09,586.86L956.6,586.86ZM971.6,574.26L1015.06,574.26C1030.99,574.26 1041.26,571.06 1045.88,564.663C1050.49,558.267 1052.8,544.003 1052.8,521.877C1052.8,497.593 1050.8,482.22 1046.8,475.757C1042.81,469.293 1033.23,466.06 1018.09,466.06L971.6,466.06L971.6,574.26Z" style="fill:white;fill-rule:nonzero;"/>
            </g>
            <g transform="matrix(1.47069,0,0,1.47069,-357.925,-83.3191)">
                <path d="M1164.86,493.46L1164.86,592.897C1164.86,606.447 1161.94,615.76 1156.08,620.84C1150.23,625.92 1139.5,628.46 1123.89,628.46C1109.97,628.46 1100.47,626.31 1095.4,622.01C1090.32,617.707 1087.79,609.657 1087.79,597.86L1100.97,597.86C1100.97,605.85 1102.45,611.05 1105.41,613.453C1108.38,615.857 1114.87,617.06 1124.9,617.06C1135.31,617.06 1142.31,615.5 1145.89,612.383C1149.47,609.267 1151.26,603.16 1151.26,594.067L1151.26,575.33L1150.97,575.233C1147.46,583.917 1137.32,588.26 1120.54,588.26C1106.76,588.26 1097.27,584.853 1092.07,578.043C1086.87,571.23 1084.26,558.8 1084.26,540.747C1084.26,522.04 1086.91,509.25 1092.21,502.373C1097.51,495.497 1107.35,492.06 1121.71,492.06C1136.99,492.06 1146.97,496.76 1151.65,506.16L1151.95,506.063L1151.26,493.46L1164.86,493.46ZM1124.28,503.46C1113.56,503.46 1106.62,505.72 1103.44,510.243C1100.26,514.767 1098.66,524.673 1098.66,539.967C1098.66,555.387 1100.26,565.39 1103.44,569.98C1106.62,574.567 1113.56,576.86 1124.28,576.86C1135.12,576.86 1142.26,574.34 1145.7,569.297C1149.14,564.253 1150.86,553.76 1150.86,537.817C1150.86,523.763 1149.14,514.523 1145.7,510.097C1142.26,505.673 1135.12,503.46 1124.28,503.46Z" style="fill:white;fill-rule:nonzero;"/>
            </g>
            <g transform="matrix(1.47069,0,0,1.47069,-357.925,-83.3191)">
                <path d="M1253.67,558.66L1267.63,558.66L1267.72,562.077C1267.72,571.783 1264.77,578.573 1258.87,582.447C1252.98,586.323 1242.63,588.26 1227.84,588.26C1210.64,588.26 1199.35,585.117 1193.98,578.827C1188.6,572.537 1185.92,559.32 1185.92,539.183C1185.92,520.543 1188.62,508.03 1194.03,501.64C1199.44,495.253 1210.03,492.06 1225.8,492.06C1243,492.06 1254.27,494.827 1259.62,500.363C1264.96,505.9 1267.63,517.553 1267.63,535.333L1267.63,542.66L1200.45,542.66C1200.45,557.383 1202.03,566.763 1205.18,570.803C1208.34,574.84 1215.71,576.86 1227.3,576.86C1238.31,576.86 1245.45,575.903 1248.74,573.99C1252.02,572.08 1253.67,567.943 1253.67,561.583L1253.67,558.66ZM1253.67,532.06L1253.57,527.667C1253.57,517.58 1251.91,511.027 1248.59,508C1245.27,504.973 1238.11,503.46 1227.11,503.46C1216.04,503.46 1208.86,505.233 1205.57,508.78C1202.28,512.327 1200.64,520.087 1200.64,532.06L1253.67,532.06Z" style="fill:white;fill-rule:nonzero;"/>
            </g>
            <g transform="matrix(1.47069,0,0,1.47069,-357.925,-83.3191)">
                <path d="M1327.76,492.06C1344.98,492.06 1356.17,495.057 1361.3,501.053C1366.44,507.05 1369,520.083 1369,540.157C1369,560.233 1366.44,573.267 1361.3,579.263C1356.17,585.26 1344.98,588.26 1327.76,588.26C1310.59,588.26 1299.44,585.26 1294.31,579.263C1289.17,573.267 1286.6,560.233 1286.6,540.157C1286.6,520.083 1289.17,507.05 1294.31,501.053C1299.44,495.057 1310.59,492.06 1327.76,492.06ZM1327.76,503.46C1315.69,503.46 1308.22,505.43 1305.33,509.367C1302.45,513.303 1301,523.567 1301,540.16C1301,556.753 1302.45,567.02 1305.33,570.957C1308.22,574.893 1315.69,576.86 1327.76,576.86C1339.88,576.86 1347.39,574.893 1350.27,570.957C1353.16,567.02 1354.6,556.753 1354.6,540.16C1354.6,523.567 1353.16,513.303 1350.27,509.367C1347.39,505.43 1339.88,503.46 1327.76,503.46Z" style="fill:white;fill-rule:nonzero;"/>
            </g>
            <g transform="matrix(1.47069,0,0,1.47069,-357.925,-83.3191)">
                <path d="M1403.98,453.46L1403.98,468.86L1390.38,468.86L1390.38,453.46L1403.98,453.46ZM1403.98,493.46L1403.98,586.86L1390.38,586.86L1390.38,493.46L1403.98,493.46Z" style="fill:white;fill-rule:nonzero;"/>
            </g>
            <g transform="matrix(1.47069,0,0,1.47069,-357.925,-83.3191)">
                <path d="M1427.97,493.46L1441.09,493.46L1440.7,506.16L1441.09,506.453C1445.26,496.857 1455.62,492.06 1472.17,492.06C1485.52,492.06 1494.56,494.407 1499.29,499.1C1504.01,503.793 1506.37,512.79 1506.37,526.09L1506.37,586.86L1492.77,586.86L1492.77,527.263L1492.77,523.743C1492.77,515.75 1491.24,510.37 1488.17,507.607C1485.1,504.843 1479.2,503.46 1470.45,503.46C1451.2,503.46 1441.57,512.533 1441.57,530.683L1441.57,586.86L1427.97,586.86L1427.97,493.46Z" style="fill:white;fill-rule:nonzero;"/>
            </g>
            <g transform="matrix(1.47069,0,0,1.47069,-357.925,-83.3191)">
                <path d="M1534.7,586.86L1534.7,504.86L1520.5,504.86L1520.5,493.46L1534.7,493.46L1534.7,479.57C1534.7,461.363 1544.13,452.26 1563,452.26C1565.81,452.26 1569.11,452.433 1572.9,452.777L1572.9,464.12C1568.44,463.813 1565.19,463.66 1563.16,463.66C1553.25,463.66 1548.3,468.54 1548.3,478.3L1548.3,493.46L1572.9,493.46L1572.9,504.86L1548.3,504.86L1548.3,586.86L1534.7,586.86Z" style="fill:white;fill-rule:nonzero;"/>
            </g>
            <g transform="matrix(1.47069,0,0,1.47069,-357.925,-83.3191)">
                <path d="M1622.68,492.06C1639.91,492.06 1651.09,495.057 1656.22,501.053C1661.36,507.05 1663.93,520.083 1663.93,540.157C1663.93,560.233 1661.36,573.267 1656.22,579.263C1651.09,585.26 1639.91,588.26 1622.68,588.26C1605.52,588.26 1594.37,585.26 1589.23,579.263C1584.09,573.267 1581.53,560.233 1581.53,540.157C1581.53,520.083 1584.09,507.05 1589.23,501.053C1594.37,495.057 1605.52,492.06 1622.68,492.06ZM1622.68,503.46C1610.61,503.46 1603.14,505.43 1600.25,509.367C1597.37,513.303 1595.93,523.567 1595.93,540.16C1595.93,556.753 1597.37,567.02 1600.25,570.957C1603.14,574.893 1610.61,576.86 1622.68,576.86C1634.8,576.86 1642.31,574.893 1645.2,570.957C1648.08,567.02 1649.53,556.753 1649.53,540.16C1649.53,523.567 1648.08,513.303 1645.2,509.367C1642.31,505.43 1634.8,503.46 1622.68,503.46Z" style="fill:white;fill-rule:nonzero;"/>
            </g>
        </g>
        <g id="faces">
            <g transform="matrix(0.333333,0,0,0.333333,-7.57912e-14,7.57912e-14)">
                <path d="M1902.58,1195.49L2273.19,1378.52L1737.49,2418.31L1078.42,1415.56L1414.91,1223.23L1781,1492.37L1902.58,1195.49Z" style="fill:white;"/>
            </g>
            <g transform="matrix(0.333333,0,0,0.333333,0,0)">
                <path d="M1387,1170L1387,805L154.954,1121.64L902.647,1771.71L1130.54,1604.1L993.175,1395.15L1387,1170Z" style="fill:white;"/>
            </g>
            <g transform="matrix(0.333333,0,0,0.333333,0,0)">
                <path d="M1754,1400L2248,198L1124,359L1200,791L1447,728L1447,1172L1754,1400Z" style="fill:white;"/>
            </g>
        </g>
    </g>
</svg>
