<?xml version="1.0" encoding="UTF-8" standalone="no"?>
<!DOCTYPE svg PUBLIC "-//W3C//DTD SVG 1.1//EN" "http://www.w3.org/Graphics/SVG/1.1/DTD/svg11.dtd">
<svg width="100%" height="100%" viewBox="0 0 2066 623" version="1.1" xmlns="http://www.w3.org/2000/svg" xmlns:xlink="http://www.w3.org/1999/xlink" xml:space="preserve" xmlns:serif="http://www.serif.com/" style="fill-rule:evenodd;clip-rule:evenodd;stroke-linejoin:round;stroke-miterlimit:1.41421;">
    <g transform="matrix(0.75,0,0,0.75,-0.496061,-0.248025)">
        <path d="M886.558,355.383L886.558,339.392L892.906,339.514C915.367,339.514 929.1,338.09 934.104,335.241C939.109,332.393 941.612,324.621 941.612,311.926C941.612,297.278 939.435,288.326 935.081,285.07C930.727,281.815 918.703,280.188 899.009,280.188C880.861,280.188 869.651,281.775 865.379,284.948C861.106,288.122 858.97,296.464 858.97,309.973L858.97,317.175L841.148,317.175L841.27,310.583C841.27,291.54 844.973,279.069 852.378,273.169C859.784,267.269 875.409,264.319 899.253,264.319C923.749,264.319 939.923,267.065 947.776,272.558C955.63,278.051 959.556,289.384 959.556,306.555C959.556,321.122 957.684,331.091 953.941,336.462C950.197,341.833 942.71,345.21 931.48,346.594L931.48,347.448C944.094,349.157 952.456,352.575 956.565,357.702C960.675,362.829 962.73,372.351 962.73,386.267C962.73,405.635 958.722,418.493 950.706,424.841C942.69,431.189 926.516,434.362 902.183,434.362C875.897,434.362 858.685,431.433 850.547,425.573C842.409,419.714 838.34,407.304 838.34,388.342L838.34,378.454L856.651,378.454L856.651,388.098C856.651,402.258 859.052,410.864 863.853,413.916C868.654,416.967 882.286,418.493 904.747,418.493C922.162,418.493 933.189,416.561 937.828,412.695C942.466,408.829 944.786,399.572 944.786,384.924C944.786,372.636 942.588,364.64 938.194,360.937C933.799,357.234 924.237,355.383 909.507,355.383L893.638,355.383L886.558,355.383Z" style="fill:white;fill-rule:nonzero;"/>
        <path d="M994.712,432.654L994.712,266.028L1071.86,266.028C1095.7,266.028 1111.86,271.277 1120.32,281.775C1128.79,292.273 1133.02,312.374 1133.02,342.077C1133.02,378.21 1129.25,402.339 1121.73,414.465C1114.2,426.591 1099.16,432.653 1076.62,432.653L994.712,432.653L994.712,432.654ZM1013.51,416.785L1067.83,416.785C1087.77,416.785 1100.63,412.798 1106.41,404.822C1112.18,396.847 1115.07,379.066 1115.07,351.478C1115.07,321.204 1112.57,302.039 1107.57,293.983C1102.56,285.926 1090.58,281.898 1071.62,281.898L1013.51,281.898L1013.51,416.785Z" style="fill:white;fill-rule:nonzero;"/>
        <path d="M1317.34,315.954L1317.34,440.222C1317.34,457.149 1313.68,468.786 1306.35,475.134C1299.03,481.482 1285.6,484.655 1266.07,484.655C1248.65,484.655 1236.77,481.97 1230.43,476.599C1224.08,471.228 1220.9,461.177 1220.9,446.447L1237.38,446.447C1237.38,456.457 1239.24,462.968 1242.94,465.979C1246.64,468.99 1254.76,470.495 1267.29,470.495C1280.31,470.495 1289.06,468.542 1293.54,464.636C1298.01,460.73 1300.25,453.08 1300.25,441.687L1300.25,418.249L1299.88,418.127C1295.49,428.951 1282.79,434.362 1261.8,434.362C1244.55,434.362 1232.66,430.11 1226.15,421.606C1219.64,413.102 1216.39,397.579 1216.39,375.036C1216.39,351.68 1219.7,335.709 1226.34,327.124C1232.97,318.538 1245.28,314.245 1263.26,314.245C1282.39,314.245 1294.88,320.105 1300.74,331.823L1301.11,331.701L1300.25,315.954L1317.34,315.954ZM1266.44,328.405C1253.01,328.405 1244.3,331.233 1240.31,336.889C1236.33,342.545 1234.33,354.935 1234.33,374.06C1234.33,393.347 1236.33,405.859 1240.31,411.596C1244.3,417.334 1253.01,420.202 1266.44,420.202C1280.03,420.202 1288.98,417.049 1293.29,410.742C1297.61,404.435 1299.76,391.312 1299.76,371.374C1299.76,353.796 1297.61,342.24 1293.29,336.706C1288.98,331.172 1280.03,328.405 1266.44,328.405Z" style="fill:white;fill-rule:nonzero;"/>
        <path d="M1428.43,397.375L1445.89,397.375L1446.01,401.648C1446.01,413.773 1442.33,422.257 1434.96,427.099C1427.6,431.941 1414.68,434.362 1396.2,434.362C1374.72,434.362 1360.62,430.436 1353.91,422.583C1347.19,414.73 1343.84,398.23 1343.84,373.083C1343.84,349.808 1347.21,334.183 1353.97,326.208C1360.72,318.233 1373.95,314.245 1393.64,314.245C1415.12,314.245 1429.2,317.704 1435.88,324.621C1442.55,331.539 1445.89,346.106 1445.89,368.322L1445.89,377.478L1361.9,377.478C1361.9,395.87 1363.88,407.588 1367.82,412.634C1371.77,417.68 1380.99,420.202 1395.47,420.202C1409.22,420.202 1418.16,419.002 1422.27,416.601C1426.38,414.201 1428.43,409.013 1428.43,401.037L1428.43,397.375ZM1428.43,364.172L1428.31,358.679C1428.31,346.065 1426.23,337.866 1422.08,334.082C1417.93,330.298 1408.98,328.405 1395.23,328.405C1381.39,328.405 1372.42,330.623 1368.31,335.058C1364.2,339.494 1362.15,349.198 1362.15,364.172L1428.43,364.172Z" style="fill:white;fill-rule:nonzero;"/>
        <path d="M1521.08,314.245C1542.64,314.245 1556.64,317.989 1563.07,325.476C1569.5,332.963 1572.72,349.239 1572.72,374.304C1572.72,399.369 1569.5,415.645 1563.07,423.132C1556.64,430.619 1542.64,434.362 1521.08,434.362C1499.6,434.362 1485.64,430.619 1479.21,423.132C1472.78,415.645 1469.57,399.369 1469.57,374.304C1469.57,349.239 1472.78,332.963 1479.21,325.476C1485.64,317.989 1499.6,314.245 1521.08,314.245ZM1521.08,328.405C1505.94,328.405 1496.56,330.867 1492.94,335.791C1489.32,340.714 1487.51,353.552 1487.51,374.304C1487.51,395.056 1489.32,407.894 1492.94,412.817C1496.56,417.741 1505.94,420.202 1521.08,420.202C1536.3,420.202 1545.72,417.741 1549.34,412.817C1552.96,407.894 1554.77,395.056 1554.77,374.304C1554.77,353.552 1552.96,340.714 1549.34,335.791C1545.72,330.867 1536.3,328.405 1521.08,328.405Z" style="fill:white;fill-rule:nonzero;"/>
        <path d="M1616.42,266.028L1616.42,285.193L1599.33,285.193L1599.33,266.028L1616.42,266.028ZM1616.42,315.954L1616.42,432.654L1599.33,432.654L1599.33,315.954L1616.42,315.954Z" style="fill:white;fill-rule:nonzero;"/>
        <path d="M1646.32,315.954L1662.8,315.954L1662.31,331.823L1662.8,332.19C1668.01,320.227 1680.95,314.245 1701.62,314.245C1718.3,314.245 1729.59,317.175 1735.49,323.034C1741.39,328.894 1744.34,340.124 1744.34,356.726L1744.34,432.654L1727.25,432.654L1727.25,358.191L1727.25,353.796C1727.25,343.786 1725.34,337.052 1721.52,333.593C1717.69,330.135 1710.33,328.405 1699.42,328.405C1675.41,328.405 1663.41,339.758 1663.41,362.463L1663.41,432.653L1646.32,432.653L1646.32,315.954Z" style="fill:white;fill-rule:nonzero;"/>
        <path d="M1779.75,432.654L1779.75,330.114L1761.93,330.114L1761.93,315.954L1779.75,315.954L1779.75,298.62C1779.75,275.752 1791.51,264.319 1815.03,264.319C1818.53,264.319 1822.64,264.603 1827.36,265.173L1827.36,279.333C1821.82,278.764 1817.8,278.479 1815.27,278.479C1802.98,278.479 1796.84,284.664 1796.84,297.033L1796.84,315.954L1827.36,315.954L1827.36,330.114L1796.84,330.114L1796.84,432.653L1779.75,432.653L1779.75,432.654Z" style="fill:white;fill-rule:nonzero;"/>
        <path d="M1889.73,314.245C1911.3,314.245 1925.29,317.989 1931.72,325.476C1938.15,332.963 1941.37,349.239 1941.37,374.304C1941.37,399.369 1938.15,415.645 1931.72,423.132C1925.29,430.619 1911.3,434.362 1889.73,434.362C1868.25,434.362 1854.29,430.619 1847.86,423.132C1841.43,415.645 1838.22,399.369 1838.22,374.304C1838.22,349.239 1841.43,332.963 1847.86,325.476C1854.29,317.989 1868.25,314.245 1889.73,314.245ZM1889.73,328.405C1874.59,328.405 1865.21,330.867 1861.59,335.791C1857.97,340.714 1856.16,353.552 1856.16,374.304C1856.16,395.056 1857.97,407.894 1861.59,412.817C1865.21,417.741 1874.59,420.202 1889.73,420.202C1904.95,420.202 1914.37,417.741 1917.99,412.817C1921.61,407.894 1923.42,395.056 1923.42,374.304C1923.42,353.552 1921.61,340.714 1917.99,335.791C1914.37,330.867 1904.95,328.405 1889.73,328.405Z" style="fill:white;fill-rule:nonzero;"/>
        <path d="M1969.69,315.954L1986.78,315.954L1985.07,329.382L1985.44,329.748C1992.19,318.762 2003.34,313.269 2018.88,313.269C2040.37,313.269 2051.11,324.336 2051.11,346.472L2050.99,354.529L2034.14,354.529L2034.51,351.599C2034.75,348.506 2034.88,346.431 2034.88,345.373C2034.88,333.41 2028.37,327.429 2015.34,327.429C1996.3,327.429 1986.78,339.188 1986.78,362.707L1986.78,432.654L1969.69,432.654L1969.69,315.954Z" style="fill:white;fill-rule:nonzero;"/>
        <path d="M2067.59,315.954L2084.68,315.954L2084.31,333.532L2084.68,333.899C2091.27,320.796 2103.97,314.245 2122.77,314.245C2142.54,314.245 2154.55,320.796 2158.78,333.899L2159.26,333.899C2166.59,320.796 2179.98,314.245 2199.43,314.245C2226.93,314.245 2240.69,328.283 2240.69,356.36L2240.69,432.654L2223.6,432.654L2223.6,354.773C2223.6,344.519 2221.76,337.561 2218.1,333.899C2214.44,330.237 2207.52,328.405 2197.35,328.405C2183.84,328.405 2174.69,330.949 2169.89,336.035C2165.08,341.121 2162.68,350.826 2162.68,365.149L2162.68,432.654L2145.59,432.654L2145.59,356.36L2145.35,350.988C2145.35,335.933 2136.76,328.405 2119.59,328.405C2096.32,328.405 2084.68,341.06 2084.68,366.369L2084.68,432.654L2067.59,432.654L2067.59,315.954Z" style="fill:white;fill-rule:nonzero;"/>
        <path d="M2291.83,348.669L2274.86,348.669C2274.86,335.079 2277.93,325.944 2284.08,321.264C2290.22,316.585 2302.25,314.245 2320.15,314.245C2339.6,314.245 2352.74,317.114 2359.58,322.851C2366.41,328.589 2369.83,339.514 2369.83,355.627L2369.83,432.654L2352.74,432.654L2354.09,420.08L2353.72,419.958C2347.21,429.561 2333.99,434.362 2314.05,434.362C2284.59,434.362 2269.86,422.522 2269.86,398.84C2269.86,384.761 2273.15,375.036 2279.75,369.665C2286.34,364.294 2298.26,361.609 2315.51,361.609C2336.02,361.609 2348.31,365.637 2352.38,373.694L2352.74,373.571L2352.74,359.411C2352.74,346.065 2350.91,337.418 2347.25,333.471C2343.59,329.524 2335.57,327.551 2323.2,327.551C2302.21,327.551 2291.71,333.451 2291.71,345.251C2291.71,345.821 2291.75,346.96 2291.83,348.669ZM2319.3,374.914C2306.19,374.914 2297.67,376.298 2293.72,379.065C2289.78,381.832 2287.8,387.772 2287.8,396.887C2287.8,406.327 2289.76,412.573 2293.66,415.625C2297.57,418.676 2305.5,420.202 2317.47,420.202C2341.55,420.202 2353.6,412.878 2353.6,398.23C2353.6,389.034 2351.26,382.849 2346.58,379.675C2341.9,376.501 2332.8,374.914 2319.3,374.914Z" style="fill:white;fill-rule:nonzero;"/>
        <path d="M2463.34,315.954L2463.34,330.114L2418.42,330.114L2418.42,401.526C2418.42,413.977 2423.95,420.202 2435.02,420.202C2446.01,420.202 2451.5,414.628 2451.5,403.479L2451.62,397.741L2451.87,391.272L2467.74,391.272L2467.86,399.939C2467.86,422.888 2456.95,434.362 2435.14,434.362C2412.6,434.362 2401.33,424.8 2401.33,405.676L2401.33,401.526L2401.33,330.114L2385.22,330.114L2385.22,315.954L2401.33,315.954L2401.33,287.878L2418.42,287.878L2418.42,315.954L2463.34,315.954Z" style="fill:white;fill-rule:nonzero;"/>
        <path d="M2499.96,266.028L2499.96,285.193L2482.87,285.193L2482.87,266.028L2499.96,266.028ZM2499.96,315.954L2499.96,432.654L2482.87,432.654L2482.87,315.954L2499.96,315.954Z" style="fill:white;fill-rule:nonzero;"/>
        <path d="M2578.09,314.245C2599.66,314.245 2613.65,317.989 2620.08,325.476C2626.51,332.963 2629.73,349.239 2629.73,374.304C2629.73,399.369 2626.51,415.645 2620.08,423.132C2613.65,430.619 2599.66,434.362 2578.09,434.362C2556.61,434.362 2542.65,430.619 2536.22,423.132C2529.79,415.645 2526.58,399.369 2526.58,374.304C2526.58,349.239 2529.79,332.963 2536.22,325.476C2542.65,317.989 2556.61,314.245 2578.09,314.245ZM2578.09,328.405C2562.95,328.405 2553.58,330.867 2549.95,335.791C2546.33,340.714 2544.52,353.552 2544.52,374.304C2544.52,395.056 2546.33,407.894 2549.95,412.817C2553.58,417.741 2562.95,420.202 2578.09,420.202C2593.31,420.202 2602.73,417.741 2606.35,412.817C2609.97,407.894 2611.78,395.056 2611.78,374.304C2611.78,353.552 2609.97,340.714 2606.35,335.791C2602.73,330.867 2593.31,328.405 2578.09,328.405Z" style="fill:white;fill-rule:nonzero;"/>
        <path d="M2656.33,315.954L2672.81,315.954L2672.32,331.823L2672.81,332.19C2678.02,320.227 2690.96,314.245 2711.63,314.245C2728.31,314.245 2739.6,317.175 2745.5,323.034C2751.4,328.894 2754.35,340.124 2754.35,356.726L2754.35,432.654L2737.26,432.654L2737.26,358.191L2737.26,353.796C2737.26,343.786 2735.35,337.052 2731.53,333.593C2727.7,330.135 2720.34,328.405 2709.43,328.405C2685.42,328.405 2673.42,339.758 2673.42,362.463L2673.42,432.653L2656.33,432.653L2656.33,315.954Z" style="fill:white;fill-rule:nonzero;"/>
    </g>
    <g transform="matrix(0.75,0,0,0.75,-0.496061,-0.248025)">
        <path d="M2181.9,543.714L2181.9,537.317L2184.44,537.366C2193.42,537.366 2198.92,536.796 2200.92,535.657C2202.92,534.518 2203.92,531.409 2203.92,526.331C2203.92,520.472 2203.05,516.891 2201.31,515.589C2199.57,514.287 2194.76,513.636 2186.88,513.636C2179.62,513.636 2175.14,514.27 2173.43,515.54C2171.72,516.809 2170.87,520.146 2170.87,525.55L2170.87,528.431L2163.74,528.431L2163.78,525.794C2163.78,518.177 2165.27,513.188 2168.23,510.828C2171.19,508.468 2177.44,507.288 2186.98,507.288C2196.78,507.288 2203.25,508.387 2206.39,510.584C2209.53,512.781 2211.1,517.314 2211.1,524.183C2211.1,530.009 2210.35,533.997 2208.85,536.145C2207.36,538.294 2204.36,539.645 2199.87,540.198L2199.87,540.54C2204.91,541.224 2208.26,542.591 2209.9,544.642C2211.55,546.692 2212.37,550.501 2212.37,556.067C2212.37,563.815 2210.77,568.958 2207.56,571.497C2204.35,574.036 2197.88,575.306 2188.15,575.306C2177.64,575.306 2170.75,574.134 2167.5,571.79C2164.24,569.446 2162.61,564.482 2162.61,556.897L2162.61,552.942L2169.94,552.942L2169.94,556.8C2169.94,562.464 2170.9,565.906 2172.82,567.127C2174.74,568.348 2180.19,568.958 2189.18,568.958C2196.14,568.958 2200.55,568.185 2202.41,566.639C2204.26,565.092 2205.19,561.39 2205.19,555.53C2205.19,550.615 2204.31,547.417 2202.55,545.935C2200.8,544.454 2196.97,543.714 2191.08,543.714L2184.73,543.714L2181.9,543.714Z" style="fill:white;fill-rule:nonzero;"/>
        <path d="M2263.84,507.972L2263.84,574.622L2257,574.622L2257.35,568.567L2257.15,568.518C2255,573.043 2250.01,575.306 2242.16,575.306C2235,575.306 2230.11,573.564 2227.49,570.081C2224.87,566.598 2223.56,560.104 2223.56,550.599C2223.56,541.842 2224.88,535.763 2227.51,532.361C2230.15,528.96 2234.87,527.259 2241.67,527.259C2250.17,527.259 2255.23,529.456 2256.86,533.851L2257,533.753L2257,507.972L2263.84,507.972ZM2243.28,532.923C2238.24,532.923 2234.89,534.087 2233.22,536.414C2231.56,538.741 2230.73,543.453 2230.73,550.55C2230.73,558.362 2231.56,563.497 2233.2,565.955C2234.84,568.413 2238.25,569.642 2243.43,569.642C2249.06,569.642 2252.72,568.413 2254.42,565.955C2256.11,563.497 2256.95,558.151 2256.95,549.915C2256.95,543.242 2256.02,538.741 2254.15,536.414C2252.28,534.087 2248.65,532.923 2243.28,532.923Z" style="fill:white;fill-rule:nonzero;"/>
        <rect x="2275.85" y="565.638" width="7.52" height="8.984" style="fill:white;"/>
        <path d="M2295.38,574.622L2295.38,507.972L2302.22,507.972L2302.22,533.899L2302.36,534.046C2303.93,529.521 2309.03,527.259 2317.69,527.259C2324.53,527.259 2329.25,529.033 2331.85,532.581C2334.46,536.129 2335.76,542.558 2335.76,551.868C2335.76,560.69 2334.39,566.801 2331.64,570.203C2328.88,573.605 2323.91,575.306 2316.72,575.306C2309.39,575.306 2304.51,573.141 2302.07,568.811L2301.87,568.86L2302.22,574.622L2295.38,574.622ZM2315.94,532.923C2310.57,532.923 2306.97,534.07 2305.14,536.365C2303.32,538.66 2302.41,543.226 2302.41,550.061C2302.41,558.492 2303.23,563.864 2304.88,566.175C2306.52,568.486 2310.3,569.642 2316.23,569.642C2321.24,569.642 2324.55,568.462 2326.17,566.101C2327.78,563.741 2328.58,558.899 2328.58,551.575C2328.58,543.86 2327.78,538.823 2326.19,536.463C2324.6,534.103 2321.18,532.923 2315.94,532.923Z" style="fill:white;fill-rule:nonzero;"/>
        <path d="M2353.34,507.972L2353.34,546.692L2356.47,546.692L2372.97,527.942L2381.56,527.942L2361.59,549.378L2385.18,574.622L2375.95,574.622L2356.12,552.015L2353.34,552.015L2353.34,574.622L2346.5,574.622L2346.5,507.972L2353.34,507.972Z" style="fill:white;fill-rule:nonzero;"/>
        <rect x="2389.52" y="565.638" width="7.52" height="8.984" style="fill:white;"/>
        <path d="M2433.81,527.942L2433.81,533.606L2415.84,533.606L2415.84,562.171C2415.84,567.151 2418.05,569.642 2422.48,569.642C2426.88,569.642 2429.07,567.412 2429.07,562.952L2429.12,560.657L2429.22,558.069L2435.57,558.069L2435.62,561.536C2435.62,570.716 2431.26,575.306 2422.53,575.306C2413.51,575.306 2409.01,571.481 2409.01,563.831L2409.01,562.171L2409.01,533.606L2402.56,533.606L2402.56,527.942L2409.01,527.942L2409.01,516.712L2415.84,516.712L2415.84,527.942L2433.81,527.942Z" style="fill:white;fill-rule:nonzero;"/>
        <path d="M2479.71,527.942L2479.71,574.622L2472.87,574.622L2473.36,568.518L2473.22,568.372C2470.84,572.994 2465.76,575.306 2457.98,575.306C2447.08,575.306 2441.62,569.869 2441.62,558.997L2441.62,527.942L2448.46,527.942L2448.46,558.997C2448.46,563.229 2449.16,566.061 2450.56,567.493C2451.96,568.925 2454.71,569.642 2458.81,569.642C2464.18,569.642 2467.87,568.575 2469.87,566.443C2471.87,564.311 2472.87,560.397 2472.87,554.7L2472.87,527.942L2479.71,527.942Z" style="fill:white;fill-rule:nonzero;"/>
        <path d="M2531.37,507.972L2531.37,574.622L2524.53,574.622L2524.88,568.567L2524.68,568.518C2522.53,573.043 2517.53,575.306 2509.69,575.306C2502.53,575.306 2497.64,573.564 2495.02,570.081C2492.4,566.598 2491.09,560.104 2491.09,550.599C2491.09,541.842 2492.41,535.763 2495.04,532.361C2497.68,528.96 2502.4,527.259 2509.2,527.259C2517.7,527.259 2522.76,529.456 2524.39,533.851L2524.53,533.753L2524.53,507.972L2531.37,507.972ZM2510.81,532.923C2505.77,532.923 2502.41,534.087 2500.76,536.414C2499.1,538.741 2498.26,543.453 2498.26,550.55C2498.26,558.362 2499.09,563.497 2500.73,565.955C2502.37,568.413 2505.78,569.642 2510.96,569.642C2516.59,569.642 2520.25,568.413 2521.95,565.955C2523.64,563.497 2524.49,558.151 2524.49,549.915C2524.49,543.242 2523.55,538.741 2521.68,536.414C2519.81,534.087 2516.18,532.923 2510.81,532.923Z" style="fill:white;fill-rule:nonzero;"/>
        <path d="M2575.85,560.511L2582.83,560.511L2582.88,562.22C2582.88,567.07 2581.41,570.463 2578.46,572.4C2575.52,574.337 2570.35,575.306 2562.96,575.306C2554.37,575.306 2548.73,573.735 2546.04,570.594C2543.36,567.452 2542.01,560.852 2542.01,550.794C2542.01,541.484 2543.36,535.234 2546.07,532.044C2548.77,528.854 2554.06,527.259 2561.93,527.259C2570.53,527.259 2576.16,528.642 2578.83,531.409C2581.5,534.176 2582.83,540.003 2582.83,548.89L2582.83,552.552L2549.24,552.552C2549.24,559.908 2550.03,564.596 2551.61,566.614C2553.19,568.632 2556.87,569.642 2562.67,569.642C2568.17,569.642 2571.74,569.161 2573.39,568.201C2575.03,567.241 2575.85,565.166 2575.85,561.976L2575.85,560.511ZM2575.85,547.229L2575.8,545.032C2575.8,539.987 2574.97,536.707 2573.31,535.193C2571.65,533.68 2568.07,532.923 2562.57,532.923C2557.03,532.923 2553.45,533.81 2551.8,535.584C2550.16,537.358 2549.34,541.24 2549.34,547.229L2575.85,547.229Z" style="fill:white;fill-rule:nonzero;"/>
        <rect x="2593.62" y="507.972" width="6.836" height="66.65" style="fill:white;"/>
        <path d="M2614.28,574.622L2614.28,533.606L2607.15,533.606L2607.15,527.942L2614.28,527.942L2614.28,521.009C2614.28,511.862 2618.98,507.288 2628.39,507.288C2629.79,507.288 2631.43,507.402 2633.32,507.63L2633.32,513.294C2631.11,513.066 2629.5,512.952 2628.49,512.952C2623.57,512.952 2621.12,515.426 2621.12,520.374L2621.12,527.942L2633.32,527.942L2633.32,533.606L2621.12,533.606L2621.12,574.622L2614.28,574.622Z" style="fill:white;fill-rule:nonzero;"/>
        <path d="M2663.74,527.942L2663.74,533.606L2645.77,533.606L2645.77,562.171C2645.77,567.151 2647.99,569.642 2652.41,569.642C2656.81,569.642 2659,567.412 2659,562.952L2659.05,560.657L2659.15,558.069L2665.5,558.069L2665.55,561.536C2665.55,570.716 2661.18,575.306 2652.46,575.306C2643.44,575.306 2638.93,571.481 2638.93,563.831L2638.93,562.171L2638.93,533.606L2632.49,533.606L2632.49,527.942L2638.93,527.942L2638.93,516.712L2645.77,516.712L2645.77,527.942L2663.74,527.942Z" style="fill:white;fill-rule:nonzero;"/>
        <rect x="2671.55" y="565.638" width="7.52" height="8.984" style="fill:white;"/>
        <path d="M2691.08,527.942L2697.67,527.942L2697.48,534.29L2697.67,534.436C2699.76,529.651 2704.93,527.259 2713.2,527.259C2719.87,527.259 2724.39,528.431 2726.75,530.774C2729.11,533.118 2730.29,537.61 2730.29,544.251L2730.29,574.622L2723.45,574.622L2723.45,544.837L2723.45,543.079C2723.45,539.075 2722.69,536.381 2721.16,534.998C2719.63,533.615 2716.68,532.923 2712.32,532.923C2702.72,532.923 2697.92,537.464 2697.92,546.546L2697.92,574.622L2691.08,574.622L2691.08,527.942Z" style="fill:white;fill-rule:nonzero;"/>
        <rect x="2742.55" y="507.972" width="6.836" height="66.65" style="fill:white;"/>
    </g>
    <g id="faces" transform="matrix(0.827571,0,0,0.827571,-40.9593,-45.6807)">
        <g transform="matrix(0.333333,0,0,0.333333,-7.57912e-14,7.57912e-14)">
            <path d="M1902.58,1195.49L2273.19,1378.52L1737.49,2418.31L1078.42,1415.56L1414.91,1223.23L1781,1492.37L1902.58,1195.49Z" style="fill:white;"/>
        </g>
        <g transform="matrix(0.333333,0,0,0.333333,0,0)">
            <path d="M1387,1170L1387,805L154.954,1121.64L902.647,1771.71L1130.54,1604.1L993.175,1395.15L1387,1170Z" style="fill:white;"/>
        </g>
        <g transform="matrix(0.333333,0,0,0.333333,0,0)">
            <path d="M1754,1400L2248,198L1124,359L1200,791L1447,728L1447,1172L1754,1400Z" style="fill:white;"/>
        </g>
    </g>
</svg>
