<?xml version="1.0" encoding="UTF-8" standalone="no"?><!DOCTYPE svg PUBLIC "-//W3C//DTD SVG 1.1//EN" "http://www.w3.org/Graphics/SVG/1.1/DTD/svg11.dtd"><svg width="100%" height="100%" viewBox="0 0 482 681" version="1.1" xmlns="http://www.w3.org/2000/svg" xmlns:xlink="http://www.w3.org/1999/xlink" xml:space="preserve" xmlns:serif="http://www.serif.com/" style="fill-rule:evenodd;clip-rule:evenodd;stroke-linecap:round;stroke-linejoin:bevel;stroke-miterlimit:1.5;"><g id="V3_Blue"><g id="front-rectangle"><rect x="-0.026" y="-0.136" width="481.89" height="680.315" style="fill:#162840;"/><path d="M482.513,680.829l-483.189,0l0,-681.615l483.189,0l0,681.615Zm-482.539,-680.965l0,680.315l481.889,0l0,-680.315l-481.889,0Z" style="fill:#162840;"/></g><g id="MAT-front" serif:id="MAT front"><path d="M148.08,408l25.2,27.6l25.44,-27.6" style="fill:none;stroke:#fff;stroke-width:1.5px;"/><path d="M173.4,435.6l0,273.116" style="fill:none;stroke:#fff;stroke-width:1.5px;"/><path d="M86.88,465.36l0,243.356" style="fill:none;stroke:#fff;stroke-width:1.5px;"/><path d="M66.96,485.28l19.92,11.04l20.4,-10.56" style="fill:none;stroke:#fff;stroke-width:1.5px;"/><path d="M243.12,340.32l34.32,83.76l36.72,-20.4" style="fill:none;stroke:#fff;stroke-width:1.5px;"/><path d="M277.44,424.08l0,284.636" style="fill:none;stroke:#fff;stroke-width:1.5px;"/><path d="M368.16,464.4c0,0 0,27.256 0,44.4c-0.058,13.171 11.911,25.873 18.96,27.84c9.621,-8.869 30.72,-28.32 30.72,-28.32" style="fill:none;stroke:#fff;stroke-width:1.5px;"/><path d="M357.36,475.2l10.8,6l11.04,-5.76" style="fill:none;stroke:#fff;stroke-width:1.5px;"/><path d="M387.12,536.64l0,171.221" style="fill:none;stroke:#fff;stroke-width:1.5px;"/></g><path d="M501.6,535.687l-83.76,0l0,-27.367l-38.64,0l0,-32.88l-11.04,-11.04l-10.8,10.8l0,60.487l-43.2,0l0,-132.007l-71.04,-63.36l0,195.367l-44.4,0l0,-127.687l-50.64,0l0,127.687l-40.8,0l0,-49.927l-20.4,-20.4l-19.92,19.92l0,50.407l-66.986,0l-21.768,-15.127" style="fill:none;stroke:#ffc800;stroke-width:2px;stroke-linejoin:round;"/></g><g><path d="M59.648,92.05c3.332,0 5.292,-1.316 6.3,-2.492l0,-8.176l-5.18,0l0,1.064l4.06,0l0,6.552c-0.812,0.98 -2.52,1.988 -5.04,1.988l-0.168,0c-4.312,0 -6.496,-2.716 -6.496,-9.576l0,-1.12c0,-6.86 2.296,-9.576 6.216,-9.576l0.168,0c3.64,0 5.264,2.016 5.264,7.056l1.176,0l0,-0.7c0,-4.76 -2.1,-7.42 -6.58,-7.42c-4.76,0 -7.42,3.08 -7.42,10.64l0,1.12c0,7.56 2.66,10.64 7.7,10.64Z" style="fill:#fff;fill-rule:nonzero;"/><path d="M80.9,84.882l0,-0.812c0,-4.06 -1.792,-7.42 -6.02,-7.42c-4.228,0 -6.02,3.36 -6.02,7.42l0,0.56c0,4.06 1.82,7.42 6.16,7.42c4.144,0 5.88,-2.8 5.88,-4.928l0,-0.112l-1.12,0c0,1.82 -1.316,3.976 -4.76,3.976c-3.444,0 -4.928,-2.464 -4.984,-6.104l10.864,0Zm-6.02,-7.168c3.248,0 4.76,2.464 4.844,6.104l-9.688,0c0.056,-3.64 1.568,-6.104 4.844,-6.104Z" style="fill:#fff;fill-rule:nonzero;"/><path d="M89.272,92.05c4.228,0 6.02,-3.36 6.02,-7.42l0,-0.56c0,-4.06 -1.792,-7.42 -6.02,-7.42c-4.228,0 -6.02,3.36 -6.02,7.42l0,0.56c0,4.06 1.792,7.42 6.02,7.42Zm0,-1.064c-3.332,0 -4.844,-2.576 -4.844,-6.356l0,-0.56c0,-3.78 1.512,-6.356 4.844,-6.356c3.332,0 4.844,2.576 4.844,6.356l0,0.56c0,3.78 -1.512,6.356 -4.844,6.356Z" style="fill:#fff;fill-rule:nonzero;"/><path d="M107.724,91.91c0,2.94 -1.12,4.676 -4.34,4.676c-3.108,0 -4.34,-1.54 -4.34,-4.816l-1.12,0l0,0.28c0,3.08 1.4,5.6 5.46,5.6c4.06,0 5.46,-2.52 5.46,-5.6l0,-10.92l0.14,-4.2l-0.84,0l-0.28,2.1c-0.728,-1.26 -2.128,-2.38 -4.48,-2.38c-4.06,0 -5.74,3.22 -5.74,6.86l0,0.56c0,3.64 1.68,6.86 5.74,6.86c2.184,0 3.556,-0.952 4.34,-2.1l0,3.08Zm0,-11.62l0,7c-0.7,1.12 -1.932,2.576 -4.2,2.576c-3.164,0 -4.704,-2.352 -4.704,-5.796l0,-0.56c0,-3.444 1.54,-5.796 4.704,-5.796c2.268,0 3.5,1.456 4.2,2.576Z" style="fill:#fff;fill-rule:nonzero;"/><path d="M117.216,76.65c-2.1,0 -3.472,1.12 -4.228,2.38l-0.252,-2.1l-0.84,0l0.14,4.2l0,10.64l1.12,0l0,-11.48c0.7,-1.12 1.82,-2.576 4.2,-2.576l0.28,0l0,-1.036c0,0 -0.224,-0.028 -0.42,-0.028Z" style="fill:#fff;fill-rule:nonzero;"/><path d="M128.836,91.77l0.84,0l-0.14,-4.2l0,-5.46c0,-3.164 -1.176,-5.46 -5.04,-5.46c-4.2,0 -5.04,2.8 -5.04,4.928l0,0.252l1.12,0c0,-2.24 0.7,-4.116 3.92,-4.116c2.996,0 3.92,1.512 3.92,4.396l0,0.56l-4.816,0.756c-2.184,0.336 -4.704,1.204 -4.704,4.424l0,0.28c0,2.38 1.68,3.92 4.2,3.92c2.8,0 4.508,-1.232 5.46,-2.52l0.28,2.24Zm-5.6,-0.784c-2.24,0 -3.22,-1.372 -3.22,-2.856l0,-0.28c0,-1.932 1.4,-2.968 3.5,-3.332l4.9,-0.812l0,4.48c-0.532,0.952 -1.876,2.8 -5.18,2.8Z" style="fill:#fff;fill-rule:nonzero;"/><path d="M138.188,92.05c4.06,0 5.74,-3.36 5.74,-7.42l0,-0.56c0,-4.06 -1.68,-7.42 -5.74,-7.42c-2.38,0 -3.752,1.12 -4.508,2.38l-0.252,-2.1l-0.84,0l0.14,4.2l0,16.24l1.12,0l0,-7.42c0.756,1.148 2.128,2.1 4.34,2.1Zm-4.34,-11.76c0.7,-1.12 1.932,-2.576 4.2,-2.576c3.164,0 4.704,2.492 4.704,6.356l0,0.56c0,3.864 -1.54,6.356 -4.704,6.356c-2.268,0 -3.5,-1.456 -4.2,-2.576l0,-8.12Z" style="fill:#fff;fill-rule:nonzero;"/><path d="M147.82,69.37l-1.12,0l0,22.4l1.12,0l0,-11.48c0.7,-1.12 1.96,-2.576 4.62,-2.576c2.1,0 3.64,1.036 3.64,3.696l0,10.36l1.12,0l0,-10.5c0,-2.8 -1.68,-4.62 -4.48,-4.62c-2.492,0 -4.06,1.036 -4.9,2.24l0,-9.52Z" style="fill:#fff;fill-rule:nonzero;"/><path d="M160.532,91.77l1.12,0l0,-14.84l-1.12,0l0,14.84Zm1.4,-20.58l-1.68,0l0,1.68l1.68,0l0,-1.68Z" style="fill:#fff;fill-rule:nonzero;"/><path d="M165.88,84.63l0,-0.56c0,-3.78 1.512,-6.356 4.844,-6.356c3.136,0 4.34,2.016 4.34,4.536l1.12,0l0,-0.532c0,-2.128 -1.428,-5.068 -5.46,-5.068c-4.228,0 -6.02,3.36 -6.02,7.42l0,0.56c0,4.06 1.792,7.42 6.02,7.42c4.032,0 5.46,-2.8 5.46,-4.928l0,-0.392l-1.12,0c0,2.184 -1.092,4.256 -4.34,4.256c-3.332,0 -4.844,-2.576 -4.844,-6.356Z" style="fill:#fff;fill-rule:nonzero;"/><path d="M188.336,91.77l0.84,0l-0.14,-4.2l0,-5.46c0,-3.164 -1.176,-5.46 -5.04,-5.46c-4.2,0 -5.04,2.8 -5.04,4.928l0,0.252l1.12,0c0,-2.24 0.7,-4.116 3.92,-4.116c2.996,0 3.92,1.512 3.92,4.396l0,0.56l-4.816,0.756c-2.184,0.336 -4.704,1.204 -4.704,4.424l0,0.28c0,2.38 1.68,3.92 4.2,3.92c2.8,0 4.508,-1.232 5.46,-2.52l0.28,2.24Zm-5.6,-0.784c-2.24,0 -3.22,-1.372 -3.22,-2.856l0,-0.28c0,-1.932 1.4,-2.968 3.5,-3.332l4.9,-0.812l0,4.48c-0.532,0.952 -1.876,2.8 -5.18,2.8Z" style="fill:#fff;fill-rule:nonzero;"/><rect x="192.508" y="69.37" width="1.12" height="22.4" style="fill:#fff;fill-rule:nonzero;"/><path d="M207.432,92.05c4.06,0 5.74,-3.36 5.74,-7.42l0,-0.56c0,-4.06 -1.68,-7.42 -5.74,-7.42c-2.38,0 -3.752,1.12 -4.508,2.38l-0.252,-2.1l-0.84,0l0.14,4.2l0,16.24l1.12,0l0,-7.42c0.756,1.148 2.128,2.1 4.34,2.1Zm-4.34,-11.76c0.7,-1.12 1.932,-2.576 4.2,-2.576c3.164,0 4.704,2.492 4.704,6.356l0,0.56c0,3.864 -1.54,6.356 -4.704,6.356c-2.268,0 -3.5,-1.456 -4.2,-2.576l0,-8.12Z" style="fill:#fff;fill-rule:nonzero;"/><path d="M221.544,92.05c4.228,0 6.02,-3.36 6.02,-7.42l0,-0.56c0,-4.06 -1.792,-7.42 -6.02,-7.42c-4.228,0 -6.02,3.36 -6.02,7.42l0,0.56c0,4.06 1.792,7.42 6.02,7.42Zm0,-1.064c-3.332,0 -4.844,-2.576 -4.844,-6.356l0,-0.56c0,-3.78 1.512,-6.356 4.844,-6.356c3.332,0 4.844,2.576 4.844,6.356l0,0.56c0,3.78 -1.512,6.356 -4.844,6.356Z" style="fill:#fff;fill-rule:nonzero;"/><path d="M230.616,91.77l1.12,0l0,-14.84l-1.12,0l0,14.84Zm1.4,-20.58l-1.68,0l0,1.68l1.68,0l0,-1.68Z" style="fill:#fff;fill-rule:nonzero;"/><path d="M245.708,91.77l0,-10.5c0,-2.8 -1.68,-4.62 -4.48,-4.62c-2.66,0 -4.256,1.176 -5.068,2.464l-0.252,-2.184l-0.84,0l0.14,4.2l0,10.64l1.12,0l0,-11.48c0.7,-1.12 1.96,-2.576 4.62,-2.576c2.1,0 3.64,1.036 3.64,3.696l0,10.36l1.12,0Z" style="fill:#fff;fill-rule:nonzero;"/><path d="M250.944,76.93l0,-4.2l-1.12,0l0,4.2l-2.38,0l0,1.064l2.38,0l0,9.996c0,2.94 1.68,4.06 3.92,4.06c1.12,0 1.764,-0.196 1.96,-0.28l0,-1.036c-0.252,0.112 -1.008,0.252 -1.68,0.252c-2.044,0 -3.08,-0.616 -3.08,-3.136l0,-9.856l5.04,0l0,-1.064l-5.04,0Z" style="fill:#fff;fill-rule:nonzero;"/><path d="M264.244,84.63l0,-0.56c0,-3.78 1.512,-6.356 4.844,-6.356c3.136,0 4.34,2.016 4.34,4.536l1.12,0l0,-0.532c0,-2.128 -1.428,-5.068 -5.46,-5.068c-4.228,0 -6.02,3.36 -6.02,7.42l0,0.56c0,4.06 1.792,7.42 6.02,7.42c4.032,0 5.46,-2.8 5.46,-4.928l0,-0.392l-1.12,0c0,2.184 -1.092,4.256 -4.34,4.256c-3.332,0 -4.844,-2.576 -4.844,-6.356Z" style="fill:#fff;fill-rule:nonzero;"/><rect x="277.6" y="69.37" width="1.12" height="22.4" style="fill:#fff;fill-rule:nonzero;"/><path d="M287.792,92.05c4.228,0 6.02,-3.36 6.02,-7.42l0,-0.56c0,-4.06 -1.792,-7.42 -6.02,-7.42c-4.228,0 -6.02,3.36 -6.02,7.42l0,0.56c0,4.06 1.792,7.42 6.02,7.42Zm0,-1.064c-3.332,0 -4.844,-2.576 -4.844,-6.356l0,-0.56c0,-3.78 1.512,-6.356 4.844,-6.356c3.332,0 4.844,2.576 4.844,6.356l0,0.56c0,3.78 -1.512,6.356 -4.844,6.356Z" style="fill:#fff;fill-rule:nonzero;"/><path d="M296.444,76.93l0,10.5c0,2.8 1.68,4.62 4.48,4.62c2.632,0 4.228,-1.148 5.04,-2.436l0.28,2.156l0.84,0l-0.14,-4.2l0,-10.64l-1.12,0l0,11.48c-0.7,1.12 -1.96,2.576 -4.62,2.576c-2.1,0 -3.64,-1.036 -3.64,-3.696l0,-10.36l-1.12,0Z" style="fill:#fff;fill-rule:nonzero;"/><path d="M315.456,76.65c-4.06,0 -5.74,3.36 -5.74,7.42l0,0.56c0,4.06 1.68,7.42 5.74,7.42c2.352,0 3.752,-1.12 4.48,-2.38l0.28,2.1l0.84,0l-0.14,-4.2l0,-18.2l-1.12,0l0,9.408c-0.784,-1.148 -2.128,-2.128 -4.34,-2.128Zm4.34,11.76c-0.7,1.12 -1.932,2.576 -4.2,2.576c-3.164,0 -4.704,-2.492 -4.704,-6.356l0,-0.56c0,-3.864 1.54,-6.356 4.704,-6.356c2.268,0 3.5,1.456 4.2,2.576l0,8.12Z" style="fill:#fff;fill-rule:nonzero;"/><path d="M347.18,91.77l0,-10.92c0,-2.8 -1.54,-4.2 -4.06,-4.2c-2.492,0 -3.976,1.204 -4.732,2.492c-0.504,-1.652 -1.876,-2.492 -3.808,-2.492c-2.408,0 -3.864,1.12 -4.648,2.38l-0.252,-2.1l-0.84,0l0.14,4.2l0,10.64l1.12,0l0,-11.48c0.7,-1.12 1.82,-2.576 4.2,-2.576c1.82,0 3.22,0.616 3.22,3.276l0,10.78l1.12,0l0,-11.48c0.7,-1.12 1.82,-2.576 4.2,-2.576c1.82,0 3.22,0.616 3.22,3.276l0,10.78l1.12,0Z" style="fill:#fff;fill-rule:nonzero;"/><path d="M355.832,92.05c4.228,0 6.02,-3.36 6.02,-7.42l0,-0.56c0,-4.06 -1.792,-7.42 -6.02,-7.42c-4.228,0 -6.02,3.36 -6.02,7.42l0,0.56c0,4.06 1.792,7.42 6.02,7.42Zm0,-1.064c-3.332,0 -4.844,-2.576 -4.844,-6.356l0,-0.56c0,-3.78 1.512,-6.356 4.844,-6.356c3.332,0 4.844,2.576 4.844,6.356l0,0.56c0,3.78 -1.512,6.356 -4.844,6.356Z" style="fill:#fff;fill-rule:nonzero;"/><path d="M369.944,76.65c-4.06,0 -5.74,3.36 -5.74,7.42l0,0.56c0,4.06 1.68,7.42 5.74,7.42c2.352,0 3.752,-1.12 4.48,-2.38l0.28,2.1l0.84,0l-0.14,-4.2l0,-18.2l-1.12,0l0,9.408c-0.784,-1.148 -2.128,-2.128 -4.34,-2.128Zm4.34,11.76c-0.7,1.12 -1.932,2.576 -4.2,2.576c-3.164,0 -4.704,-2.492 -4.704,-6.356l0,-0.56c0,-3.864 1.54,-6.356 4.704,-6.356c2.268,0 3.5,1.456 4.2,2.576l0,8.12Z" style="fill:#fff;fill-rule:nonzero;"/><path d="M390.216,84.882l0,-0.812c0,-4.06 -1.792,-7.42 -6.02,-7.42c-4.228,0 -6.02,3.36 -6.02,7.42l0,0.56c0,4.06 1.82,7.42 6.16,7.42c4.144,0 5.88,-2.8 5.88,-4.928l0,-0.112l-1.12,0c0,1.82 -1.316,3.976 -4.76,3.976c-3.444,0 -4.928,-2.464 -4.984,-6.104l10.864,0Zm-6.02,-7.168c3.248,0 4.76,2.464 4.844,6.104l-9.688,0c0.056,-3.64 1.568,-6.104 4.844,-6.104Z" style="fill:#fff;fill-rule:nonzero;"/><rect x="393.268" y="69.37" width="1.12" height="22.4" style="fill:#fff;fill-rule:nonzero;"/><rect x="398.14" y="69.37" width="1.12" height="22.4" style="fill:#fff;fill-rule:nonzero;"/><path d="M403.012,91.77l1.12,0l0,-14.84l-1.12,0l0,14.84Zm1.4,-20.58l-1.68,0l0,1.68l1.68,0l0,-1.68Z" style="fill:#fff;fill-rule:nonzero;"/><path d="M418.104,91.77l0,-10.5c0,-2.8 -1.68,-4.62 -4.48,-4.62c-2.66,0 -4.256,1.176 -5.068,2.464l-0.252,-2.184l-0.84,0l0.14,4.2l0,10.64l1.12,0l0,-11.48c0.7,-1.12 1.96,-2.576 4.62,-2.576c2.1,0 3.64,1.036 3.64,3.696l0,10.36l1.12,0Z" style="fill:#fff;fill-rule:nonzero;"/><path d="M430.816,91.91c0,2.94 -1.12,4.676 -4.34,4.676c-3.108,0 -4.34,-1.54 -4.34,-4.816l-1.12,0l0,0.28c0,3.08 1.4,5.6 5.46,5.6c4.06,0 5.46,-2.52 5.46,-5.6l0,-10.92l0.14,-4.2l-0.84,0l-0.28,2.1c-0.728,-1.26 -2.128,-2.38 -4.48,-2.38c-4.06,0 -5.74,3.22 -5.74,6.86l0,0.56c0,3.64 1.68,6.86 5.74,6.86c2.184,0 3.556,-0.952 4.34,-2.1l0,3.08Zm0,-11.62l0,7c-0.7,1.12 -1.932,2.576 -4.2,2.576c-3.164,0 -4.704,-2.352 -4.704,-5.796l0,-0.56c0,-3.444 1.54,-5.796 4.704,-5.796c2.268,0 3.5,1.456 4.2,2.576Z" style="fill:#fff;fill-rule:nonzero;"/><path d="M62.819,110.302l3.836,13.468l1.568,0l3.416,-14.84l-1.148,0l-3.08,13.72l-3.892,-13.72l-1.4,0l-3.892,13.72l-3.08,-13.72l-1.148,0l3.416,14.84l1.568,0l3.836,-13.468Z" style="fill:#fff;fill-rule:nonzero;"/><path d="M74.131,123.77l1.12,0l0,-14.84l-1.12,0l0,14.84Zm1.4,-20.58l-1.68,0l0,1.68l1.68,0l0,-1.68Z" style="fill:#fff;fill-rule:nonzero;"/><path d="M81.243,108.93l0,-4.2l-1.12,0l0,4.2l-2.38,0l0,1.064l2.38,0l0,9.996c0,2.94 1.68,4.06 3.92,4.06c1.12,0 1.764,-0.196 1.96,-0.28l0,-1.036c-0.252,0.112 -1.008,0.252 -1.68,0.252c-2.044,0 -3.08,-0.616 -3.08,-3.136l0,-9.856l5.04,0l0,-1.064l-5.04,0Z" style="fill:#fff;fill-rule:nonzero;"/><path d="M90.035,101.37l-1.12,0l0,22.4l1.12,0l0,-11.48c0.7,-1.12 1.96,-2.576 4.62,-2.576c2.1,0 3.64,1.036 3.64,3.696l0,10.36l1.12,0l0,-10.5c0,-2.8 -1.68,-4.62 -4.48,-4.62c-2.492,0 -4.06,1.036 -4.9,2.24l0,-9.52Z" style="fill:#fff;fill-rule:nonzero;"/><path d="M109.859,108.93l0,-4.2l-1.12,0l0,4.2l-2.38,0l0,1.064l2.38,0l0,9.996c0,2.94 1.68,4.06 3.92,4.06c1.12,0 1.764,-0.196 1.96,-0.28l0,-1.036c-0.252,0.112 -1.008,0.252 -1.68,0.252c-2.044,0 -3.08,-0.616 -3.08,-3.136l0,-9.856l5.04,0l0,-1.064l-5.04,0Z" style="fill:#fff;fill-rule:nonzero;"/><path d="M118.651,101.37l-1.12,0l0,22.4l1.12,0l0,-11.48c0.7,-1.12 1.96,-2.576 4.62,-2.576c2.1,0 3.64,1.036 3.64,3.696l0,10.36l1.12,0l0,-10.5c0,-2.8 -1.68,-4.62 -4.48,-4.62c-2.492,0 -4.06,1.036 -4.9,2.24l0,-9.52Z" style="fill:#fff;fill-rule:nonzero;"/><path d="M142.703,116.882l0,-0.812c0,-4.06 -1.792,-7.42 -6.02,-7.42c-4.228,0 -6.02,3.36 -6.02,7.42l0,0.56c0,4.06 1.82,7.42 6.16,7.42c4.144,0 5.88,-2.8 5.88,-4.928l0,-0.112l-1.12,0c0,1.82 -1.316,3.976 -4.76,3.976c-3.444,0 -4.928,-2.464 -4.984,-6.104l10.864,0Zm-6.02,-7.168c3.248,0 4.76,2.464 4.844,6.104l-9.688,0c0.056,-3.64 1.568,-6.104 4.844,-6.104Z" style="fill:#fff;fill-rule:nonzero;"/><path d="M151.047,116.77l-1.12,0l0,0.28c0,4.256 2.128,7 6.86,7c3.724,0 6.86,-2.072 6.86,-5.796l0,-0.42c0,-2.828 -1.624,-4.536 -4.06,-5.208c2.352,-0.616 3.92,-2.156 3.92,-4.844l0,-0.392c0,-3.64 -2.604,-5.74 -6.72,-5.74c-4.676,0 -6.72,2.548 -6.72,6.86l0,0.7l1.12,0c0,-4.592 1.736,-6.496 5.46,-6.496l0.28,0c3.276,0 5.404,1.876 5.404,4.816l0,0.196c0,3.052 -2.324,4.368 -5.208,4.368l-3.136,0l0,1.064l3.276,0c2.884,0 5.208,1.54 5.208,4.732l0,0.42c0,3.192 -2.66,4.676 -5.544,4.676l-0.28,0c-3.528,0 -5.6,-1.988 -5.6,-6.216Z" style="fill:#fff;fill-rule:nonzero;"/><path d="M180.335,113.41l0,-1.12c0,-7.56 -3.276,-10.36 -8.176,-10.36l-5.46,0l0,21.84l5.46,0c4.9,0 8.176,-2.8 8.176,-10.36Zm-12.516,9.296l0,-19.712l4.2,0c4.34,0 7.14,2.436 7.14,9.296l0,1.12c0,6.86 -2.8,9.296 -7.14,9.296l-4.2,0Z" style="fill:#fff;fill-rule:nonzero;"/><path d="M206.403,123.77l0,-10.92c0,-2.8 -1.54,-4.2 -4.06,-4.2c-2.492,0 -3.976,1.204 -4.732,2.492c-0.504,-1.652 -1.876,-2.492 -3.808,-2.492c-2.408,0 -3.864,1.12 -4.648,2.38l-0.252,-2.1l-0.84,0l0.14,4.2l0,10.64l1.12,0l0,-11.48c0.7,-1.12 1.82,-2.576 4.2,-2.576c1.82,0 3.22,0.616 3.22,3.276l0,10.78l1.12,0l0,-11.48c0.7,-1.12 1.82,-2.576 4.2,-2.576c1.82,0 3.22,0.616 3.22,3.276l0,10.78l1.12,0Z" style="fill:#fff;fill-rule:nonzero;"/><path d="M221.075,116.882l0,-0.812c0,-4.06 -1.792,-7.42 -6.02,-7.42c-4.228,0 -6.02,3.36 -6.02,7.42l0,0.56c0,4.06 1.82,7.42 6.16,7.42c4.144,0 5.88,-2.8 5.88,-4.928l0,-0.112l-1.12,0c0,1.82 -1.316,3.976 -4.76,3.976c-3.444,0 -4.928,-2.464 -4.984,-6.104l10.864,0Zm-6.02,-7.168c3.248,0 4.76,2.464 4.844,6.104l-9.688,0c0.056,-3.64 1.568,-6.104 4.844,-6.104Z" style="fill:#fff;fill-rule:nonzero;"/><path d="M229.167,108.65c-4.06,0 -5.74,3.36 -5.74,7.42l0,0.56c0,4.06 1.68,7.42 5.74,7.42c2.352,0 3.752,-1.12 4.48,-2.38l0.28,2.1l0.84,0l-0.14,-4.2l0,-18.2l-1.12,0l0,9.408c-0.784,-1.148 -2.128,-2.128 -4.34,-2.128Zm4.34,11.76c-0.7,1.12 -1.932,2.576 -4.2,2.576c-3.164,0 -4.704,-2.492 -4.704,-6.356l0,-0.56c0,-3.864 1.54,-6.356 4.704,-6.356c2.268,0 3.5,1.456 4.2,2.576l0,8.12Z" style="fill:#fff;fill-rule:nonzero;"/><path d="M238.099,123.77l1.12,0l0,-14.84l-1.12,0l0,14.84Zm1.4,-20.58l-1.68,0l0,1.68l1.68,0l0,-1.68Z" style="fill:#fff;fill-rule:nonzero;"/><path d="M252.071,123.77l0.84,0l-0.14,-4.2l0,-5.46c0,-3.164 -1.176,-5.46 -5.04,-5.46c-4.2,0 -5.04,2.8 -5.04,4.928l0,0.252l1.12,0c0,-2.24 0.7,-4.116 3.92,-4.116c2.996,0 3.92,1.512 3.92,4.396l0,0.56l-4.816,0.756c-2.184,0.336 -4.704,1.204 -4.704,4.424l0,0.28c0,2.38 1.68,3.92 4.2,3.92c2.8,0 4.508,-1.232 5.46,-2.52l0.28,2.24Zm-5.6,-0.784c-2.24,0 -3.22,-1.372 -3.22,-2.856l0,-0.28c0,-1.932 1.4,-2.968 3.5,-3.332l4.9,-0.812l0,4.48c-0.532,0.952 -1.876,2.8 -5.18,2.8Z" style="fill:#fff;fill-rule:nonzero;"/><rect x="256.243" y="101.37" width="1.12" height="22.4" style="fill:#fff;fill-rule:nonzero;"/><path d="M275.087,123.77l0.84,0l-0.14,-4.2l0,-5.46c0,-3.164 -1.176,-5.46 -5.04,-5.46c-4.2,0 -5.04,2.8 -5.04,4.928l0,0.252l1.12,0c0,-2.24 0.7,-4.116 3.92,-4.116c2.996,0 3.92,1.512 3.92,4.396l0,0.56l-4.816,0.756c-2.184,0.336 -4.704,1.204 -4.704,4.424l0,0.28c0,2.38 1.68,3.92 4.2,3.92c2.8,0 4.508,-1.232 5.46,-2.52l0.28,2.24Zm-5.6,-0.784c-2.24,0 -3.22,-1.372 -3.22,-2.856l0,-0.28c0,-1.932 1.4,-2.968 3.5,-3.332l4.9,-0.812l0,4.48c-0.532,0.952 -1.876,2.8 -5.18,2.8Z" style="fill:#fff;fill-rule:nonzero;"/><path d="M277.719,108.93l5.04,7.42l-5.04,7.42l1.428,0l4.312,-6.328l4.312,6.328l1.428,0l-5.04,-7.42l5.04,-7.42l-1.372,0l-4.368,6.44l-4.368,-6.44l-1.372,0Z" style="fill:#fff;fill-rule:nonzero;"/><path d="M291.411,123.77l1.12,0l0,-14.84l-1.12,0l0,14.84Zm1.4,-20.58l-1.68,0l0,1.68l1.68,0l0,-1.68Z" style="fill:#fff;fill-rule:nonzero;"/><path d="M301.323,122.986c-3.444,0 -4.34,-1.848 -4.34,-3.696l-1.12,0l0,0.112c0,2.044 1.288,4.648 5.46,4.648c3.472,0 5.46,-1.764 5.46,-4.144l0,-0.112c0,-2.576 -1.316,-3.752 -5.04,-4.032c-3.724,-0.308 -4.536,-1.288 -4.536,-3.052c0,-1.932 1.54,-2.996 4.116,-2.996c3.248,0 4.2,1.54 4.2,3.976l1.12,0l0,-0.112c0,-2.8 -1.372,-4.928 -5.32,-4.928c-3.472,0 -5.292,1.736 -5.292,4.004l0,0.14c0,2.016 0.952,3.528 4.872,3.892c3.276,0.28 4.704,0.784 4.704,3.164c0,1.932 -1.54,3.136 -4.284,3.136Z" style="fill:#fff;fill-rule:nonzero;"/><path d="M317.227,108.93l0,-4.2l-1.12,0l0,4.2l-2.38,0l0,1.064l2.38,0l0,9.996c0,2.94 1.68,4.06 3.92,4.06c1.12,0 1.764,-0.196 1.96,-0.28l0,-1.036c-0.252,0.112 -1.008,0.252 -1.68,0.252c-2.044,0 -3.08,-0.616 -3.08,-3.136l0,-9.856l5.04,0l0,-1.064l-5.04,0Z" style="fill:#fff;fill-rule:nonzero;"/><path d="M330.079,108.65c-2.1,0 -3.472,1.12 -4.228,2.38l-0.252,-2.1l-0.84,0l0.14,4.2l0,10.64l1.12,0l0,-11.48c0.7,-1.12 1.82,-2.576 4.2,-2.576l0.28,0l0,-1.036c0,0 -0.224,-0.028 -0.42,-0.028Z" style="fill:#fff;fill-rule:nonzero;"/><path d="M341.699,123.77l0.84,0l-0.14,-4.2l0,-5.46c0,-3.164 -1.176,-5.46 -5.04,-5.46c-4.2,0 -5.04,2.8 -5.04,4.928l0,0.252l1.12,0c0,-2.24 0.7,-4.116 3.92,-4.116c2.996,0 3.92,1.512 3.92,4.396l0,0.56l-4.816,0.756c-2.184,0.336 -4.704,1.204 -4.704,4.424l0,0.28c0,2.38 1.68,3.92 4.2,3.92c2.8,0 4.508,-1.232 5.46,-2.52l0.28,2.24Zm-5.6,-0.784c-2.24,0 -3.22,-1.372 -3.22,-2.856l0,-0.28c0,-1.932 1.4,-2.968 3.5,-3.332l4.9,-0.812l0,4.48c-0.532,0.952 -1.876,2.8 -5.18,2.8Z" style="fill:#fff;fill-rule:nonzero;"/><path d="M356.091,123.77l0,-10.5c0,-2.8 -1.68,-4.62 -4.48,-4.62c-2.66,0 -4.256,1.176 -5.068,2.464l-0.252,-2.184l-0.84,0l0.14,4.2l0,10.64l1.12,0l0,-11.48c0.7,-1.12 1.96,-2.576 4.62,-2.576c2.1,0 3.64,1.036 3.64,3.696l0,10.36l1.12,0Z" style="fill:#fff;fill-rule:nonzero;"/><path d="M364.463,122.986c-3.444,0 -4.34,-1.848 -4.34,-3.696l-1.12,0l0,0.112c0,2.044 1.288,4.648 5.46,4.648c3.472,0 5.46,-1.764 5.46,-4.144l0,-0.112c0,-2.576 -1.316,-3.752 -5.04,-4.032c-3.724,-0.308 -4.536,-1.288 -4.536,-3.052c0,-1.932 1.54,-2.996 4.116,-2.996c3.248,0 4.2,1.54 4.2,3.976l1.12,0l0,-0.112c0,-2.8 -1.372,-4.928 -5.32,-4.928c-3.472,0 -5.292,1.736 -5.292,4.004l0,0.14c0,2.016 0.952,3.528 4.872,3.892c3.276,0.28 4.704,0.784 4.704,3.164c0,1.932 -1.54,3.136 -4.284,3.136Z" style="fill:#fff;fill-rule:nonzero;"/><path d="M375.159,105.29c0,-2.52 1.036,-3.136 3.08,-3.136c0.672,0 1.428,0.14 1.68,0.252l0,-1.036c-0.196,-0.084 -0.84,-0.28 -1.96,-0.28c-2.24,0 -3.92,1.12 -3.92,4.06l0,3.78l-2.38,0l0,1.064l2.38,0l0,13.776l1.12,0l0,-13.776l4.48,0l0,-1.064l-4.48,0l0,-3.64Z" style="fill:#fff;fill-rule:nonzero;"/><path d="M387.703,124.05c4.228,0 6.02,-3.36 6.02,-7.42l0,-0.56c0,-4.06 -1.792,-7.42 -6.02,-7.42c-4.228,0 -6.02,3.36 -6.02,7.42l0,0.56c0,4.06 1.792,7.42 6.02,7.42Zm0,-1.064c-3.332,0 -4.844,-2.576 -4.844,-6.356l0,-0.56c0,-3.78 1.512,-6.356 4.844,-6.356c3.332,0 4.844,2.576 4.844,6.356l0,0.56c0,3.78 -1.512,6.356 -4.844,6.356Z" style="fill:#fff;fill-rule:nonzero;"/><path d="M401.675,108.65c-2.1,0 -3.472,1.12 -4.228,2.38l-0.252,-2.1l-0.84,0l0.14,4.2l0,10.64l1.12,0l0,-11.48c0.7,-1.12 1.82,-2.576 4.2,-2.576l0.28,0l0,-1.036c0,0 -0.224,-0.028 -0.42,-0.028Z" style="fill:#fff;fill-rule:nonzero;"/><path d="M422.787,123.77l0,-10.92c0,-2.8 -1.54,-4.2 -4.06,-4.2c-2.492,0 -3.976,1.204 -4.732,2.492c-0.504,-1.652 -1.876,-2.492 -3.808,-2.492c-2.408,0 -3.864,1.12 -4.648,2.38l-0.252,-2.1l-0.84,0l0.14,4.2l0,10.64l1.12,0l0,-11.48c0.7,-1.12 1.82,-2.576 4.2,-2.576c1.82,0 3.22,0.616 3.22,3.276l0,10.78l1.12,0l0,-11.48c0.7,-1.12 1.82,-2.576 4.2,-2.576c1.82,0 3.22,0.616 3.22,3.276l0,10.78l1.12,0Z" style="fill:#fff;fill-rule:nonzero;"/></g><g><path d="M55.647,156.506l2.592,0c0.216,0 0.432,0 0.648,-0.018l2.232,5.724l1.422,0l-2.43,-5.976c1.332,-0.432 2.43,-1.476 2.43,-3.708l0,-0.36c0,-3.24 -2.304,-3.996 -4.302,-3.996l-3.888,0l0,14.04l1.296,0l0,-5.706Zm0,-1.17l0,-5.994l2.628,0c1.206,0 2.934,0.45 2.934,2.862l0,0.27c0,2.412 -1.728,2.862 -2.934,2.862l-2.628,0Z" style="fill:#fff;fill-rule:nonzero;"/><path d="M70.659,162.212l1.044,0l-0.108,-2.7l0,-3.492c0,-2.106 -0.81,-3.546 -3.456,-3.546c-2.808,0 -3.438,1.746 -3.438,3.186l0,0.162l1.206,0c0,-1.242 0.414,-2.286 2.214,-2.286c1.692,0 2.214,0.846 2.214,2.484l0,0.252l-2.88,0.45c-1.548,0.234 -3.114,0.828 -3.114,2.898l0,0.18c0,1.53 1.008,2.61 2.754,2.61c1.656,0 2.736,-0.702 3.366,-1.53l0.198,1.332Zm-3.24,-0.9c-1.278,0 -1.818,-0.774 -1.818,-1.62l0,-0.162c0,-1.08 0.738,-1.674 1.962,-1.89l2.772,-0.45l0,2.61c-0.342,0.558 -1.152,1.512 -2.916,1.512Z" style="fill:#fff;fill-rule:nonzero;"/><path d="M76.311,162.212l1.656,0l3.348,-9.54l-1.35,0l-2.826,8.352l-2.808,-8.352l-1.35,0l3.33,9.54Z" style="fill:#fff;fill-rule:nonzero;"/><path d="M83.061,162.212l1.26,0l0,-9.54l-1.26,0l0,9.54Zm1.44,-13.41l-1.62,0l0,1.62l1.62,0l0,-1.62Z" style="fill:#fff;fill-rule:nonzero;"/><path d="M91.863,156.506l2.592,0c1.998,0 4.302,-0.756 4.302,-3.978l0,-0.36c0,-3.24 -2.304,-3.996 -4.302,-3.996l-3.888,0l0,14.04l1.296,0l0,-5.706Zm0,-1.17l0,-5.994l2.628,0c1.206,0 2.934,0.45 2.934,2.862l0,0.27c0,2.412 -1.728,2.862 -2.934,2.862l-2.628,0Z" style="fill:#fff;fill-rule:nonzero;"/><path d="M107.919,157.964l0,-0.72c0,-2.646 -1.206,-4.77 -3.996,-4.77c-2.79,0 -4.032,2.124 -4.032,4.77l0,0.396c0,2.646 1.242,4.77 4.122,4.77c2.682,0 3.906,-1.71 3.906,-3.186l0,-0.072l-1.206,0c0,1.026 -0.792,2.196 -2.7,2.196c-1.908,0 -2.79,-1.296 -2.844,-3.384l6.75,0Zm-4.014,-4.428c1.818,0 2.664,1.314 2.736,3.384l-5.472,0c0.054,-2.07 0.936,-3.384 2.736,-3.384Z" style="fill:#fff;fill-rule:nonzero;"/><path d="M111.915,152.672l0,-2.7l-1.26,0l0,2.7l-1.512,0l0,1.134l1.512,0l0,5.76c0,2.07 1.17,2.844 2.79,2.844c0.756,0 1.188,-0.144 1.332,-0.198l0,-1.098c-0.144,0.072 -0.63,0.162 -1.026,0.162c-1.206,0 -1.836,-0.36 -1.836,-1.872l0,-5.598l3.042,0l0,-1.134l-3.042,0Z" style="fill:#fff;fill-rule:nonzero;"/><path d="M124.695,157.964l0,-0.72c0,-2.646 -1.206,-4.77 -3.996,-4.77c-2.79,0 -4.032,2.124 -4.032,4.77l0,0.396c0,2.646 1.242,4.77 4.122,4.77c2.682,0 3.906,-1.71 3.906,-3.186l0,-0.072l-1.206,0c0,1.026 -0.792,2.196 -2.7,2.196c-1.908,0 -2.79,-1.296 -2.844,-3.384l6.75,0Zm-4.014,-4.428c1.818,0 2.664,1.314 2.736,3.384l-5.472,0c0.054,-2.07 0.936,-3.384 2.736,-3.384Z" style="fill:#fff;fill-rule:nonzero;"/><path d="M130.545,152.474c-1.278,0 -2.16,0.666 -2.664,1.458l-0.18,-1.26l-1.044,0l0.108,2.7l0,6.84l1.26,0l0,-7.074c0.396,-0.63 1.098,-1.44 2.538,-1.44l0.252,0l0,-1.206c-0.018,0 -0.144,-0.018 -0.27,-0.018Z" style="fill:#fff;fill-rule:nonzero;"/><path d="M135.837,161.348c-1.89,0 -2.412,-1.008 -2.412,-2.052l-1.26,0l0,0.072c0,1.458 0.972,3.042 3.672,3.042c2.358,0 3.672,-1.152 3.672,-2.808l0,-0.09c0,-1.746 -1.026,-2.43 -3.42,-2.628c-2.07,-0.162 -2.538,-0.702 -2.538,-1.692c0,-1.062 0.846,-1.656 2.286,-1.656c1.782,0 2.322,0.846 2.322,2.214l1.242,0l0,-0.072c0,-1.872 -0.954,-3.204 -3.564,-3.204c-2.232,0 -3.546,1.062 -3.546,2.718l0,0.108c0,1.422 0.738,2.322 3.312,2.538c1.854,0.162 2.61,0.468 2.61,1.764c0,1.062 -0.828,1.746 -2.376,1.746Z" style="fill:#fff;fill-rule:nonzero;"/></g></svg>