<?xml version="1.0" encoding="UTF-8" standalone="no"?>
<svg width="147px" height="40px" viewBox="0 0 147 40" version="1.1" xmlns="http://www.w3.org/2000/svg" xmlns:xlink="http://www.w3.org/1999/xlink" xmlns:sketch="http://www.bohemiancoding.com/sketch/ns">
    <!-- Generator: Sketch 3.1.1 (8761) - http://www.bohemiancoding.com/sketch -->
    <title>tudlogo</title>
    <desc>Created with Sketch.</desc>
    <defs></defs>
    <g id="Page-1" stroke="none" stroke-width="1" fill="none" fill-rule="evenodd" sketch:type="MSPage">
        <path d="M40.419,19.278 L40.419,31.272 C40.374,35.848 36.997,38.581 31.385,38.581 C25.774,38.581 22.397,35.848 22.352,31.271 L22.352,19.278 L27.427,19.278 L27.427,31.007 C27.427,33.53 28.943,35.097 31.385,35.097 C33.827,35.097 35.344,33.53 35.344,31.007 L35.344,19.278 L40.419,19.278" id="Fill-1" fill="#00A3DB" sketch:type="MSShapeGroup"></path>
        <path d="M63.995,31.751 C63.995,28.346 65.588,24.706 70.059,24.706 C73.604,24.706 75.807,27.07 75.807,30.876 L75.807,32.011 L66.336,32.011 L66.336,32.123 C66.336,35.21 67.626,36.98 69.876,36.98 C71.885,36.98 72.877,36.161 73.194,34.277 L75.608,34.277 C75.185,37.007 73.106,38.584 69.848,38.584 C64.756,38.584 63.995,34.303 63.995,31.751 L63.995,31.751 Z M66.393,30.373 L66.392,30.486 L73.379,30.486 L73.379,30.373 C73.379,27.753 72.135,26.311 69.876,26.311 C67.612,26.311 66.41,28.354 66.393,30.373 L66.393,30.373 Z" id="Fill-2" fill="#1A1918" sketch:type="MSShapeGroup"></path>
        <path d="M81.38,19.278 L81.38,38.187 L79.086,38.187 L79.086,19.278 L81.38,19.278" id="Fill-3" fill="#1A1918" sketch:type="MSShapeGroup"></path>
        <path d="M19.632,19.279 L19.632,22.766 L13.693,22.766 L13.693,38.186 L8.618,38.186 L8.618,22.766 L2.68,22.766 L2.68,19.279 L19.632,19.279" id="Fill-4" fill="#1A1918" sketch:type="MSShapeGroup"></path>
        <path d="M8.088,15.528 L8.054,15.368 C7.081,10.932 9.428,7.407 15.029,4.893 C16.226,4.357 17.583,4.01 18.895,3.675 C21.194,3.088 23.572,2.48 25.221,0.831 L25.588,0.22 C25.74,0.242 25.732,0.549 25.561,1.012 C25.19,2.006 23.785,2.989 22.296,4.029 C20.432,5.333 18.504,6.681 18.503,8.201 C18.501,8.93 18.725,9.465 19.168,9.791 C19.668,10.159 20.436,10.22 21.272,9.957 C21.854,9.775 22.562,9.349 23.167,8.818 C23.167,8.817 23.281,8.712 23.281,8.712 C23.354,8.643 23.506,8.498 23.55,8.509 C23.59,8.54 23.596,8.689 23.492,8.931 C22.466,12.496 18.743,17.563 14.412,17.84 C14.408,17.84 13.821,17.837 13.821,17.837 C13.816,17.785 14.076,17.677 14.306,17.581 L15.076,17.173 C16.822,15.815 17.331,14.442 17.706,12.227 C17.748,11.977 17.822,11.385 17.598,11.307 C17.389,11.234 17.265,11.459 17.078,11.799 C16.553,12.721 15.371,13.612 14.439,13.553 C13.938,13.521 13.567,13.222 13.335,12.663 C13.003,11.86 13.541,11.078 14.163,10.173 C14.649,9.467 15.2,8.665 15.413,7.722 L15.466,7.029 L15.306,7.017 C15.153,7.003 14.942,7.221 14.681,7.665 C14.119,8.617 13.125,9.361 12.071,10.149 C10.3,11.474 8.468,12.845 8.499,15.375 C8.503,15.829 8.508,16.589 8.393,16.654 C8.342,16.602 8.23,16.221 8.088,15.528" id="Fill-5" fill="#1A1918" sketch:type="MSShapeGroup"></path>
        <path d="M108.947,19.465 L108.137,19.465 L108.137,23.827 L109.254,23.827 C110.613,23.827 111.331,23.073 111.331,21.647 C111.331,20.942 111.137,20.396 110.755,20.025 C110.348,19.63 109.74,19.442 108.947,19.465 L108.947,19.465 Z M109.143,19.278 C110.741,19.278 111.586,20.098 111.586,21.647 C111.586,23.195 110.741,24.014 109.143,24.014 L107.916,24.014 L107.916,19.278 L109.143,19.278 L109.143,19.278 Z" id="Fill-6" fill="#1A1918" sketch:type="MSShapeGroup"></path>
        <path d="M112.63,22.11 L112.619,22.233 L115.07,22.233 L115.062,22.113 C115.005,21.315 114.544,20.84 113.829,20.84 C113.03,20.84 112.684,21.524 112.63,22.11 L112.63,22.11 Z M112.396,22.402 C112.396,21.576 112.842,20.687 113.822,20.687 C114.975,20.687 115.249,21.585 115.272,22.386 L112.614,22.386 L112.617,22.5 C112.633,23.417 113.122,23.965 113.925,23.965 C114.424,23.965 114.828,23.621 114.978,23.14 L115.16,23.14 C114.939,23.777 114.521,24.117 113.794,24.117 C112.762,24.117 112.396,23.193 112.396,22.402 L112.396,22.402 Z" id="Fill-7" fill="#1A1918" sketch:type="MSShapeGroup"></path>
        <path d="M116.437,19.277 L116.437,24.013 L116.25,24.013 L116.25,19.277 L116.437,19.277" id="Fill-8" fill="#1A1918" sketch:type="MSShapeGroup"></path>
        <path d="M117.867,20.79 L117.98,20.79 L117.98,19.941 C117.98,19.404 118.181,19.195 118.698,19.195 L118.954,19.241 C118.954,19.241 118.959,19.301 118.965,19.361 C118.9,19.354 118.835,19.348 118.835,19.348 L118.309,19.513 C118.155,19.673 118.153,19.915 118.166,20.241 L118.166,20.79 L118.95,20.79 L118.95,20.942 L118.166,20.942 L118.166,24.013 L117.98,24.013 L117.98,20.942 L117.285,20.942 L117.285,20.79 L117.867,20.79" id="Fill-9" fill="#1A1918" sketch:type="MSShapeGroup"></path>
        <path d="M120.333,19.935 L120.333,20.79 L121.116,20.79 L121.116,20.942 L120.333,20.942 L120.333,23.364 C120.333,23.361 120.482,23.806 120.482,23.806 L120.919,23.964 C120.919,23.964 121.049,23.949 121.164,23.935 L121.164,24.07 C121.061,24.085 120.858,24.116 120.858,24.116 C120.59,24.116 120.407,24.062 120.297,23.952 C120.143,23.797 120.145,23.532 120.146,23.275 L120.146,20.942 L119.459,20.942 L119.459,20.79 L120.146,20.79 L120.146,20.016 C120.198,19.993 120.244,19.973 120.333,19.935" id="Fill-10" fill="#1A1918" sketch:type="MSShapeGroup"></path>
        <path d="M111.318,26.365 L111.318,29.467 C111.304,30.554 110.668,31.203 109.617,31.203 C108.566,31.203 107.931,30.554 107.916,29.466 L107.916,26.365 L108.137,26.365 L108.137,29.46 C108.174,30.422 108.741,31.017 109.617,31.017 C110.493,31.017 111.061,30.422 111.097,29.465 L111.097,26.365 L111.318,26.365" id="Fill-11" fill="#1A1918" sketch:type="MSShapeGroup"></path>
        <path d="M112.834,28.342 C113.044,27.97 113.383,27.774 113.815,27.774 C114.727,27.774 114.918,28.471 114.918,29.056 L114.918,31.1 L114.731,31.1 L114.731,28.987 C114.731,28.332 114.34,27.926 113.711,27.926 C112.95,27.926 112.61,28.579 112.61,29.227 L112.61,31.1 L112.423,31.1 L112.423,28.54 C112.423,28.54 112.396,27.886 112.396,27.877 L112.593,27.877 C112.599,28.011 112.626,28.672 112.626,28.672 L112.834,28.342" id="Fill-12" fill="#1A1918" sketch:type="MSShapeGroup"></path>
        <path d="M116.292,26.365 L116.292,26.654 L116.036,26.654 L116.036,26.365 L116.292,26.365" id="Fill-13" fill="#1A1918" sketch:type="MSShapeGroup"></path>
        <path d="M116.258,27.877 L116.258,31.1 L116.071,31.1 L116.071,27.877 L116.258,27.877" id="Fill-14" fill="#1A1918" sketch:type="MSShapeGroup"></path>
        <path d="M120.1,27.877 C119.991,28.153 118.874,30.969 118.822,31.1 L118.507,31.1 C118.455,30.971 117.305,28.155 117.191,27.877 L117.401,27.877 C117.456,28.01 118.667,30.943 118.667,30.943 C118.667,30.943 119.835,28.013 119.89,27.877 L120.1,27.877" id="Fill-15" fill="#1A1918" sketch:type="MSShapeGroup"></path>
        <path d="M120.882,29.196 L120.871,29.319 L123.322,29.319 L123.313,29.198 C123.256,28.401 122.795,27.926 122.08,27.926 C121.332,27.926 120.939,28.564 120.882,29.196 L120.882,29.196 Z M120.646,29.488 C120.646,28.663 121.093,27.774 122.072,27.774 C123.226,27.774 123.5,28.671 123.522,29.472 L120.866,29.472 L120.868,29.586 C120.884,30.503 121.374,31.051 122.177,31.051 C122.675,31.051 123.079,30.707 123.229,30.226 L123.412,30.226 C123.191,30.863 122.772,31.203 122.046,31.203 C121.013,31.203 120.646,30.279 120.646,29.488 L120.646,29.488 Z" id="Fill-16" fill="#1A1918" sketch:type="MSShapeGroup"></path>
        <path d="M125.63,27.774 C125.631,27.774 125.824,27.777 125.925,27.778 L125.925,27.939 C125.884,27.935 125.783,27.926 125.783,27.926 C125.134,27.926 124.738,28.378 124.722,29.135 L124.722,31.1 L124.536,31.1 L124.536,28.54 L124.513,27.938 C124.513,27.938 124.511,27.905 124.509,27.877 L124.706,27.877 C124.711,28.011 124.722,28.277 124.722,28.277 L124.955,28.31 C125.064,28.001 125.335,27.785 125.63,27.774 L125.63,27.774 Z" id="Fill-17" fill="#1A1918" sketch:type="MSShapeGroup"></path>
        <path d="M128.754,30.25 C128.754,29.7 128.212,29.581 127.688,29.465 L127.574,29.439 C127.005,29.303 126.569,29.155 126.569,28.623 C126.569,27.835 127.451,27.774 127.721,27.774 C128.378,27.774 128.708,28.036 128.806,28.503 L128.586,28.503 C128.493,28.149 128.193,27.926 127.68,27.926 C127.139,27.926 126.79,28.188 126.79,28.595 C126.79,29.04 127.18,29.139 127.72,29.275 L128.466,29.492 C128.78,29.6 128.975,29.868 128.975,30.189 C128.975,30.89 128.304,31.203 127.638,31.203 C127.134,31.203 126.568,30.974 126.482,30.384 L126.729,30.384 C126.816,30.799 127.146,31.051 127.741,31.051 C128.246,31.051 128.754,30.803 128.754,30.25" id="Fill-18" fill="#1A1918" sketch:type="MSShapeGroup"></path>
        <path d="M130.22,26.365 L130.22,26.654 L129.964,26.654 L129.964,26.365 L130.22,26.365" id="Fill-19" fill="#1A1918" sketch:type="MSShapeGroup"></path>
        <path d="M130.185,27.877 L130.185,31.1 L129.999,31.1 L129.999,27.877 L130.185,27.877" id="Fill-20" fill="#1A1918" sketch:type="MSShapeGroup"></path>
        <path d="M132.004,27.022 L132.004,27.877 L132.788,27.877 L132.788,28.029 L132.004,28.029 L132.004,30.451 C132.004,30.448 132.153,30.893 132.153,30.893 L132.59,31.051 C132.59,31.051 132.721,31.036 132.835,31.022 L132.835,31.157 C132.732,31.173 132.529,31.203 132.529,31.203 C132.262,31.203 132.078,31.149 131.968,31.039 C131.814,30.884 131.816,30.619 131.817,30.362 L131.817,28.029 L131.13,28.029 L131.13,27.877 L131.817,27.877 L131.817,27.102 C131.869,27.08 131.916,27.06 132.004,27.022" id="Fill-21" fill="#1A1918" sketch:type="MSShapeGroup"></path>
        <path d="M136.498,27.877 C136.384,28.163 134.738,32.285 134.685,32.419 L134.474,32.419 C134.57,32.178 134.935,31.254 134.935,31.254 C134.935,31.181 133.848,28.548 133.57,27.877 L133.827,27.877 C133.881,28.012 135.064,30.953 135.064,30.953 C135.064,30.953 136.241,28.012 136.295,27.877 L136.498,27.877" id="Fill-22" fill="#1A1918" sketch:type="MSShapeGroup"></path>
        <path d="M139.272,29.488 C139.272,30.241 139.67,31.051 140.546,31.051 C141.421,31.051 141.819,30.241 141.819,29.488 C141.819,28.736 141.421,27.926 140.546,27.926 C139.67,27.926 139.272,28.736 139.272,29.488 L139.272,29.488 Z M139.051,29.488 C139.051,28.635 139.514,27.774 140.546,27.774 C141.578,27.774 142.041,28.635 142.041,29.488 C142.041,30.342 141.578,31.203 140.546,31.203 C139.514,31.203 139.051,30.342 139.051,29.488 L139.051,29.488 Z" id="Fill-23" fill="#1A1918" sketch:type="MSShapeGroup"></path>
        <path d="M143.115,27.877 L143.228,27.877 L143.228,27.028 C143.228,26.491 143.429,26.282 143.946,26.282 L144.203,26.328 L144.213,26.448 C144.149,26.441 144.084,26.435 144.084,26.435 L143.557,26.601 C143.404,26.76 143.401,27.003 143.415,27.328 L143.415,27.877 L144.198,27.877 L144.198,28.029 L143.415,28.029 L143.415,31.1 L143.228,31.1 L143.228,28.029 L142.534,28.029 L142.534,27.877 L143.115,27.877" id="Fill-24" fill="#1A1918" sketch:type="MSShapeGroup"></path>
        <path d="M111.318,33.451 L111.318,33.638 L109.745,33.638 L109.745,38.186 L109.518,38.186 L109.518,33.638 L107.916,33.638 L107.916,33.451 L111.318,33.451" id="Fill-25" fill="#1A1918" sketch:type="MSShapeGroup"></path>
        <path d="M111.292,36.283 L111.281,36.406 L113.732,36.406 L113.723,36.285 C113.666,35.488 113.205,35.013 112.491,35.013 C111.691,35.013 111.345,35.697 111.292,36.283 L111.292,36.283 Z M111.057,36.575 C111.057,35.749 111.503,34.86 112.484,34.86 C113.636,34.86 113.91,35.758 113.933,36.559 L111.275,36.559 L111.278,36.673 C111.295,37.59 111.784,38.138 112.586,38.138 C113.085,38.138 113.489,37.793 113.64,37.313 L113.822,37.313 C113.601,37.95 113.183,38.29 112.456,38.29 C111.423,38.29 111.057,37.366 111.057,36.575 L111.057,36.575 Z" id="Fill-26" fill="#1A1918" sketch:type="MSShapeGroup"></path>
        <path d="M114.774,36.575 C114.774,35.749 115.22,34.86 116.2,34.86 C116.839,34.86 117.261,35.245 117.351,35.796 L117.137,35.796 C117.054,35.307 116.722,35.013 116.131,35.013 C115.473,35.013 114.995,35.667 114.995,36.569 C114.995,37.478 115.473,38.138 116.131,38.138 C116.675,38.138 117.043,37.807 117.134,37.334 L117.347,37.334 C117.209,37.952 116.844,38.29 116.172,38.29 C115.14,38.29 114.774,37.366 114.774,36.575" id="Fill-27" fill="#1A1918" sketch:type="MSShapeGroup"></path>
        <path d="M118.499,33.451 L118.499,35.804 L118.724,35.429 C118.933,35.057 119.272,34.86 119.704,34.86 C120.616,34.86 120.807,35.558 120.807,36.143 L120.807,38.186 L120.62,38.186 L120.62,36.073 C120.62,35.419 120.23,35.013 119.601,35.013 C118.84,35.013 118.499,35.666 118.499,36.313 L118.499,38.186 L118.313,38.186 L118.313,33.451 L118.499,33.451" id="Fill-28" fill="#1A1918" sketch:type="MSShapeGroup"></path>
        <path d="M122.262,35.429 C122.472,35.057 122.811,34.86 123.242,34.86 C124.154,34.86 124.346,35.558 124.346,36.143 L124.346,38.186 L124.159,38.186 L124.159,36.073 C124.159,35.419 123.769,35.013 123.14,35.013 C122.378,35.013 122.037,35.666 122.037,36.313 L122.037,38.186 L121.851,38.186 L121.851,35.626 C121.851,35.626 121.823,34.967 121.823,34.964 L122.021,34.964 C122.026,35.098 122.053,35.761 122.053,35.761 L122.262,35.429" id="Fill-29" fill="#1A1918" sketch:type="MSShapeGroup"></path>
        <path d="M125.554,36.575 C125.554,37.328 125.953,38.138 126.828,38.138 C127.704,38.138 128.102,37.328 128.102,36.575 C128.102,35.823 127.704,35.013 126.828,35.013 C125.953,35.013 125.554,35.823 125.554,36.575 L125.554,36.575 Z M125.334,36.575 C125.334,35.722 125.796,34.86 126.828,34.86 C127.861,34.86 128.323,35.722 128.323,36.575 C128.323,37.428 127.861,38.29 126.828,38.29 C125.796,38.29 125.334,37.428 125.334,36.575 L125.334,36.575 Z" id="Fill-30" fill="#1A1918" sketch:type="MSShapeGroup"></path>
        <path d="M129.441,33.451 L129.441,38.186 L129.254,38.186 L129.254,33.451 L129.441,33.451" id="Fill-31" fill="#1A1918" sketch:type="MSShapeGroup"></path>
        <path d="M130.609,36.575 C130.609,37.328 131.008,38.138 131.884,38.138 C132.759,38.138 133.157,37.328 133.157,36.575 C133.157,35.823 132.759,35.013 131.884,35.013 C131.008,35.013 130.609,35.823 130.609,36.575 L130.609,36.575 Z M130.389,36.575 C130.389,35.722 130.852,34.86 131.884,34.86 C132.916,34.86 133.378,35.722 133.378,36.575 C133.378,37.428 132.916,38.29 131.884,38.29 C130.852,38.29 130.389,37.428 130.389,36.575 L130.389,36.575 Z" id="Fill-32" fill="#1A1918" sketch:type="MSShapeGroup"></path>
        <path d="M134.427,36.514 C134.427,37.263 134.836,38.021 135.618,38.021 C136.508,38.021 136.824,37.202 136.824,36.499 C136.824,35.76 136.406,35.013 135.605,35.013 C134.795,35.013 134.427,35.79 134.427,36.514 L134.427,36.514 Z M134.207,36.547 C134.207,36.152 134.305,34.86 135.563,34.86 C135.996,34.86 136.327,35.048 136.605,35.45 L136.798,35.729 L136.824,35.364 C136.824,35.364 136.834,35.099 136.84,34.964 L137.039,34.964 C137.036,35.027 137.011,35.626 137.011,35.626 L137.011,37.797 C137.011,38.489 136.982,39.061 136.347,39.358 C136.346,39.359 135.611,39.506 135.611,39.506 C135.336,39.506 134.504,39.432 134.397,38.804 L134.647,38.804 C134.755,39.137 135.1,39.353 135.667,39.353 C136.223,39.353 136.809,38.956 136.824,38.289 L136.824,37.64 L136.596,37.59 C136.427,37.934 136.008,38.174 135.578,38.174 C134.719,38.174 134.207,37.565 134.207,36.547 L134.207,36.547 Z" id="Fill-33" fill="#1A1918" sketch:type="MSShapeGroup"></path>
        <path d="M140.769,34.964 C140.655,35.249 139.009,39.372 138.956,39.506 L138.746,39.506 C138.842,39.265 139.207,38.341 139.207,38.341 C139.207,38.267 138.119,35.635 137.841,34.964 L138.098,34.964 C138.152,35.099 139.336,38.04 139.336,38.04 C139.336,38.04 140.512,35.099 140.566,34.964 L140.769,34.964" id="Fill-34" fill="#1A1918" sketch:type="MSShapeGroup"></path>
        <path d="M86.869,25.109 L86.981,25.109 L86.981,22.51 C86.981,20.238 88.495,18.881 91.031,18.881 C91.031,18.881 92.562,19.107 92.721,19.131 L92.721,21.003 C92.59,20.993 92.38,20.978 92.38,20.978 L91.562,20.934 C90.079,20.934 89.275,21.238 89.275,22.848 L89.275,25.109 L92.348,25.109 L92.348,26.636 L89.275,26.636 L89.275,38.186 L86.981,38.186 L86.981,26.636 L84.386,26.636 L84.386,25.109 L86.869,25.109" id="Fill-35" fill="#1A1918" sketch:type="MSShapeGroup"></path>
        <path d="M98.595,21.52 L98.595,25.109 L101.669,25.109 L101.669,26.636 L98.595,26.636 L98.595,35.359 C98.595,36.28 99.284,36.875 100.35,36.875 C100.35,36.875 101.339,36.757 101.564,36.73 L101.564,38.436 C101.396,38.451 99.954,38.583 99.954,38.583 C96.301,38.583 96.301,36.953 96.301,35.226 L96.301,26.636 L94.021,26.636 L94.021,25.11 L96.301,25.112 L96.301,22.244 C96.44,22.2 98.343,21.599 98.595,21.52" id="Fill-36" fill="#1A1918" sketch:type="MSShapeGroup"></path>
        <path d="M48.487,21.331 L48.375,21.331 L48.375,36.134 L52.407,36.134 C56.396,36.134 58.777,33.368 58.777,28.734 C58.777,24.098 56.396,21.331 52.407,21.331 L48.487,21.331 L48.487,21.331 Z M52.406,19.278 C60.691,19.278 61.336,26.516 61.336,28.734 C61.336,30.951 60.691,38.186 52.406,38.186 L45.945,38.186 L45.945,19.278 L52.406,19.278 L52.406,19.278 Z" id="Fill-37" fill="#1A1918" sketch:type="MSShapeGroup"></path>
        <path d="M31.385,34.984 C33.877,34.984 35.231,33.329 35.231,31.007 L35.231,19.165 L40.532,19.165 L40.532,31.272 C40.479,36.601 36.21,38.694 31.385,38.694 C26.56,38.694 22.292,36.601 22.239,31.272 L22.239,19.165 L27.54,19.165 L27.54,31.007 C27.54,33.329 28.893,34.984 31.385,34.984" id="Fill-38" fill="#00A3DB" sketch:type="MSShapeGroup"></path>
        <path d="M75.92,32.123 L75.92,30.876 C75.92,27.193 73.833,24.593 70.059,24.593 C65.845,24.593 63.882,27.855 63.882,31.751 C63.882,35.675 65.581,38.697 69.848,38.697 C73.03,38.697 75.362,37.187 75.76,34.165 L73.11,34.165 C72.817,36.099 71.837,36.868 69.876,36.868 C67.302,36.868 66.449,34.579 66.449,32.123 L75.92,32.123 L75.92,32.123 Z M66.505,30.373 C66.523,28.298 67.78,26.423 69.876,26.423 C72.313,26.423 73.266,28.094 73.266,30.373 L66.505,30.373 L66.505,30.373 Z" id="Fill-39" fill="#1A1918" sketch:type="MSShapeGroup"></path>
        <path d="M78.973,19.165 L81.493,19.165 L81.493,38.3 L78.973,38.3 L78.973,19.165 Z" id="Fill-40" fill="#1A1918" sketch:type="MSShapeGroup"></path>
        <path d="M8.505,38.299 L13.806,38.299 L13.806,22.878 L19.745,22.878 L19.745,19.166 L2.567,19.166 L2.567,22.878 L8.505,22.878 L8.505,38.299" id="Fill-41" fill="#1A1918" sketch:type="MSShapeGroup"></path>
        <path d="M21.239,9.849 C19.946,10.255 18.612,9.93 18.616,8.201 C18.618,5.565 24.808,3.355 25.667,1.051 C25.879,0.477 25.892,0.004 25.618,0.019 C25.421,0.031 25.575,0.317 25.141,0.751 C22.577,3.317 18.28,3.313 14.983,4.79 C12.821,5.76 6.485,8.742 7.944,15.392 C8.013,15.707 8.202,16.766 8.395,16.766 C8.62,16.766 8.618,16.137 8.612,15.373 C8.563,11.414 13.252,10.309 14.778,7.722 C14.96,7.413 15.276,6.979 15.351,7.18 C15.387,7.278 15.364,7.421 15.302,7.697 C14.825,9.823 12.601,11.187 13.231,12.707 C14.047,14.679 16.405,13.208 17.129,11.941 C17.323,11.591 17.431,11.369 17.561,11.414 C17.659,11.448 17.655,11.848 17.594,12.208 C17.208,14.497 16.681,15.782 15.006,17.083 C14.471,17.5 13.629,17.587 13.739,17.908 C13.767,17.991 14.13,17.982 14.42,17.953 C18.879,17.667 22.608,12.41 23.596,8.975 C23.7,8.734 23.731,8.506 23.622,8.421 C23.487,8.318 23.292,8.556 23.092,8.733 C22.583,9.18 21.883,9.647 21.239,9.849" id="Fill-42" fill="#1A1918" sketch:type="MSShapeGroup"></path>
        <path d="M109.254,23.714 C110.648,23.714 111.218,22.897 111.218,21.647 C111.218,20.183 110.359,19.537 108.951,19.578 L108.25,19.578 L108.25,23.714 L109.254,23.714 L109.254,23.714 Z M109.143,19.165 C110.772,19.165 111.699,20.004 111.699,21.647 C111.699,23.289 110.772,24.126 109.143,24.126 L107.803,24.126 L107.803,19.165 L109.143,19.165 L109.143,19.165 Z" id="Fill-43" fill="#1A1918" sketch:type="MSShapeGroup"></path>
        <path d="M114.949,22.121 C114.901,21.454 114.543,20.953 113.829,20.953 C113.155,20.953 112.798,21.516 112.743,22.121 L114.949,22.121 L114.949,22.121 Z M112.73,22.498 C112.743,23.233 113.08,23.852 113.925,23.852 C114.413,23.852 114.818,23.502 114.921,23.027 L115.354,23.027 C115.141,23.852 114.626,24.229 113.794,24.229 C112.764,24.229 112.283,23.343 112.283,22.402 C112.283,21.468 112.798,20.575 113.822,20.575 C114.976,20.575 115.395,21.42 115.395,22.498 L112.73,22.498 L112.73,22.498 Z" id="Fill-44" fill="#1A1918" sketch:type="MSShapeGroup"></path>
        <path d="M116.137,19.165 L116.549,19.165 L116.549,24.126 L116.137,24.126 L116.137,19.165 Z" id="Fill-45" fill="#1A1918" sketch:type="MSShapeGroup"></path>
        <path d="M117.867,24.125 L117.867,21.055 L117.172,21.055 L117.172,20.677 L117.867,20.677 L117.867,19.941 C117.867,19.35 118.106,19.082 118.698,19.082 C118.829,19.082 118.966,19.131 119.089,19.158 L119.089,19.487 C119.007,19.474 118.918,19.46 118.835,19.46 C118.272,19.46 118.259,19.743 118.279,20.236 L118.279,20.677 L119.063,20.677 L119.063,21.055 L118.279,21.055 L118.279,24.125 L117.867,24.125" id="Fill-46" fill="#1A1918" sketch:type="MSShapeGroup"></path>
        <path d="M120.033,21.055 L119.346,21.055 L119.346,20.677 L120.033,20.677 L120.033,19.941 L120.445,19.763 L120.445,20.677 L121.229,20.677 L121.229,21.055 L120.445,21.055 L120.445,23.364 C120.438,23.679 120.603,23.851 120.919,23.851 C121.043,23.851 121.167,23.844 121.277,23.81 L121.277,24.167 C121.146,24.202 120.995,24.228 120.858,24.228 C119.985,24.228 120.033,23.672 120.033,23.205 L120.033,21.055" id="Fill-47" fill="#1A1918" sketch:type="MSShapeGroup"></path>
        <path d="M108.25,26.252 L108.25,29.46 C108.285,30.361 108.8,30.904 109.617,30.904 C110.435,30.904 110.95,30.361 110.984,29.46 L110.984,26.252 L111.431,26.252 L111.431,29.467 C111.417,30.532 110.819,31.316 109.617,31.316 C108.414,31.316 107.817,30.532 107.803,29.467 L107.803,26.252 L108.25,26.252" id="Fill-48" fill="#1A1918" sketch:type="MSShapeGroup"></path>
        <path d="M112.723,31.213 L112.31,31.213 L112.31,28.54 C112.31,28.272 112.289,27.998 112.276,27.764 L112.701,27.764 L112.723,28.272 L112.736,28.286 C112.977,27.86 113.369,27.661 113.815,27.661 C114.941,27.661 115.031,28.657 115.031,29.056 L115.031,31.213 L114.618,31.213 L114.618,28.987 C114.618,28.389 114.275,28.039 113.711,28.039 C113.031,28.039 112.723,28.609 112.723,29.227 L112.723,31.213" id="Fill-49" fill="#1A1918" sketch:type="MSShapeGroup"></path>
        <path d="M115.958,27.764 L116.371,27.764 L116.371,31.213 L115.958,31.213 L115.958,27.764 Z M115.923,26.252 L116.405,26.252 L116.405,26.767 L115.923,26.767 L115.923,26.252 Z" id="Fill-50" fill="#1A1918" sketch:type="MSShapeGroup"></path>
        <path d="M117.477,27.764 L118.665,30.643 L119.813,27.764 L120.267,27.764 L118.898,31.213 L118.432,31.213 L117.023,27.764 L117.477,27.764" id="Fill-51" fill="#1A1918" sketch:type="MSShapeGroup"></path>
        <path d="M123.2,29.207 C123.152,28.54 122.794,28.039 122.08,28.039 C121.406,28.039 121.049,28.602 120.994,29.207 L123.2,29.207 L123.2,29.207 Z M120.981,29.584 C120.994,30.32 121.332,30.938 122.177,30.938 C122.664,30.938 123.07,30.588 123.172,30.113 L123.604,30.113 C123.393,30.938 122.877,31.316 122.046,31.316 C121.016,31.316 120.534,30.429 120.534,29.488 C120.534,28.554 121.049,27.661 122.072,27.661 C123.228,27.661 123.646,28.506 123.646,29.584 L120.981,29.584 L120.981,29.584 Z" id="Fill-52" fill="#1A1918" sketch:type="MSShapeGroup"></path>
        <path d="M124.835,31.213 L124.423,31.213 L124.423,28.54 C124.43,28.272 124.402,27.998 124.388,27.764 L124.814,27.764 L124.835,28.272 L124.849,28.272 C124.973,27.921 125.282,27.674 125.626,27.661 C125.763,27.654 125.9,27.661 126.038,27.667 L126.038,28.066 C125.955,28.059 125.866,28.039 125.783,28.039 C125.171,28.039 124.849,28.478 124.835,29.138 L124.835,31.213" id="Fill-53" fill="#1A1918" sketch:type="MSShapeGroup"></path>
        <path d="M127.721,27.661 C128.374,27.661 128.922,27.887 128.979,28.616 L128.532,28.616 C128.49,28.183 128.105,28.039 127.68,28.039 C127.294,28.039 126.903,28.189 126.903,28.595 C126.903,29.104 127.569,29.056 128.503,29.385 C128.861,29.509 129.088,29.818 129.088,30.189 C129.088,30.966 128.366,31.316 127.638,31.316 C127.04,31.316 126.353,31.034 126.339,30.271 L126.786,30.271 C126.82,30.787 127.274,30.938 127.741,30.938 C128.181,30.938 128.641,30.732 128.641,30.25 C128.641,29.756 128.099,29.674 127.549,29.55 C127.006,29.419 126.456,29.262 126.456,28.623 C126.456,27.908 127.115,27.661 127.721,27.661" id="Fill-54" fill="#1A1918" sketch:type="MSShapeGroup"></path>
        <path d="M129.886,27.764 L130.298,27.764 L130.298,31.213 L129.886,31.213 L129.886,27.764 Z M129.851,26.252 L130.333,26.252 L130.333,26.767 L129.851,26.767 L129.851,26.252 Z" id="Fill-55" fill="#1A1918" sketch:type="MSShapeGroup"></path>
        <path d="M131.705,28.142 L131.017,28.142 L131.017,27.764 L131.705,27.764 L131.705,27.028 L132.117,26.85 L132.117,27.764 L132.9,27.764 L132.9,28.142 L132.117,28.142 L132.117,30.451 C132.11,30.766 132.274,30.938 132.59,30.938 C132.715,30.938 132.839,30.931 132.948,30.897 L132.948,31.254 C132.817,31.289 132.667,31.316 132.529,31.316 C131.656,31.316 131.705,30.759 131.705,30.292 L131.705,28.142" id="Fill-56" fill="#1A1918" sketch:type="MSShapeGroup"></path>
        <path d="M133.903,27.764 L135.064,30.649 L136.218,27.764 L136.665,27.764 L134.761,32.532 L134.308,32.532 L134.83,31.213 L133.401,27.764 L133.903,27.764" id="Fill-57" fill="#1A1918" sketch:type="MSShapeGroup"></path>
        <path d="M140.546,28.039 C139.714,28.039 139.385,28.85 139.385,29.488 C139.385,30.127 139.714,30.938 140.546,30.938 C141.377,30.938 141.707,30.127 141.707,29.488 C141.707,28.85 141.377,28.039 140.546,28.039 L140.546,28.039 Z M142.153,29.488 C142.153,30.395 141.645,31.316 140.546,31.316 C139.446,31.316 138.938,30.395 138.938,29.488 C138.938,28.581 139.446,27.661 140.546,27.661 C141.645,27.661 142.153,28.581 142.153,29.488 L142.153,29.488 Z" id="Fill-58" fill="#1A1918" sketch:type="MSShapeGroup"></path>
        <path d="M143.115,31.213 L143.115,28.142 L142.421,28.142 L142.421,27.764 L143.115,27.764 L143.115,27.028 C143.115,26.437 143.355,26.169 143.946,26.169 C144.077,26.169 144.215,26.218 144.337,26.245 L144.337,26.575 C144.256,26.561 144.167,26.548 144.084,26.548 C143.521,26.548 143.507,26.83 143.527,27.323 L143.527,27.764 L144.311,27.764 L144.311,28.142 L143.527,28.142 L143.527,31.213 L143.115,31.213" id="Fill-59" fill="#1A1918" sketch:type="MSShapeGroup"></path>
        <path d="M109.405,33.751 L107.803,33.751 L107.803,33.338 L111.431,33.338 L111.431,33.751 L109.857,33.751 L109.857,38.299 L109.405,38.299 L109.405,33.751" id="Fill-60" fill="#1A1918" sketch:type="MSShapeGroup"></path>
        <path d="M113.61,36.293 C113.563,35.626 113.205,35.125 112.491,35.125 C111.817,35.125 111.459,35.689 111.404,36.293 L113.61,36.293 L113.61,36.293 Z M111.391,36.671 C111.404,37.407 111.742,38.025 112.586,38.025 C113.074,38.025 113.48,37.675 113.583,37.2 L114.015,37.2 C113.803,38.025 113.288,38.402 112.456,38.402 C111.426,38.402 110.944,37.516 110.944,36.575 C110.944,35.641 111.459,34.748 112.484,34.748 C113.637,34.748 114.057,35.593 114.057,36.671 L111.391,36.671 L111.391,36.671 Z" id="Fill-61" fill="#1A1918" sketch:type="MSShapeGroup"></path>
        <path d="M117.073,35.909 C117.038,35.379 116.702,35.125 116.131,35.125 C115.499,35.125 115.107,35.785 115.107,36.569 C115.107,37.358 115.499,38.025 116.131,38.025 C116.667,38.025 117.038,37.695 117.073,37.221 L117.519,37.221 C117.409,38.011 116.956,38.402 116.172,38.402 C115.142,38.402 114.661,37.516 114.661,36.575 C114.661,35.641 115.176,34.748 116.2,34.748 C116.908,34.748 117.485,35.174 117.519,35.909 L117.073,35.909" id="Fill-62" fill="#1A1918" sketch:type="MSShapeGroup"></path>
        <path d="M118.612,35.373 L118.626,35.373 C118.866,34.947 119.258,34.748 119.704,34.748 C120.831,34.748 120.92,35.744 120.92,36.143 L120.92,38.299 L120.507,38.299 L120.507,36.073 C120.507,35.476 120.165,35.125 119.601,35.125 C118.92,35.125 118.612,35.696 118.612,36.313 L118.612,38.299 L118.2,38.299 L118.2,33.338 L118.612,33.338 L118.612,35.373" id="Fill-63" fill="#1A1918" sketch:type="MSShapeGroup"></path>
        <path d="M122.15,38.299 L121.738,38.299 L121.738,35.626 C121.738,35.359 121.717,35.084 121.703,34.851 L122.129,34.851 L122.15,35.359 L122.164,35.373 C122.404,34.947 122.796,34.748 123.242,34.748 C124.369,34.748 124.458,35.744 124.458,36.143 L124.458,38.299 L124.046,38.299 L124.046,36.073 C124.046,35.476 123.703,35.125 123.14,35.125 C122.459,35.125 122.15,35.696 122.15,36.313 L122.15,38.299" id="Fill-64" fill="#1A1918" sketch:type="MSShapeGroup"></path>
        <path d="M126.828,35.125 C125.997,35.125 125.667,35.936 125.667,36.575 C125.667,37.214 125.997,38.025 126.828,38.025 C127.66,38.025 127.989,37.214 127.989,36.575 C127.989,35.936 127.66,35.125 126.828,35.125 L126.828,35.125 Z M128.436,36.575 C128.436,37.481 127.928,38.402 126.828,38.402 C125.729,38.402 125.221,37.481 125.221,36.575 C125.221,35.668 125.729,34.748 126.828,34.748 C127.928,34.748 128.436,35.668 128.436,36.575 L128.436,36.575 Z" id="Fill-65" fill="#1A1918" sketch:type="MSShapeGroup"></path>
        <path d="M129.142,33.338 L129.554,33.338 L129.554,38.299 L129.142,38.299 L129.142,33.338 Z" id="Fill-66" fill="#1A1918" sketch:type="MSShapeGroup"></path>
        <path d="M131.884,35.125 C131.052,35.125 130.722,35.936 130.722,36.575 C130.722,37.214 131.052,38.025 131.884,38.025 C132.715,38.025 133.044,37.214 133.044,36.575 C133.044,35.936 132.715,35.125 131.884,35.125 L131.884,35.125 Z M133.491,36.575 C133.491,37.481 132.983,38.402 131.884,38.402 C130.784,38.402 130.276,37.481 130.276,36.575 C130.276,35.668 130.784,34.748 131.884,34.748 C132.983,34.748 133.491,35.668 133.491,36.575 L133.491,36.575 Z" id="Fill-67" fill="#1A1918" sketch:type="MSShapeGroup"></path>
        <path d="M135.605,35.125 C134.856,35.125 134.54,35.881 134.54,36.514 C134.54,37.145 134.863,37.909 135.618,37.909 C136.408,37.909 136.711,37.173 136.711,36.499 C136.711,35.84 136.347,35.125 135.605,35.125 L135.605,35.125 Z M136.731,34.851 L137.158,34.851 C137.144,35.084 137.124,35.359 137.124,35.626 L137.124,37.695 C137.124,38.382 137.158,39.103 136.395,39.461 C136.12,39.592 135.935,39.619 135.611,39.619 C134.987,39.619 134.245,39.406 134.245,38.691 L134.691,38.691 C134.74,39.103 135.227,39.241 135.667,39.241 C136.203,39.241 136.698,38.863 136.711,38.287 L136.711,37.64 L136.698,37.64 C136.498,38.046 136.024,38.287 135.578,38.287 C134.54,38.287 134.094,37.496 134.094,36.547 C134.094,35.613 134.513,34.748 135.563,34.748 C136.065,34.748 136.423,34.988 136.698,35.386 L136.711,35.359 L136.731,34.851 L136.731,34.851 Z" id="Fill-68" fill="#1A1918" sketch:type="MSShapeGroup"></path>
        <path d="M138.174,34.851 L139.335,37.736 L140.49,34.851 L140.936,34.851 L139.033,39.619 L138.58,39.619 L139.102,38.299 L137.672,34.851 L138.174,34.851" id="Fill-69" fill="#1A1918" sketch:type="MSShapeGroup"></path>
        <path d="M89.388,38.299 L89.388,26.748 L92.46,26.748 L92.46,24.997 L89.388,24.997 L89.388,22.848 C89.388,21.31 90.129,21.046 91.562,21.046 C91.984,21.046 92.41,21.101 92.834,21.124 L92.834,19.034 C92.244,18.9 91.642,18.768 91.031,18.768 C88.646,18.768 86.869,19.963 86.869,22.51 L86.869,24.997 L84.273,24.997 L84.273,26.748 L86.869,26.748 L86.869,38.299 L89.388,38.299" id="Fill-70" fill="#1A1918" sketch:type="MSShapeGroup"></path>
        <path d="M93.908,24.997 L93.908,26.748 L96.188,26.748 L96.188,35.226 C96.188,36.996 96.213,38.696 99.954,38.696 C100.536,38.696 101.083,38.642 101.677,38.539 L101.677,36.604 C101.267,36.703 100.749,36.763 100.35,36.763 C99.449,36.763 98.708,36.31 98.708,35.359 L98.708,26.748 L101.782,26.748 L101.782,24.997 L98.708,24.997 L98.708,21.366 L96.188,22.161 L96.188,24.998 L93.908,24.997" id="Fill-71" fill="#1A1918" sketch:type="MSShapeGroup"></path>
        <path d="M48.487,21.443 L52.407,21.443 C56.83,21.443 58.665,24.78 58.665,28.734 C58.665,32.687 56.83,36.021 52.407,36.021 L48.487,36.021 L48.487,21.443 L48.487,21.443 Z M45.833,38.299 L52.406,38.299 C60.589,38.299 61.448,31.373 61.448,28.734 C61.448,26.095 60.589,19.165 52.406,19.165 L45.833,19.165 L45.833,38.299 L45.833,38.299 Z" id="Fill-72" fill="#1A1918" sketch:type="MSShapeGroup"></path>
    </g>
</svg>